G04 #@! TF.GenerationSoftware,KiCad,Pcbnew,6.0.2+dfsg-1*
G04 #@! TF.CreationDate,2023-09-07T15:13:02+02:00*
G04 #@! TF.ProjectId,flipper_esp32,666c6970-7065-4725-9f65-737033322e6b,rev?*
G04 #@! TF.SameCoordinates,Original*
G04 #@! TF.FileFunction,Copper,L1,Top*
G04 #@! TF.FilePolarity,Positive*
%FSLAX46Y46*%
G04 Gerber Fmt 4.6, Leading zero omitted, Abs format (unit mm)*
G04 Created by KiCad (PCBNEW 6.0.2+dfsg-1) date 2023-09-07 15:13:02*
%MOMM*%
%LPD*%
G01*
G04 APERTURE LIST*
G04 Aperture macros list*
%AMRoundRect*
0 Rectangle with rounded corners*
0 $1 Rounding radius*
0 $2 $3 $4 $5 $6 $7 $8 $9 X,Y pos of 4 corners*
0 Add a 4 corners polygon primitive as box body*
4,1,4,$2,$3,$4,$5,$6,$7,$8,$9,$2,$3,0*
0 Add four circle primitives for the rounded corners*
1,1,$1+$1,$2,$3*
1,1,$1+$1,$4,$5*
1,1,$1+$1,$6,$7*
1,1,$1+$1,$8,$9*
0 Add four rect primitives between the rounded corners*
20,1,$1+$1,$2,$3,$4,$5,0*
20,1,$1+$1,$4,$5,$6,$7,0*
20,1,$1+$1,$6,$7,$8,$9,0*
20,1,$1+$1,$8,$9,$2,$3,0*%
G04 Aperture macros list end*
G04 #@! TA.AperFunction,SMDPad,CuDef*
%ADD10RoundRect,0.250000X-0.337500X-0.475000X0.337500X-0.475000X0.337500X0.475000X-0.337500X0.475000X0*%
G04 #@! TD*
G04 #@! TA.AperFunction,SMDPad,CuDef*
%ADD11RoundRect,0.250000X-0.450000X0.350000X-0.450000X-0.350000X0.450000X-0.350000X0.450000X0.350000X0*%
G04 #@! TD*
G04 #@! TA.AperFunction,SMDPad,CuDef*
%ADD12RoundRect,0.250000X0.450000X-0.350000X0.450000X0.350000X-0.450000X0.350000X-0.450000X-0.350000X0*%
G04 #@! TD*
G04 #@! TA.AperFunction,SMDPad,CuDef*
%ADD13RoundRect,0.250000X0.350000X0.450000X-0.350000X0.450000X-0.350000X-0.450000X0.350000X-0.450000X0*%
G04 #@! TD*
G04 #@! TA.AperFunction,ComponentPad*
%ADD14R,1.700000X1.700000*%
G04 #@! TD*
G04 #@! TA.AperFunction,ComponentPad*
%ADD15O,1.700000X1.700000*%
G04 #@! TD*
G04 #@! TA.AperFunction,SMDPad,CuDef*
%ADD16R,0.900000X2.000000*%
G04 #@! TD*
G04 #@! TA.AperFunction,SMDPad,CuDef*
%ADD17R,2.000000X0.900000*%
G04 #@! TD*
G04 #@! TA.AperFunction,SMDPad,CuDef*
%ADD18R,5.000000X5.000000*%
G04 #@! TD*
G04 #@! TA.AperFunction,ViaPad*
%ADD19C,0.800000*%
G04 #@! TD*
G04 #@! TA.AperFunction,Conductor*
%ADD20C,0.500000*%
G04 #@! TD*
G04 #@! TA.AperFunction,Conductor*
%ADD21C,0.250000*%
G04 #@! TD*
G04 APERTURE END LIST*
D10*
X137138500Y-125222000D03*
X139213500Y-125222000D03*
D11*
X141478000Y-123460000D03*
X141478000Y-125460000D03*
D12*
X144018000Y-125460000D03*
X144018000Y-123460000D03*
D13*
X133112000Y-124206000D03*
X135112000Y-124206000D03*
D14*
X126238000Y-128270000D03*
D15*
X128778000Y-128270000D03*
X131318000Y-128270000D03*
X133858000Y-128270000D03*
X136398000Y-128270000D03*
X138938000Y-128270000D03*
X141478000Y-128270000D03*
X144018000Y-128270000D03*
X146558000Y-128270000D03*
X149098000Y-128270000D03*
D16*
X132200000Y-121022000D03*
X133470000Y-121022000D03*
X134740000Y-121022000D03*
X136010000Y-121022000D03*
X137280000Y-121022000D03*
X138550000Y-121022000D03*
X139820000Y-121022000D03*
X141090000Y-121022000D03*
X142360000Y-121022000D03*
X143630000Y-121022000D03*
X144900000Y-121022000D03*
X146170000Y-121022000D03*
X147440000Y-121022000D03*
X148710000Y-121022000D03*
D17*
X149710000Y-118237000D03*
X149710000Y-116967000D03*
X149710000Y-115697000D03*
X149710000Y-114427000D03*
X149710000Y-113157000D03*
X149710000Y-111887000D03*
X149710000Y-110617000D03*
X149710000Y-109347000D03*
X149710000Y-108077000D03*
X149710000Y-106807000D03*
D16*
X148710000Y-104022000D03*
X147440000Y-104022000D03*
X146170000Y-104022000D03*
X144900000Y-104022000D03*
X143630000Y-104022000D03*
X142360000Y-104022000D03*
X141090000Y-104022000D03*
X139820000Y-104022000D03*
X138550000Y-104022000D03*
X137280000Y-104022000D03*
X136010000Y-104022000D03*
X134740000Y-104022000D03*
X133470000Y-104022000D03*
X132200000Y-104022000D03*
D18*
X139700000Y-113522000D03*
D19*
X150530000Y-103566000D03*
X138259500Y-106171574D03*
X137398157Y-109914001D03*
X139949057Y-109914000D03*
X142513516Y-109956190D03*
X143421032Y-112050500D03*
X145929661Y-111819500D03*
X146594500Y-110176313D03*
X146594500Y-107607487D03*
X144765458Y-107128500D03*
X143088755Y-105872885D03*
X140526789Y-105870722D03*
X136111559Y-113635131D03*
X136133106Y-110711374D03*
X136115016Y-116266710D03*
X140565321Y-118446308D03*
X138941028Y-118353546D03*
X131542467Y-106114823D03*
X131410000Y-108657055D03*
X131962529Y-118914001D03*
X132878500Y-116892661D03*
X131973525Y-114546604D03*
X131862500Y-111870443D03*
X133066082Y-109642696D03*
X134987248Y-107721530D03*
X134176789Y-105870722D03*
X143524801Y-117702421D03*
X144045048Y-119167500D03*
X146893519Y-119171632D03*
X147772288Y-117190598D03*
X150009053Y-119912162D03*
X150530000Y-122488000D03*
X136716789Y-122870722D03*
X131636156Y-125627845D03*
X131439374Y-123088894D03*
X146633220Y-125802276D03*
X145333358Y-127077435D03*
X149056348Y-126303598D03*
X148028216Y-124251761D03*
X142753107Y-126564444D03*
X140457620Y-126762839D03*
X137941819Y-126881041D03*
X135418500Y-126869303D03*
X139700000Y-117348000D03*
X134874000Y-116078000D03*
X133858000Y-113284000D03*
X147574000Y-115570000D03*
X135128000Y-118618000D03*
X139192000Y-122936000D03*
X147320000Y-123190000D03*
D20*
X133112000Y-125714000D02*
X136646500Y-125714000D01*
X136646500Y-125714000D02*
X137138500Y-125222000D01*
D21*
X139700000Y-117348000D02*
X135128000Y-117348000D01*
X135128000Y-117348000D02*
X133470000Y-119006000D01*
X133470000Y-119006000D02*
X133470000Y-121022000D01*
D20*
X133470000Y-121022000D02*
X133470000Y-122562000D01*
X133470000Y-122562000D02*
X133112000Y-122920000D01*
X133112000Y-122920000D02*
X133112000Y-124206000D01*
X126238000Y-128270000D02*
X127537511Y-126970489D01*
X127537511Y-126970489D02*
X131855511Y-126970489D01*
X131855511Y-126970489D02*
X133112000Y-125714000D01*
X133112000Y-125714000D02*
X133112000Y-124206000D01*
D21*
X133604000Y-114808000D02*
X134620000Y-115824000D01*
X136010000Y-108084000D02*
X132842000Y-111252000D01*
X132842000Y-114046000D02*
X133604000Y-114808000D01*
X134620000Y-115824000D02*
X134874000Y-116078000D01*
X136010000Y-104022000D02*
X136010000Y-108084000D01*
X132842000Y-111252000D02*
X132842000Y-114046000D01*
X137280000Y-108084000D02*
X133858000Y-111506000D01*
X137280000Y-104022000D02*
X137280000Y-108084000D01*
X133858000Y-111506000D02*
X133858000Y-113284000D01*
X147574000Y-115570000D02*
X147574000Y-106426000D01*
X147574000Y-106426000D02*
X148710000Y-105290000D01*
X148710000Y-105290000D02*
X148710000Y-104022000D01*
X134740000Y-119006000D02*
X135128000Y-118618000D01*
X134740000Y-121022000D02*
X134740000Y-119006000D01*
X135112000Y-124206000D02*
X135112000Y-123174000D01*
X135112000Y-123174000D02*
X134740000Y-122802000D01*
X134740000Y-122802000D02*
X134740000Y-121022000D01*
X139446000Y-123190000D02*
X139192000Y-122936000D01*
X141478000Y-123460000D02*
X139716000Y-123460000D01*
X139716000Y-123460000D02*
X139446000Y-123190000D01*
X147050000Y-123460000D02*
X147320000Y-123190000D01*
X144018000Y-123460000D02*
X147050000Y-123460000D01*
X141478000Y-128270000D02*
X141478000Y-125460000D01*
X144018000Y-128270000D02*
X144018000Y-125460000D01*
G04 #@! TA.AperFunction,Conductor*
G36*
X131245959Y-102636002D02*
G01*
X131292452Y-102689658D01*
X131302556Y-102759932D01*
X131295820Y-102786230D01*
X131251522Y-102904394D01*
X131247895Y-102919649D01*
X131242369Y-102970514D01*
X131242000Y-102977328D01*
X131242000Y-103749885D01*
X131246475Y-103765124D01*
X131247865Y-103766329D01*
X131255548Y-103768000D01*
X132328000Y-103768000D01*
X132396121Y-103788002D01*
X132442614Y-103841658D01*
X132454000Y-103894000D01*
X132454000Y-105511884D01*
X132458475Y-105527123D01*
X132459865Y-105528328D01*
X132467548Y-105529999D01*
X132694669Y-105529999D01*
X132701490Y-105529629D01*
X132752352Y-105524105D01*
X132767604Y-105520479D01*
X132888054Y-105475324D01*
X132903649Y-105466786D01*
X133005724Y-105390285D01*
X133018281Y-105377728D01*
X133056348Y-105326935D01*
X133113208Y-105284420D01*
X133157175Y-105276500D01*
X133910153Y-105276499D01*
X133945066Y-105276499D01*
X133985208Y-105268515D01*
X134007126Y-105264156D01*
X134007128Y-105264155D01*
X134019301Y-105261734D01*
X134034996Y-105251247D01*
X134102748Y-105230030D01*
X134175004Y-105251247D01*
X134190699Y-105261734D01*
X134264933Y-105276500D01*
X134739923Y-105276500D01*
X135215066Y-105276499D01*
X135255208Y-105268515D01*
X135277126Y-105264156D01*
X135277128Y-105264155D01*
X135289301Y-105261734D01*
X135304996Y-105251247D01*
X135372748Y-105230030D01*
X135445004Y-105251247D01*
X135460699Y-105261734D01*
X135524594Y-105274443D01*
X135529081Y-105275336D01*
X135591991Y-105308243D01*
X135627123Y-105369938D01*
X135630500Y-105398915D01*
X135630500Y-107874616D01*
X135610498Y-107942737D01*
X135593595Y-107963711D01*
X132611784Y-110945522D01*
X132593036Y-110960664D01*
X132591811Y-110961779D01*
X132583060Y-110967429D01*
X132576613Y-110975607D01*
X132576611Y-110975609D01*
X132562271Y-110993800D01*
X132558325Y-110998241D01*
X132558398Y-110998303D01*
X132555039Y-111002267D01*
X132551362Y-111005944D01*
X132540108Y-111021692D01*
X132536602Y-111026362D01*
X132504844Y-111066647D01*
X132501812Y-111075281D01*
X132496486Y-111082734D01*
X132493501Y-111092715D01*
X132481799Y-111131844D01*
X132479964Y-111137492D01*
X132465610Y-111178367D01*
X132462982Y-111185851D01*
X132462500Y-111191416D01*
X132462500Y-111194124D01*
X132462386Y-111196758D01*
X132462357Y-111196856D01*
X132462193Y-111196849D01*
X132462149Y-111197553D01*
X132460287Y-111203778D01*
X132462093Y-111249748D01*
X132462403Y-111257635D01*
X132462500Y-111262582D01*
X132462500Y-113992080D01*
X132459951Y-114016028D01*
X132459872Y-114017693D01*
X132457680Y-114027876D01*
X132458904Y-114038217D01*
X132461627Y-114061223D01*
X132461977Y-114067154D01*
X132462072Y-114067146D01*
X132462500Y-114072324D01*
X132462500Y-114077524D01*
X132463354Y-114082653D01*
X132463354Y-114082656D01*
X132465669Y-114096565D01*
X132466506Y-114102443D01*
X132472530Y-114153341D01*
X132476493Y-114161593D01*
X132477996Y-114170626D01*
X132482943Y-114179795D01*
X132482944Y-114179797D01*
X132502334Y-114215732D01*
X132505031Y-114221025D01*
X132523785Y-114260082D01*
X132523788Y-114260086D01*
X132527219Y-114267232D01*
X132530814Y-114271508D01*
X132532737Y-114273431D01*
X132534509Y-114275363D01*
X132534552Y-114275442D01*
X132534428Y-114275555D01*
X132534904Y-114276095D01*
X132537990Y-114281814D01*
X132545635Y-114288881D01*
X132577586Y-114318416D01*
X132581152Y-114321846D01*
X134184249Y-115924943D01*
X134218275Y-115987255D01*
X134220076Y-116030482D01*
X134214729Y-116071096D01*
X134218175Y-116102309D01*
X134227085Y-116183008D01*
X134232113Y-116228553D01*
X134234723Y-116235684D01*
X134234723Y-116235686D01*
X134270524Y-116333516D01*
X134286553Y-116377319D01*
X134290789Y-116383622D01*
X134290789Y-116383623D01*
X134352410Y-116475324D01*
X134374908Y-116508805D01*
X134380527Y-116513918D01*
X134380528Y-116513919D01*
X134398200Y-116529999D01*
X134492076Y-116615419D01*
X134631293Y-116691008D01*
X134784522Y-116731207D01*
X134868477Y-116732526D01*
X134935319Y-116733576D01*
X134935322Y-116733576D01*
X134942916Y-116733695D01*
X135097332Y-116698329D01*
X135167742Y-116662917D01*
X135232072Y-116630563D01*
X135232075Y-116630561D01*
X135238855Y-116627151D01*
X135244626Y-116622222D01*
X135244629Y-116622220D01*
X135353536Y-116529204D01*
X135353536Y-116529203D01*
X135359314Y-116524269D01*
X135451755Y-116395624D01*
X135510842Y-116248641D01*
X135522621Y-116165878D01*
X135532581Y-116095891D01*
X135532581Y-116095888D01*
X135533162Y-116091807D01*
X135533307Y-116078000D01*
X135531561Y-116063567D01*
X135524584Y-116005919D01*
X135514276Y-115920733D01*
X135458280Y-115772546D01*
X135417357Y-115713003D01*
X135372855Y-115648251D01*
X135372854Y-115648249D01*
X135368553Y-115641992D01*
X135250275Y-115536611D01*
X135110274Y-115462484D01*
X134956633Y-115423892D01*
X134949034Y-115423852D01*
X134949033Y-115423852D01*
X134888626Y-115423536D01*
X134807335Y-115423110D01*
X134739321Y-115402752D01*
X134718901Y-115386207D01*
X133386110Y-114053416D01*
X133352084Y-113991104D01*
X133357149Y-113920289D01*
X133399696Y-113863453D01*
X133466216Y-113838642D01*
X133535328Y-113853590D01*
X133615293Y-113897008D01*
X133768522Y-113937207D01*
X133852477Y-113938526D01*
X133919319Y-113939576D01*
X133919322Y-113939576D01*
X133926916Y-113939695D01*
X134081332Y-113904329D01*
X134165485Y-113862005D01*
X134216072Y-113836563D01*
X134216075Y-113836561D01*
X134222855Y-113833151D01*
X134228626Y-113828222D01*
X134228629Y-113828220D01*
X134337536Y-113735204D01*
X134337536Y-113735203D01*
X134343314Y-113730269D01*
X134435755Y-113601624D01*
X134494842Y-113454641D01*
X134517162Y-113297807D01*
X134517307Y-113284000D01*
X134513179Y-113249885D01*
X136692000Y-113249885D01*
X136696475Y-113265124D01*
X136697865Y-113266329D01*
X136705548Y-113268000D01*
X139427885Y-113268000D01*
X139443124Y-113263525D01*
X139444329Y-113262135D01*
X139446000Y-113254452D01*
X139446000Y-113249885D01*
X139954000Y-113249885D01*
X139958475Y-113265124D01*
X139959865Y-113266329D01*
X139967548Y-113268000D01*
X142689884Y-113268000D01*
X142705123Y-113263525D01*
X142706328Y-113262135D01*
X142707999Y-113254452D01*
X142707999Y-110977331D01*
X142707629Y-110970510D01*
X142702105Y-110919648D01*
X142698479Y-110904396D01*
X142653324Y-110783946D01*
X142644786Y-110768351D01*
X142568285Y-110666276D01*
X142555724Y-110653715D01*
X142453649Y-110577214D01*
X142438054Y-110568676D01*
X142317606Y-110523522D01*
X142302351Y-110519895D01*
X142251486Y-110514369D01*
X142244672Y-110514000D01*
X139972115Y-110514000D01*
X139956876Y-110518475D01*
X139955671Y-110519865D01*
X139954000Y-110527548D01*
X139954000Y-113249885D01*
X139446000Y-113249885D01*
X139446000Y-110532116D01*
X139441525Y-110516877D01*
X139440135Y-110515672D01*
X139432452Y-110514001D01*
X137155331Y-110514001D01*
X137148510Y-110514371D01*
X137097648Y-110519895D01*
X137082396Y-110523521D01*
X136961946Y-110568676D01*
X136946351Y-110577214D01*
X136844276Y-110653715D01*
X136831715Y-110666276D01*
X136755214Y-110768351D01*
X136746676Y-110783946D01*
X136701522Y-110904394D01*
X136697895Y-110919649D01*
X136692369Y-110970514D01*
X136692000Y-110977328D01*
X136692000Y-113249885D01*
X134513179Y-113249885D01*
X134498276Y-113126733D01*
X134442280Y-112978546D01*
X134352553Y-112847992D01*
X134279681Y-112783065D01*
X134242126Y-112722816D01*
X134237500Y-112688989D01*
X134237500Y-111715384D01*
X134257502Y-111647263D01*
X134274405Y-111626289D01*
X137510216Y-108390478D01*
X137528964Y-108375336D01*
X137530189Y-108374221D01*
X137538940Y-108368571D01*
X137545387Y-108360393D01*
X137545389Y-108360391D01*
X137559729Y-108342200D01*
X137563675Y-108337759D01*
X137563602Y-108337697D01*
X137566961Y-108333733D01*
X137570638Y-108330056D01*
X137581892Y-108314308D01*
X137585398Y-108309638D01*
X137617156Y-108269353D01*
X137620188Y-108260719D01*
X137625514Y-108253266D01*
X137640203Y-108204150D01*
X137642036Y-108198508D01*
X137656390Y-108157633D01*
X137656390Y-108157632D01*
X137659018Y-108150149D01*
X137659500Y-108144584D01*
X137659500Y-108141876D01*
X137659614Y-108139242D01*
X137659643Y-108139144D01*
X137659807Y-108139151D01*
X137659851Y-108138447D01*
X137661713Y-108132222D01*
X137659597Y-108078365D01*
X137659500Y-108073418D01*
X137659500Y-105398913D01*
X137679502Y-105330792D01*
X137733158Y-105284299D01*
X137760909Y-105275337D01*
X137829301Y-105261734D01*
X137844996Y-105251247D01*
X137912748Y-105230030D01*
X137985004Y-105251247D01*
X138000699Y-105261734D01*
X138074933Y-105276500D01*
X138549923Y-105276500D01*
X139025066Y-105276499D01*
X139065208Y-105268515D01*
X139087126Y-105264156D01*
X139087128Y-105264155D01*
X139099301Y-105261734D01*
X139114996Y-105251247D01*
X139182748Y-105230030D01*
X139255004Y-105251247D01*
X139270699Y-105261734D01*
X139344933Y-105276500D01*
X139819923Y-105276500D01*
X140295066Y-105276499D01*
X140335208Y-105268515D01*
X140357126Y-105264156D01*
X140357128Y-105264155D01*
X140369301Y-105261734D01*
X140384996Y-105251247D01*
X140452748Y-105230030D01*
X140525004Y-105251247D01*
X140540699Y-105261734D01*
X140614933Y-105276500D01*
X141089923Y-105276500D01*
X141565066Y-105276499D01*
X141605208Y-105268515D01*
X141627126Y-105264156D01*
X141627128Y-105264155D01*
X141639301Y-105261734D01*
X141654996Y-105251247D01*
X141722748Y-105230030D01*
X141795004Y-105251247D01*
X141810699Y-105261734D01*
X141884933Y-105276500D01*
X142359923Y-105276500D01*
X142835066Y-105276499D01*
X142875208Y-105268515D01*
X142897126Y-105264156D01*
X142897128Y-105264155D01*
X142909301Y-105261734D01*
X142924996Y-105251247D01*
X142992748Y-105230030D01*
X143065004Y-105251247D01*
X143080699Y-105261734D01*
X143154933Y-105276500D01*
X143629923Y-105276500D01*
X144105066Y-105276499D01*
X144145208Y-105268515D01*
X144167126Y-105264156D01*
X144167128Y-105264155D01*
X144179301Y-105261734D01*
X144194996Y-105251247D01*
X144262748Y-105230030D01*
X144335004Y-105251247D01*
X144350699Y-105261734D01*
X144424933Y-105276500D01*
X144899923Y-105276500D01*
X145375066Y-105276499D01*
X145415208Y-105268515D01*
X145437126Y-105264156D01*
X145437128Y-105264155D01*
X145449301Y-105261734D01*
X145464996Y-105251247D01*
X145532748Y-105230030D01*
X145605004Y-105251247D01*
X145620699Y-105261734D01*
X145694933Y-105276500D01*
X146169923Y-105276500D01*
X146645066Y-105276499D01*
X146685208Y-105268515D01*
X146707126Y-105264156D01*
X146707128Y-105264155D01*
X146719301Y-105261734D01*
X146734996Y-105251247D01*
X146802748Y-105230030D01*
X146875004Y-105251247D01*
X146890699Y-105261734D01*
X146964933Y-105276500D01*
X147117083Y-105276500D01*
X147882617Y-105276499D01*
X147950738Y-105296501D01*
X147997231Y-105350157D01*
X148007335Y-105420431D01*
X147977842Y-105485011D01*
X147971712Y-105491594D01*
X147343784Y-106119522D01*
X147325036Y-106134664D01*
X147323811Y-106135779D01*
X147315060Y-106141429D01*
X147308613Y-106149607D01*
X147308611Y-106149609D01*
X147294271Y-106167800D01*
X147290325Y-106172241D01*
X147290398Y-106172303D01*
X147287039Y-106176267D01*
X147283362Y-106179944D01*
X147272108Y-106195692D01*
X147268602Y-106200362D01*
X147236844Y-106240647D01*
X147233812Y-106249281D01*
X147228486Y-106256734D01*
X147216657Y-106296289D01*
X147213799Y-106305844D01*
X147211964Y-106311492D01*
X147197610Y-106352367D01*
X147194982Y-106359851D01*
X147194500Y-106365416D01*
X147194500Y-106368124D01*
X147194386Y-106370758D01*
X147194357Y-106370856D01*
X147194193Y-106370849D01*
X147194149Y-106371553D01*
X147192287Y-106377778D01*
X147192696Y-106388183D01*
X147194403Y-106431635D01*
X147194500Y-106436582D01*
X147194500Y-114975187D01*
X147174498Y-115043308D01*
X147151330Y-115070135D01*
X147084039Y-115128838D01*
X146992950Y-115258444D01*
X146990190Y-115265524D01*
X146952886Y-115361204D01*
X146935406Y-115406037D01*
X146934414Y-115413570D01*
X146934414Y-115413571D01*
X146917551Y-115541664D01*
X146914729Y-115563096D01*
X146915563Y-115570646D01*
X146928504Y-115687862D01*
X146932113Y-115720553D01*
X146934723Y-115727684D01*
X146934723Y-115727686D01*
X146951140Y-115772546D01*
X146986553Y-115869319D01*
X147074908Y-116000805D01*
X147080527Y-116005918D01*
X147080528Y-116005919D01*
X147179407Y-116095891D01*
X147192076Y-116107419D01*
X147331293Y-116183008D01*
X147484522Y-116223207D01*
X147568477Y-116224526D01*
X147635319Y-116225576D01*
X147635322Y-116225576D01*
X147642916Y-116225695D01*
X147797332Y-116190329D01*
X147867742Y-116154917D01*
X147932072Y-116122563D01*
X147932075Y-116122561D01*
X147938855Y-116119151D01*
X147944626Y-116114222D01*
X147944629Y-116114220D01*
X148053536Y-116021204D01*
X148053536Y-116021203D01*
X148059314Y-116016269D01*
X148151755Y-115887624D01*
X148210842Y-115740641D01*
X148212235Y-115741201D01*
X148244751Y-115687862D01*
X148308614Y-115656844D01*
X148379108Y-115665277D01*
X148433852Y-115710483D01*
X148455501Y-115781100D01*
X148455501Y-116172066D01*
X148459471Y-116192024D01*
X148466168Y-116225695D01*
X148470266Y-116246301D01*
X148479456Y-116260054D01*
X148480753Y-116261995D01*
X148501970Y-116329748D01*
X148480753Y-116402004D01*
X148470266Y-116417699D01*
X148455500Y-116491933D01*
X148455501Y-116965951D01*
X148455501Y-117279824D01*
X148435499Y-117347945D01*
X148405066Y-117380650D01*
X148354276Y-117418715D01*
X148341715Y-117431276D01*
X148265214Y-117533351D01*
X148256676Y-117548946D01*
X148211522Y-117669394D01*
X148207895Y-117684649D01*
X148202369Y-117735514D01*
X148202000Y-117742328D01*
X148202000Y-117964885D01*
X148206475Y-117980124D01*
X148207865Y-117981329D01*
X148215548Y-117983000D01*
X149838000Y-117983000D01*
X149906121Y-118003002D01*
X149952614Y-118056658D01*
X149964000Y-118109000D01*
X149964000Y-119176884D01*
X149968475Y-119192123D01*
X149969865Y-119193328D01*
X149977548Y-119194999D01*
X150754669Y-119194999D01*
X150761490Y-119194629D01*
X150812352Y-119189105D01*
X150827604Y-119185479D01*
X150956462Y-119137172D01*
X150957437Y-119139772D01*
X151012851Y-119127654D01*
X151079399Y-119152392D01*
X151122007Y-119209182D01*
X151130000Y-119253343D01*
X151130000Y-129160000D01*
X151109998Y-129228121D01*
X151056342Y-129274614D01*
X151004000Y-129286000D01*
X150285956Y-129286000D01*
X150217835Y-129265998D01*
X150171342Y-129212342D01*
X150161238Y-129142068D01*
X150183633Y-129086474D01*
X150263009Y-128976011D01*
X150268313Y-128967183D01*
X150362670Y-128776267D01*
X150366469Y-128766672D01*
X150428377Y-128562910D01*
X150430555Y-128552837D01*
X150431986Y-128541962D01*
X150429775Y-128527778D01*
X150416617Y-128524000D01*
X148970000Y-128524000D01*
X148901879Y-128503998D01*
X148855386Y-128450342D01*
X148844000Y-128398000D01*
X148844000Y-127997885D01*
X149352000Y-127997885D01*
X149356475Y-128013124D01*
X149357865Y-128014329D01*
X149365548Y-128016000D01*
X150416344Y-128016000D01*
X150429875Y-128012027D01*
X150431180Y-128002947D01*
X150389214Y-127835875D01*
X150385894Y-127826124D01*
X150300972Y-127630814D01*
X150296105Y-127621739D01*
X150180426Y-127442926D01*
X150174136Y-127434757D01*
X150030806Y-127277240D01*
X150023273Y-127270215D01*
X149856139Y-127138222D01*
X149847552Y-127132517D01*
X149661117Y-127029599D01*
X149651705Y-127025369D01*
X149450959Y-126954280D01*
X149440988Y-126951646D01*
X149369837Y-126938972D01*
X149356540Y-126940432D01*
X149352000Y-126954989D01*
X149352000Y-127997885D01*
X148844000Y-127997885D01*
X148844000Y-126953102D01*
X148840082Y-126939758D01*
X148825806Y-126937771D01*
X148787324Y-126943660D01*
X148777288Y-126946051D01*
X148574868Y-127012212D01*
X148565359Y-127016209D01*
X148376463Y-127114542D01*
X148367738Y-127120036D01*
X148197433Y-127247905D01*
X148189726Y-127254748D01*
X148042590Y-127408717D01*
X148036104Y-127416727D01*
X147916098Y-127592649D01*
X147911000Y-127601623D01*
X147821338Y-127794783D01*
X147817777Y-127804464D01*
X147813291Y-127820640D01*
X147775813Y-127880939D01*
X147711684Y-127911403D01*
X147641266Y-127902360D01*
X147586915Y-127856682D01*
X147578867Y-127842698D01*
X147506331Y-127695609D01*
X147503776Y-127690428D01*
X147382320Y-127527779D01*
X147233258Y-127389987D01*
X147228375Y-127386906D01*
X147228371Y-127386903D01*
X147066464Y-127284748D01*
X147061581Y-127281667D01*
X146873039Y-127206446D01*
X146867379Y-127205320D01*
X146867375Y-127205319D01*
X146679613Y-127167971D01*
X146679610Y-127167971D01*
X146673946Y-127166844D01*
X146668171Y-127166768D01*
X146668167Y-127166768D01*
X146566793Y-127165441D01*
X146470971Y-127164187D01*
X146465274Y-127165166D01*
X146465273Y-127165166D01*
X146391492Y-127177844D01*
X146270910Y-127198564D01*
X146080463Y-127268824D01*
X145906010Y-127372612D01*
X145901670Y-127376418D01*
X145901666Y-127376421D01*
X145771778Y-127490331D01*
X145753392Y-127506455D01*
X145627720Y-127665869D01*
X145625031Y-127670980D01*
X145625029Y-127670983D01*
X145612073Y-127695609D01*
X145533203Y-127845515D01*
X145473007Y-128039378D01*
X145449148Y-128240964D01*
X145462424Y-128443522D01*
X145463845Y-128449118D01*
X145463846Y-128449123D01*
X145484119Y-128528945D01*
X145512392Y-128640269D01*
X145514809Y-128645512D01*
X145552010Y-128726208D01*
X145597377Y-128824616D01*
X145600710Y-128829332D01*
X145704372Y-128976011D01*
X145714533Y-128990389D01*
X145718675Y-128994424D01*
X145795996Y-129069746D01*
X145830834Y-129131607D01*
X145826697Y-129202483D01*
X145784898Y-129259871D01*
X145718709Y-129285550D01*
X145708075Y-129286000D01*
X144872357Y-129286000D01*
X144804236Y-129265998D01*
X144757743Y-129212342D01*
X144747639Y-129142068D01*
X144777133Y-129077488D01*
X144791788Y-129063126D01*
X144797908Y-129058036D01*
X144797913Y-129058031D01*
X144802345Y-129054345D01*
X144932147Y-128898276D01*
X145031334Y-128721165D01*
X145033190Y-128715698D01*
X145033192Y-128715693D01*
X145094728Y-128534414D01*
X145094729Y-128534409D01*
X145096584Y-128528945D01*
X145097412Y-128523236D01*
X145097413Y-128523231D01*
X145125179Y-128331727D01*
X145125712Y-128328053D01*
X145127232Y-128270000D01*
X145108658Y-128067859D01*
X145107090Y-128062299D01*
X145055125Y-127878046D01*
X145055124Y-127878044D01*
X145053557Y-127872487D01*
X145042978Y-127851033D01*
X144966331Y-127695609D01*
X144963776Y-127690428D01*
X144842320Y-127527779D01*
X144693258Y-127389987D01*
X144688375Y-127386906D01*
X144688371Y-127386903D01*
X144526464Y-127284748D01*
X144521581Y-127281667D01*
X144476810Y-127263805D01*
X144420951Y-127219985D01*
X144397500Y-127146775D01*
X144397500Y-126440081D01*
X144417502Y-126371960D01*
X144471158Y-126325467D01*
X144515726Y-126314500D01*
X144515756Y-126314500D01*
X144561286Y-126309554D01*
X144569597Y-126308651D01*
X144569598Y-126308651D01*
X144577448Y-126307798D01*
X144584841Y-126305026D01*
X144584843Y-126305026D01*
X144625189Y-126289901D01*
X144712764Y-126257071D01*
X144719943Y-126251691D01*
X144719946Y-126251689D01*
X144821224Y-126175785D01*
X144828404Y-126170404D01*
X144909060Y-126062785D01*
X144909689Y-126061946D01*
X144909691Y-126061943D01*
X144915071Y-126054764D01*
X144954739Y-125948949D01*
X144963026Y-125926843D01*
X144963026Y-125926841D01*
X144965798Y-125919448D01*
X144972500Y-125857756D01*
X144972500Y-125062244D01*
X144965798Y-125000552D01*
X144915071Y-124865236D01*
X144909691Y-124858057D01*
X144909689Y-124858054D01*
X144833785Y-124756776D01*
X144828404Y-124749596D01*
X144807977Y-124734287D01*
X144719946Y-124668311D01*
X144719943Y-124668309D01*
X144712764Y-124662929D01*
X144623046Y-124629296D01*
X144584843Y-124614974D01*
X144584841Y-124614974D01*
X144577448Y-124612202D01*
X144569598Y-124611349D01*
X144569597Y-124611349D01*
X144519153Y-124605869D01*
X144519152Y-124605869D01*
X144515756Y-124605500D01*
X143520244Y-124605500D01*
X143516848Y-124605869D01*
X143516847Y-124605869D01*
X143466403Y-124611349D01*
X143466402Y-124611349D01*
X143458552Y-124612202D01*
X143451159Y-124614974D01*
X143451157Y-124614974D01*
X143412954Y-124629296D01*
X143323236Y-124662929D01*
X143316057Y-124668309D01*
X143316054Y-124668311D01*
X143228023Y-124734287D01*
X143207596Y-124749596D01*
X143202215Y-124756776D01*
X143126311Y-124858054D01*
X143126309Y-124858057D01*
X143120929Y-124865236D01*
X143070202Y-125000552D01*
X143063500Y-125062244D01*
X143063500Y-125857756D01*
X143070202Y-125919448D01*
X143072974Y-125926841D01*
X143072974Y-125926843D01*
X143081261Y-125948949D01*
X143120929Y-126054764D01*
X143126309Y-126061943D01*
X143126311Y-126061946D01*
X143126940Y-126062785D01*
X143207596Y-126170404D01*
X143214776Y-126175785D01*
X143316054Y-126251689D01*
X143316057Y-126251691D01*
X143323236Y-126257071D01*
X143410811Y-126289901D01*
X143451157Y-126305026D01*
X143451159Y-126305026D01*
X143458552Y-126307798D01*
X143466402Y-126308651D01*
X143466403Y-126308651D01*
X143474714Y-126309554D01*
X143520244Y-126314500D01*
X143520234Y-126314588D01*
X143586261Y-126337927D01*
X143629780Y-126394022D01*
X143638500Y-126440081D01*
X143638500Y-127144839D01*
X143618498Y-127212960D01*
X143564842Y-127259453D01*
X143556118Y-127263049D01*
X143540463Y-127268824D01*
X143366010Y-127372612D01*
X143361670Y-127376418D01*
X143361666Y-127376421D01*
X143231778Y-127490331D01*
X143213392Y-127506455D01*
X143087720Y-127665869D01*
X143085031Y-127670980D01*
X143085029Y-127670983D01*
X143072073Y-127695609D01*
X142993203Y-127845515D01*
X142933007Y-128039378D01*
X142909148Y-128240964D01*
X142922424Y-128443522D01*
X142923845Y-128449118D01*
X142923846Y-128449123D01*
X142944119Y-128528945D01*
X142972392Y-128640269D01*
X142974809Y-128645512D01*
X143012010Y-128726208D01*
X143057377Y-128824616D01*
X143060710Y-128829332D01*
X143164372Y-128976011D01*
X143174533Y-128990389D01*
X143178675Y-128994424D01*
X143255996Y-129069746D01*
X143290834Y-129131607D01*
X143286697Y-129202483D01*
X143244898Y-129259871D01*
X143178709Y-129285550D01*
X143168075Y-129286000D01*
X142332357Y-129286000D01*
X142264236Y-129265998D01*
X142217743Y-129212342D01*
X142207639Y-129142068D01*
X142237133Y-129077488D01*
X142251788Y-129063126D01*
X142257908Y-129058036D01*
X142257913Y-129058031D01*
X142262345Y-129054345D01*
X142392147Y-128898276D01*
X142491334Y-128721165D01*
X142493190Y-128715698D01*
X142493192Y-128715693D01*
X142554728Y-128534414D01*
X142554729Y-128534409D01*
X142556584Y-128528945D01*
X142557412Y-128523236D01*
X142557413Y-128523231D01*
X142585179Y-128331727D01*
X142585712Y-128328053D01*
X142587232Y-128270000D01*
X142568658Y-128067859D01*
X142567090Y-128062299D01*
X142515125Y-127878046D01*
X142515124Y-127878044D01*
X142513557Y-127872487D01*
X142502978Y-127851033D01*
X142426331Y-127695609D01*
X142423776Y-127690428D01*
X142302320Y-127527779D01*
X142153258Y-127389987D01*
X142148375Y-127386906D01*
X142148371Y-127386903D01*
X141986464Y-127284748D01*
X141981581Y-127281667D01*
X141936810Y-127263805D01*
X141880951Y-127219985D01*
X141857500Y-127146775D01*
X141857500Y-126440081D01*
X141877502Y-126371960D01*
X141931158Y-126325467D01*
X141975726Y-126314500D01*
X141975756Y-126314500D01*
X142021286Y-126309554D01*
X142029597Y-126308651D01*
X142029598Y-126308651D01*
X142037448Y-126307798D01*
X142044841Y-126305026D01*
X142044843Y-126305026D01*
X142085189Y-126289901D01*
X142172764Y-126257071D01*
X142179943Y-126251691D01*
X142179946Y-126251689D01*
X142281224Y-126175785D01*
X142288404Y-126170404D01*
X142369060Y-126062785D01*
X142369689Y-126061946D01*
X142369691Y-126061943D01*
X142375071Y-126054764D01*
X142414739Y-125948949D01*
X142423026Y-125926843D01*
X142423026Y-125926841D01*
X142425798Y-125919448D01*
X142432500Y-125857756D01*
X142432500Y-125062244D01*
X142425798Y-125000552D01*
X142375071Y-124865236D01*
X142369691Y-124858057D01*
X142369689Y-124858054D01*
X142293785Y-124756776D01*
X142288404Y-124749596D01*
X142267977Y-124734287D01*
X142179946Y-124668311D01*
X142179943Y-124668309D01*
X142172764Y-124662929D01*
X142083046Y-124629296D01*
X142044843Y-124614974D01*
X142044841Y-124614974D01*
X142037448Y-124612202D01*
X142029598Y-124611349D01*
X142029597Y-124611349D01*
X141979153Y-124605869D01*
X141979152Y-124605869D01*
X141975756Y-124605500D01*
X140980244Y-124605500D01*
X140976848Y-124605869D01*
X140976847Y-124605869D01*
X140926403Y-124611349D01*
X140926402Y-124611349D01*
X140918552Y-124612202D01*
X140911159Y-124614974D01*
X140911157Y-124614974D01*
X140872954Y-124629296D01*
X140783236Y-124662929D01*
X140776057Y-124668309D01*
X140776054Y-124668311D01*
X140688023Y-124734287D01*
X140667596Y-124749596D01*
X140662215Y-124756776D01*
X140586311Y-124858054D01*
X140586309Y-124858057D01*
X140580929Y-124865236D01*
X140564918Y-124907946D01*
X140552981Y-124939788D01*
X140510340Y-124996553D01*
X140443778Y-125021253D01*
X140374430Y-125006046D01*
X140324311Y-124955760D01*
X140308999Y-124895559D01*
X140308999Y-124699905D01*
X140308662Y-124693386D01*
X140298743Y-124597794D01*
X140295851Y-124584400D01*
X140244412Y-124430216D01*
X140238239Y-124417038D01*
X140152937Y-124279193D01*
X140143901Y-124267792D01*
X140029171Y-124153261D01*
X140017757Y-124144247D01*
X139901783Y-124072760D01*
X139854289Y-124019988D01*
X139842865Y-123949917D01*
X139871139Y-123884793D01*
X139930133Y-123845293D01*
X139967898Y-123839500D01*
X140412903Y-123839500D01*
X140481024Y-123859502D01*
X140527517Y-123913158D01*
X140530885Y-123921271D01*
X140580929Y-124054764D01*
X140586309Y-124061943D01*
X140586311Y-124061946D01*
X140648604Y-124145063D01*
X140667596Y-124170404D01*
X140674776Y-124175785D01*
X140776054Y-124251689D01*
X140776057Y-124251691D01*
X140783236Y-124257071D01*
X140872954Y-124290704D01*
X140911157Y-124305026D01*
X140911159Y-124305026D01*
X140918552Y-124307798D01*
X140926402Y-124308651D01*
X140926403Y-124308651D01*
X140976847Y-124314131D01*
X140980244Y-124314500D01*
X141975756Y-124314500D01*
X141979153Y-124314131D01*
X142029597Y-124308651D01*
X142029598Y-124308651D01*
X142037448Y-124307798D01*
X142044841Y-124305026D01*
X142044843Y-124305026D01*
X142083046Y-124290704D01*
X142172764Y-124257071D01*
X142179943Y-124251691D01*
X142179946Y-124251689D01*
X142281224Y-124175785D01*
X142288404Y-124170404D01*
X142307396Y-124145063D01*
X142369689Y-124061946D01*
X142369691Y-124061943D01*
X142375071Y-124054764D01*
X142425798Y-123919448D01*
X142432500Y-123857756D01*
X143063500Y-123857756D01*
X143070202Y-123919448D01*
X143120929Y-124054764D01*
X143126309Y-124061943D01*
X143126311Y-124061946D01*
X143188604Y-124145063D01*
X143207596Y-124170404D01*
X143214776Y-124175785D01*
X143316054Y-124251689D01*
X143316057Y-124251691D01*
X143323236Y-124257071D01*
X143412954Y-124290704D01*
X143451157Y-124305026D01*
X143451159Y-124305026D01*
X143458552Y-124307798D01*
X143466402Y-124308651D01*
X143466403Y-124308651D01*
X143516847Y-124314131D01*
X143520244Y-124314500D01*
X144515756Y-124314500D01*
X144519153Y-124314131D01*
X144569597Y-124308651D01*
X144569598Y-124308651D01*
X144577448Y-124307798D01*
X144584841Y-124305026D01*
X144584843Y-124305026D01*
X144623046Y-124290704D01*
X144712764Y-124257071D01*
X144719943Y-124251691D01*
X144719946Y-124251689D01*
X144821224Y-124175785D01*
X144828404Y-124170404D01*
X144847396Y-124145063D01*
X144909689Y-124061946D01*
X144909691Y-124061943D01*
X144915071Y-124054764D01*
X144965115Y-123921271D01*
X145007756Y-123864506D01*
X145074318Y-123839806D01*
X145083097Y-123839500D01*
X146996080Y-123839500D01*
X147020028Y-123842049D01*
X147021693Y-123842128D01*
X147031876Y-123844320D01*
X147042217Y-123843096D01*
X147057569Y-123841279D01*
X147065223Y-123840373D01*
X147071154Y-123840023D01*
X147071146Y-123839928D01*
X147076324Y-123839500D01*
X147081524Y-123839500D01*
X147086653Y-123838646D01*
X147086656Y-123838646D01*
X147100565Y-123836331D01*
X147106443Y-123835494D01*
X147135156Y-123832096D01*
X147147987Y-123830577D01*
X147194770Y-123833828D01*
X147223171Y-123841279D01*
X147223175Y-123841280D01*
X147230522Y-123843207D01*
X147314477Y-123844526D01*
X147381319Y-123845576D01*
X147381322Y-123845576D01*
X147388916Y-123845695D01*
X147543332Y-123810329D01*
X147613742Y-123774917D01*
X147678072Y-123742563D01*
X147678075Y-123742561D01*
X147684855Y-123739151D01*
X147690626Y-123734222D01*
X147690629Y-123734220D01*
X147799536Y-123641204D01*
X147799536Y-123641203D01*
X147805314Y-123636269D01*
X147897755Y-123507624D01*
X147956842Y-123360641D01*
X147979162Y-123203807D01*
X147979307Y-123190000D01*
X147960276Y-123032733D01*
X147904280Y-122884546D01*
X147885594Y-122857357D01*
X147818855Y-122760251D01*
X147818854Y-122760249D01*
X147814553Y-122753992D01*
X147807918Y-122748080D01*
X147743516Y-122690701D01*
X147696275Y-122648611D01*
X147688889Y-122644700D01*
X147606733Y-122601201D01*
X147556274Y-122574484D01*
X147402633Y-122535892D01*
X147395034Y-122535852D01*
X147395033Y-122535852D01*
X147329181Y-122535507D01*
X147244221Y-122535062D01*
X147236841Y-122536834D01*
X147236839Y-122536834D01*
X147097563Y-122570271D01*
X147097560Y-122570272D01*
X147090184Y-122572043D01*
X146949414Y-122644700D01*
X146830039Y-122748838D01*
X146738950Y-122878444D01*
X146711127Y-122949807D01*
X146691452Y-123000270D01*
X146648071Y-123056471D01*
X146574059Y-123080500D01*
X145083097Y-123080500D01*
X145014976Y-123060498D01*
X144968483Y-123006842D01*
X144965115Y-122998729D01*
X144936512Y-122922431D01*
X144915071Y-122865236D01*
X144909691Y-122858057D01*
X144909689Y-122858054D01*
X144833785Y-122756776D01*
X144828404Y-122749596D01*
X144800253Y-122728498D01*
X144719946Y-122668311D01*
X144719943Y-122668309D01*
X144712764Y-122662929D01*
X144623046Y-122629296D01*
X144584843Y-122614974D01*
X144584841Y-122614974D01*
X144577448Y-122612202D01*
X144569598Y-122611349D01*
X144569597Y-122611349D01*
X144519153Y-122605869D01*
X144519152Y-122605869D01*
X144515756Y-122605500D01*
X143520244Y-122605500D01*
X143516848Y-122605869D01*
X143516847Y-122605869D01*
X143466403Y-122611349D01*
X143466402Y-122611349D01*
X143458552Y-122612202D01*
X143451159Y-122614974D01*
X143451157Y-122614974D01*
X143412954Y-122629296D01*
X143323236Y-122662929D01*
X143316057Y-122668309D01*
X143316054Y-122668311D01*
X143235747Y-122728498D01*
X143207596Y-122749596D01*
X143202215Y-122756776D01*
X143126311Y-122858054D01*
X143126309Y-122858057D01*
X143120929Y-122865236D01*
X143099488Y-122922431D01*
X143075381Y-122986738D01*
X143070202Y-123000552D01*
X143069349Y-123008402D01*
X143069349Y-123008403D01*
X143063869Y-123058847D01*
X143063500Y-123062244D01*
X143063500Y-123857756D01*
X142432500Y-123857756D01*
X142432500Y-123062244D01*
X142432131Y-123058847D01*
X142426651Y-123008403D01*
X142426651Y-123008402D01*
X142425798Y-123000552D01*
X142420620Y-122986738D01*
X142396512Y-122922431D01*
X142375071Y-122865236D01*
X142369691Y-122858057D01*
X142369689Y-122858054D01*
X142293785Y-122756776D01*
X142288404Y-122749596D01*
X142260253Y-122728498D01*
X142179946Y-122668311D01*
X142179943Y-122668309D01*
X142172764Y-122662929D01*
X142083046Y-122629296D01*
X142044843Y-122614974D01*
X142044841Y-122614974D01*
X142037448Y-122612202D01*
X142029598Y-122611349D01*
X142029597Y-122611349D01*
X141979153Y-122605869D01*
X141979152Y-122605869D01*
X141975756Y-122605500D01*
X140980244Y-122605500D01*
X140976848Y-122605869D01*
X140976847Y-122605869D01*
X140926403Y-122611349D01*
X140926402Y-122611349D01*
X140918552Y-122612202D01*
X140911159Y-122614974D01*
X140911157Y-122614974D01*
X140872954Y-122629296D01*
X140783236Y-122662929D01*
X140776057Y-122668309D01*
X140776054Y-122668311D01*
X140695747Y-122728498D01*
X140667596Y-122749596D01*
X140662215Y-122756776D01*
X140586311Y-122858054D01*
X140586309Y-122858057D01*
X140580929Y-122865236D01*
X140559488Y-122922431D01*
X140530885Y-122998729D01*
X140488244Y-123055494D01*
X140421682Y-123080194D01*
X140412903Y-123080500D01*
X139976899Y-123080500D01*
X139908778Y-123060498D01*
X139862285Y-123006842D01*
X139852127Y-122949817D01*
X139851162Y-122949807D01*
X139851264Y-122940134D01*
X139851264Y-122940128D01*
X139851307Y-122936000D01*
X139832276Y-122778733D01*
X139776280Y-122630546D01*
X139763086Y-122611349D01*
X139690855Y-122506251D01*
X139690854Y-122506249D01*
X139686553Y-122499992D01*
X139680884Y-122494942D01*
X139675857Y-122489239D01*
X139677335Y-122487936D01*
X139645165Y-122436328D01*
X139646144Y-122365338D01*
X139685348Y-122306147D01*
X139750329Y-122277547D01*
X139766539Y-122276500D01*
X140281320Y-122276499D01*
X140295066Y-122276499D01*
X140330818Y-122269388D01*
X140357126Y-122264156D01*
X140357128Y-122264155D01*
X140369301Y-122261734D01*
X140384996Y-122251247D01*
X140452748Y-122230030D01*
X140525004Y-122251247D01*
X140540699Y-122261734D01*
X140614933Y-122276500D01*
X141089923Y-122276500D01*
X141565066Y-122276499D01*
X141600818Y-122269388D01*
X141627126Y-122264156D01*
X141627128Y-122264155D01*
X141639301Y-122261734D01*
X141654996Y-122251247D01*
X141722748Y-122230030D01*
X141795004Y-122251247D01*
X141810699Y-122261734D01*
X141884933Y-122276500D01*
X142359923Y-122276500D01*
X142835066Y-122276499D01*
X142870818Y-122269388D01*
X142897126Y-122264156D01*
X142897128Y-122264155D01*
X142909301Y-122261734D01*
X142924996Y-122251247D01*
X142992748Y-122230030D01*
X143065004Y-122251247D01*
X143080699Y-122261734D01*
X143154933Y-122276500D01*
X143629923Y-122276500D01*
X144105066Y-122276499D01*
X144140818Y-122269388D01*
X144167126Y-122264156D01*
X144167128Y-122264155D01*
X144179301Y-122261734D01*
X144194996Y-122251247D01*
X144262748Y-122230030D01*
X144335004Y-122251247D01*
X144350699Y-122261734D01*
X144424933Y-122276500D01*
X144899923Y-122276500D01*
X145375066Y-122276499D01*
X145410818Y-122269388D01*
X145437126Y-122264156D01*
X145437128Y-122264155D01*
X145449301Y-122261734D01*
X145464996Y-122251247D01*
X145532748Y-122230030D01*
X145605004Y-122251247D01*
X145620699Y-122261734D01*
X145694933Y-122276500D01*
X146169923Y-122276500D01*
X146645066Y-122276499D01*
X146680818Y-122269388D01*
X146707126Y-122264156D01*
X146707128Y-122264155D01*
X146719301Y-122261734D01*
X146734996Y-122251247D01*
X146802748Y-122230030D01*
X146875004Y-122251247D01*
X146890699Y-122261734D01*
X146964933Y-122276500D01*
X147439923Y-122276500D01*
X147915066Y-122276499D01*
X147950818Y-122269388D01*
X147977126Y-122264156D01*
X147977128Y-122264155D01*
X147989301Y-122261734D01*
X148004996Y-122251247D01*
X148072748Y-122230030D01*
X148145004Y-122251247D01*
X148160699Y-122261734D01*
X148234933Y-122276500D01*
X148709923Y-122276500D01*
X149185066Y-122276499D01*
X149220818Y-122269388D01*
X149247126Y-122264156D01*
X149247128Y-122264155D01*
X149259301Y-122261734D01*
X149269621Y-122254839D01*
X149269622Y-122254838D01*
X149333168Y-122212377D01*
X149343484Y-122205484D01*
X149399734Y-122121301D01*
X149414500Y-122047067D01*
X149414499Y-119996934D01*
X149399734Y-119922699D01*
X149343484Y-119838516D01*
X149259301Y-119782266D01*
X149185067Y-119767500D01*
X148710077Y-119767500D01*
X148234934Y-119767501D01*
X148199182Y-119774612D01*
X148172874Y-119779844D01*
X148172872Y-119779845D01*
X148160699Y-119782266D01*
X148145004Y-119792753D01*
X148077252Y-119813970D01*
X148004996Y-119792753D01*
X147989301Y-119782266D01*
X147915067Y-119767500D01*
X147440077Y-119767500D01*
X146964934Y-119767501D01*
X146929182Y-119774612D01*
X146902874Y-119779844D01*
X146902872Y-119779845D01*
X146890699Y-119782266D01*
X146875004Y-119792753D01*
X146807252Y-119813970D01*
X146734996Y-119792753D01*
X146719301Y-119782266D01*
X146645067Y-119767500D01*
X146170077Y-119767500D01*
X145694934Y-119767501D01*
X145659182Y-119774612D01*
X145632874Y-119779844D01*
X145632872Y-119779845D01*
X145620699Y-119782266D01*
X145605004Y-119792753D01*
X145537252Y-119813970D01*
X145464996Y-119792753D01*
X145449301Y-119782266D01*
X145375067Y-119767500D01*
X144900077Y-119767500D01*
X144424934Y-119767501D01*
X144389182Y-119774612D01*
X144362874Y-119779844D01*
X144362872Y-119779845D01*
X144350699Y-119782266D01*
X144335004Y-119792753D01*
X144267252Y-119813970D01*
X144194996Y-119792753D01*
X144179301Y-119782266D01*
X144105067Y-119767500D01*
X143630077Y-119767500D01*
X143154934Y-119767501D01*
X143119182Y-119774612D01*
X143092874Y-119779844D01*
X143092872Y-119779845D01*
X143080699Y-119782266D01*
X143065004Y-119792753D01*
X142997252Y-119813970D01*
X142924996Y-119792753D01*
X142909301Y-119782266D01*
X142835067Y-119767500D01*
X142360077Y-119767500D01*
X141884934Y-119767501D01*
X141849182Y-119774612D01*
X141822874Y-119779844D01*
X141822872Y-119779845D01*
X141810699Y-119782266D01*
X141795004Y-119792753D01*
X141727252Y-119813970D01*
X141654996Y-119792753D01*
X141639301Y-119782266D01*
X141565067Y-119767500D01*
X141090077Y-119767500D01*
X140614934Y-119767501D01*
X140579182Y-119774612D01*
X140552874Y-119779844D01*
X140552872Y-119779845D01*
X140540699Y-119782266D01*
X140525004Y-119792753D01*
X140457252Y-119813970D01*
X140384996Y-119792753D01*
X140369301Y-119782266D01*
X140295067Y-119767500D01*
X139820077Y-119767500D01*
X139344934Y-119767501D01*
X139309182Y-119774612D01*
X139282874Y-119779844D01*
X139282872Y-119779845D01*
X139270699Y-119782266D01*
X139255004Y-119792753D01*
X139187252Y-119813970D01*
X139114996Y-119792753D01*
X139099301Y-119782266D01*
X139025067Y-119767500D01*
X138550077Y-119767500D01*
X138074934Y-119767501D01*
X138039182Y-119774612D01*
X138012874Y-119779844D01*
X138012872Y-119779845D01*
X138000699Y-119782266D01*
X137985004Y-119792753D01*
X137917252Y-119813970D01*
X137844996Y-119792753D01*
X137829301Y-119782266D01*
X137755067Y-119767500D01*
X137280077Y-119767500D01*
X136804934Y-119767501D01*
X136769182Y-119774612D01*
X136742874Y-119779844D01*
X136742872Y-119779845D01*
X136730699Y-119782266D01*
X136715004Y-119792753D01*
X136647252Y-119813970D01*
X136574996Y-119792753D01*
X136559301Y-119782266D01*
X136485067Y-119767500D01*
X136010077Y-119767500D01*
X135534934Y-119767501D01*
X135499182Y-119774612D01*
X135472874Y-119779844D01*
X135472872Y-119779845D01*
X135460699Y-119782266D01*
X135445004Y-119792753D01*
X135377252Y-119813970D01*
X135304996Y-119792753D01*
X135289301Y-119782266D01*
X135220919Y-119768664D01*
X135158009Y-119735757D01*
X135122877Y-119674062D01*
X135119500Y-119645085D01*
X135119500Y-119391830D01*
X135139502Y-119323709D01*
X135193158Y-119277216D01*
X135217369Y-119269011D01*
X135269105Y-119257161D01*
X135343928Y-119240025D01*
X135343930Y-119240024D01*
X135351332Y-119238329D01*
X135438221Y-119194629D01*
X135486072Y-119170563D01*
X135486075Y-119170561D01*
X135492855Y-119167151D01*
X135498626Y-119162222D01*
X135498629Y-119162220D01*
X135607536Y-119069204D01*
X135607536Y-119069203D01*
X135613314Y-119064269D01*
X135705755Y-118935624D01*
X135764842Y-118788641D01*
X135772950Y-118731669D01*
X148202001Y-118731669D01*
X148202371Y-118738490D01*
X148207895Y-118789352D01*
X148211521Y-118804604D01*
X148256676Y-118925054D01*
X148265214Y-118940649D01*
X148341715Y-119042724D01*
X148354276Y-119055285D01*
X148456351Y-119131786D01*
X148471946Y-119140324D01*
X148592394Y-119185478D01*
X148607649Y-119189105D01*
X148658514Y-119194631D01*
X148665328Y-119195000D01*
X149437885Y-119195000D01*
X149453124Y-119190525D01*
X149454329Y-119189135D01*
X149456000Y-119181452D01*
X149456000Y-118509115D01*
X149451525Y-118493876D01*
X149450135Y-118492671D01*
X149442452Y-118491000D01*
X148220116Y-118491000D01*
X148204877Y-118495475D01*
X148203672Y-118496865D01*
X148202001Y-118504548D01*
X148202001Y-118731669D01*
X135772950Y-118731669D01*
X135787162Y-118631807D01*
X135787307Y-118618000D01*
X135768276Y-118460733D01*
X135712280Y-118312546D01*
X135622553Y-118181992D01*
X135504275Y-118076611D01*
X135466591Y-118056658D01*
X135370988Y-118006039D01*
X135370989Y-118006039D01*
X135364274Y-118002484D01*
X135296845Y-117985547D01*
X135235650Y-117949552D01*
X135203629Y-117886187D01*
X135210949Y-117815569D01*
X135238446Y-117774248D01*
X135248289Y-117764405D01*
X135310601Y-117730379D01*
X135337384Y-117727500D01*
X139100141Y-117727500D01*
X139168262Y-117747502D01*
X139195522Y-117771169D01*
X139196672Y-117772501D01*
X139200908Y-117778805D01*
X139318076Y-117885419D01*
X139457293Y-117961008D01*
X139610522Y-118001207D01*
X139694477Y-118002526D01*
X139761319Y-118003576D01*
X139761322Y-118003576D01*
X139768916Y-118003695D01*
X139923332Y-117968329D01*
X139993742Y-117932917D01*
X140058072Y-117900563D01*
X140058075Y-117900561D01*
X140064855Y-117897151D01*
X140070626Y-117892222D01*
X140070629Y-117892220D01*
X140179536Y-117799204D01*
X140179536Y-117799203D01*
X140185314Y-117794269D01*
X140277755Y-117665624D01*
X140336842Y-117518641D01*
X140347740Y-117442066D01*
X140358581Y-117365891D01*
X140358581Y-117365888D01*
X140359162Y-117361807D01*
X140359307Y-117348000D01*
X140340276Y-117190733D01*
X140284280Y-117042546D01*
X140260767Y-117008334D01*
X140198855Y-116918251D01*
X140198854Y-116918249D01*
X140194553Y-116911992D01*
X140076275Y-116806611D01*
X140002130Y-116767353D01*
X139951287Y-116717800D01*
X139935306Y-116648625D01*
X139959260Y-116581792D01*
X140015545Y-116538519D01*
X140061090Y-116529999D01*
X142244669Y-116529999D01*
X142251490Y-116529629D01*
X142302352Y-116524105D01*
X142317604Y-116520479D01*
X142438054Y-116475324D01*
X142453649Y-116466786D01*
X142555724Y-116390285D01*
X142568285Y-116377724D01*
X142644786Y-116275649D01*
X142653324Y-116260054D01*
X142698478Y-116139606D01*
X142702105Y-116124351D01*
X142707631Y-116073486D01*
X142708000Y-116066672D01*
X142708000Y-113794115D01*
X142703525Y-113778876D01*
X142702135Y-113777671D01*
X142694452Y-113776000D01*
X136710116Y-113776000D01*
X136694877Y-113780475D01*
X136693672Y-113781865D01*
X136692001Y-113789548D01*
X136692001Y-116066669D01*
X136692371Y-116073490D01*
X136697895Y-116124352D01*
X136701521Y-116139604D01*
X136746676Y-116260054D01*
X136755214Y-116275649D01*
X136831715Y-116377724D01*
X136844276Y-116390285D01*
X136946351Y-116466786D01*
X136961946Y-116475324D01*
X137082394Y-116520478D01*
X137097649Y-116524105D01*
X137148514Y-116529631D01*
X137155328Y-116530000D01*
X139338921Y-116530000D01*
X139407042Y-116550002D01*
X139453535Y-116603658D01*
X139463639Y-116673932D01*
X139434145Y-116738512D01*
X139396711Y-116767966D01*
X139329414Y-116802700D01*
X139210039Y-116906838D01*
X139205672Y-116913051D01*
X139205667Y-116913057D01*
X139204336Y-116914951D01*
X139203013Y-116916005D01*
X139200589Y-116918697D01*
X139200140Y-116918293D01*
X139148802Y-116959183D01*
X139101250Y-116968500D01*
X135181920Y-116968500D01*
X135157972Y-116965951D01*
X135156307Y-116965872D01*
X135146124Y-116963680D01*
X135135783Y-116964904D01*
X135112777Y-116967627D01*
X135106846Y-116967977D01*
X135106854Y-116968072D01*
X135101676Y-116968500D01*
X135096476Y-116968500D01*
X135091347Y-116969354D01*
X135091344Y-116969354D01*
X135077435Y-116971669D01*
X135071557Y-116972506D01*
X135030999Y-116977306D01*
X135030998Y-116977306D01*
X135020659Y-116978530D01*
X135012407Y-116982493D01*
X135003374Y-116983996D01*
X134994205Y-116988943D01*
X134994203Y-116988944D01*
X134958268Y-117008334D01*
X134952975Y-117011031D01*
X134913918Y-117029785D01*
X134913914Y-117029788D01*
X134906768Y-117033219D01*
X134902492Y-117036814D01*
X134900569Y-117038737D01*
X134898637Y-117040509D01*
X134898558Y-117040552D01*
X134898445Y-117040428D01*
X134897905Y-117040904D01*
X134892186Y-117043990D01*
X134885119Y-117051635D01*
X134855584Y-117083586D01*
X134852154Y-117087152D01*
X133239784Y-118699522D01*
X133221036Y-118714664D01*
X133219811Y-118715779D01*
X133211060Y-118721429D01*
X133204613Y-118729607D01*
X133204611Y-118729609D01*
X133190271Y-118747800D01*
X133186325Y-118752241D01*
X133186398Y-118752303D01*
X133183039Y-118756267D01*
X133179362Y-118759944D01*
X133168108Y-118775692D01*
X133164602Y-118780362D01*
X133132844Y-118820647D01*
X133129812Y-118829281D01*
X133124486Y-118836734D01*
X133121501Y-118846715D01*
X133109799Y-118885844D01*
X133107964Y-118891492D01*
X133090982Y-118939851D01*
X133090500Y-118945416D01*
X133090500Y-118948124D01*
X133090386Y-118950758D01*
X133090357Y-118950856D01*
X133090193Y-118950849D01*
X133090149Y-118951553D01*
X133088287Y-118957778D01*
X133088696Y-118968183D01*
X133090403Y-119011635D01*
X133090500Y-119016582D01*
X133090500Y-119466881D01*
X133070498Y-119535002D01*
X133016842Y-119581495D01*
X132946568Y-119591599D01*
X132903990Y-119577400D01*
X132888060Y-119568678D01*
X132767606Y-119523522D01*
X132752351Y-119519895D01*
X132701486Y-119514369D01*
X132694672Y-119514000D01*
X132472115Y-119514000D01*
X132456876Y-119518475D01*
X132455671Y-119519865D01*
X132454000Y-119527548D01*
X132454000Y-122511884D01*
X132458475Y-122527123D01*
X132459865Y-122528328D01*
X132467548Y-122529999D01*
X132537578Y-122529999D01*
X132605699Y-122550001D01*
X132652192Y-122603657D01*
X132662296Y-122673931D01*
X132655560Y-122700230D01*
X132648455Y-122719182D01*
X132644530Y-122728495D01*
X132624583Y-122770982D01*
X132623201Y-122779856D01*
X132622215Y-122783083D01*
X132618075Y-122798866D01*
X132617354Y-122802144D01*
X132614202Y-122810552D01*
X132613537Y-122819503D01*
X132610724Y-122857357D01*
X132609570Y-122867404D01*
X132607500Y-122880697D01*
X132607500Y-122896062D01*
X132607154Y-122905399D01*
X132603493Y-122954667D01*
X132605366Y-122963442D01*
X132605959Y-122972138D01*
X132607500Y-122986738D01*
X132607500Y-123187763D01*
X132587498Y-123255884D01*
X132533842Y-123302377D01*
X132525731Y-123305744D01*
X132525642Y-123305777D01*
X132525638Y-123305779D01*
X132517236Y-123308929D01*
X132510057Y-123314309D01*
X132510054Y-123314311D01*
X132440012Y-123366805D01*
X132401596Y-123395596D01*
X132396215Y-123402776D01*
X132320311Y-123504054D01*
X132320309Y-123504057D01*
X132314929Y-123511236D01*
X132286422Y-123587279D01*
X132270939Y-123628582D01*
X132264202Y-123646552D01*
X132257500Y-123708244D01*
X132257500Y-124703756D01*
X132264202Y-124765448D01*
X132314929Y-124900764D01*
X132320309Y-124907943D01*
X132320311Y-124907946D01*
X132356146Y-124955760D01*
X132401596Y-125016404D01*
X132408776Y-125021785D01*
X132510054Y-125097689D01*
X132510057Y-125097691D01*
X132517236Y-125103071D01*
X132525638Y-125106221D01*
X132525642Y-125106223D01*
X132525731Y-125106256D01*
X132525806Y-125106313D01*
X132533515Y-125110533D01*
X132532906Y-125111646D01*
X132582495Y-125148898D01*
X132607194Y-125215460D01*
X132607500Y-125224237D01*
X132607500Y-125452839D01*
X132587498Y-125520960D01*
X132570595Y-125541934D01*
X131683445Y-126429084D01*
X131621133Y-126463110D01*
X131594350Y-126465989D01*
X130936000Y-126465989D01*
X130867879Y-126445987D01*
X130821386Y-126392331D01*
X130810000Y-126339989D01*
X130810000Y-122066669D01*
X131242001Y-122066669D01*
X131242371Y-122073490D01*
X131247895Y-122124352D01*
X131251521Y-122139604D01*
X131296676Y-122260054D01*
X131305214Y-122275649D01*
X131381715Y-122377724D01*
X131394276Y-122390285D01*
X131496351Y-122466786D01*
X131511946Y-122475324D01*
X131632394Y-122520478D01*
X131647649Y-122524105D01*
X131698514Y-122529631D01*
X131705328Y-122530000D01*
X131927885Y-122530000D01*
X131943124Y-122525525D01*
X131944329Y-122524135D01*
X131946000Y-122516452D01*
X131946000Y-121294115D01*
X131941525Y-121278876D01*
X131940135Y-121277671D01*
X131932452Y-121276000D01*
X131260116Y-121276000D01*
X131244877Y-121280475D01*
X131243672Y-121281865D01*
X131242001Y-121289548D01*
X131242001Y-122066669D01*
X130810000Y-122066669D01*
X130810000Y-120749885D01*
X131242000Y-120749885D01*
X131246475Y-120765124D01*
X131247865Y-120766329D01*
X131255548Y-120768000D01*
X131927885Y-120768000D01*
X131943124Y-120763525D01*
X131944329Y-120762135D01*
X131946000Y-120754452D01*
X131946000Y-119532116D01*
X131941525Y-119516877D01*
X131940135Y-119515672D01*
X131932452Y-119514001D01*
X131705331Y-119514001D01*
X131698510Y-119514371D01*
X131647648Y-119519895D01*
X131632396Y-119523521D01*
X131511946Y-119568676D01*
X131496351Y-119577214D01*
X131394276Y-119653715D01*
X131381715Y-119666276D01*
X131305214Y-119768351D01*
X131296676Y-119783946D01*
X131251522Y-119904394D01*
X131247895Y-119919649D01*
X131242369Y-119970514D01*
X131242000Y-119977328D01*
X131242000Y-120749885D01*
X130810000Y-120749885D01*
X130810000Y-105066669D01*
X131242001Y-105066669D01*
X131242371Y-105073490D01*
X131247895Y-105124352D01*
X131251521Y-105139604D01*
X131296676Y-105260054D01*
X131305214Y-105275649D01*
X131381715Y-105377724D01*
X131394276Y-105390285D01*
X131496351Y-105466786D01*
X131511946Y-105475324D01*
X131632394Y-105520478D01*
X131647649Y-105524105D01*
X131698514Y-105529631D01*
X131705328Y-105530000D01*
X131927885Y-105530000D01*
X131943124Y-105525525D01*
X131944329Y-105524135D01*
X131946000Y-105516452D01*
X131946000Y-104294115D01*
X131941525Y-104278876D01*
X131940135Y-104277671D01*
X131932452Y-104276000D01*
X131260116Y-104276000D01*
X131244877Y-104280475D01*
X131243672Y-104281865D01*
X131242001Y-104289548D01*
X131242001Y-105066669D01*
X130810000Y-105066669D01*
X130810000Y-102742000D01*
X130830002Y-102673879D01*
X130883658Y-102627386D01*
X130936000Y-102616000D01*
X131177838Y-102616000D01*
X131245959Y-102636002D01*
G37*
G04 #@! TD.AperFunction*
G04 #@! TA.AperFunction,Conductor*
G36*
X137985004Y-122251247D02*
G01*
X138000699Y-122261734D01*
X138074933Y-122276500D01*
X138089119Y-122276500D01*
X138616860Y-122276499D01*
X138684980Y-122296501D01*
X138731473Y-122350156D01*
X138741577Y-122420430D01*
X138710496Y-122486809D01*
X138707762Y-122489845D01*
X138702039Y-122494838D01*
X138610950Y-122624444D01*
X138593847Y-122668311D01*
X138562411Y-122748941D01*
X138553406Y-122772037D01*
X138552414Y-122779570D01*
X138552414Y-122779571D01*
X138535330Y-122909341D01*
X138532729Y-122929096D01*
X138537099Y-122968677D01*
X138549152Y-123077845D01*
X138550113Y-123086553D01*
X138552723Y-123093684D01*
X138552723Y-123093686D01*
X138589482Y-123194134D01*
X138604553Y-123235319D01*
X138608789Y-123241622D01*
X138608789Y-123241623D01*
X138683709Y-123353115D01*
X138692908Y-123366805D01*
X138698527Y-123371918D01*
X138698528Y-123371919D01*
X138724549Y-123395596D01*
X138810076Y-123473419D01*
X138949293Y-123549008D01*
X139102522Y-123589207D01*
X139199138Y-123590725D01*
X139260772Y-123591693D01*
X139328570Y-123612762D01*
X139347888Y-123628582D01*
X139409522Y-123690216D01*
X139424664Y-123708964D01*
X139425779Y-123710189D01*
X139431429Y-123718940D01*
X139439607Y-123725387D01*
X139439609Y-123725389D01*
X139457800Y-123739729D01*
X139462241Y-123743675D01*
X139462303Y-123743602D01*
X139466267Y-123746961D01*
X139469944Y-123750638D01*
X139485692Y-123761892D01*
X139490342Y-123765383D01*
X139504087Y-123776218D01*
X139545196Y-123834096D01*
X139548488Y-123905017D01*
X139512916Y-123966458D01*
X139474688Y-123988499D01*
X139469171Y-123994865D01*
X139467500Y-124002548D01*
X139467500Y-126436884D01*
X139471975Y-126452123D01*
X139473365Y-126453328D01*
X139481048Y-126454999D01*
X139598095Y-126454999D01*
X139604614Y-126454662D01*
X139700206Y-126444743D01*
X139713600Y-126441851D01*
X139867784Y-126390412D01*
X139880962Y-126384239D01*
X140018807Y-126298937D01*
X140030208Y-126289901D01*
X140144739Y-126175171D01*
X140153751Y-126163760D01*
X140238816Y-126025757D01*
X140244964Y-126012574D01*
X140285136Y-125891459D01*
X140325567Y-125833099D01*
X140391131Y-125805862D01*
X140461012Y-125818395D01*
X140513024Y-125866720D01*
X140525602Y-125904365D01*
X140527521Y-125903909D01*
X140529349Y-125911597D01*
X140530202Y-125919448D01*
X140532974Y-125926841D01*
X140532974Y-125926843D01*
X140541261Y-125948949D01*
X140580929Y-126054764D01*
X140586309Y-126061943D01*
X140586311Y-126061946D01*
X140586940Y-126062785D01*
X140667596Y-126170404D01*
X140674776Y-126175785D01*
X140776054Y-126251689D01*
X140776057Y-126251691D01*
X140783236Y-126257071D01*
X140870811Y-126289901D01*
X140911157Y-126305026D01*
X140911159Y-126305026D01*
X140918552Y-126307798D01*
X140926402Y-126308651D01*
X140926403Y-126308651D01*
X140934714Y-126309554D01*
X140980244Y-126314500D01*
X140980234Y-126314588D01*
X141046261Y-126337927D01*
X141089780Y-126394022D01*
X141098500Y-126440081D01*
X141098500Y-127144839D01*
X141078498Y-127212960D01*
X141024842Y-127259453D01*
X141016118Y-127263049D01*
X141000463Y-127268824D01*
X140826010Y-127372612D01*
X140821670Y-127376418D01*
X140821666Y-127376421D01*
X140691778Y-127490331D01*
X140673392Y-127506455D01*
X140547720Y-127665869D01*
X140545031Y-127670980D01*
X140545029Y-127670983D01*
X140532073Y-127695609D01*
X140453203Y-127845515D01*
X140393007Y-128039378D01*
X140369148Y-128240964D01*
X140382424Y-128443522D01*
X140383845Y-128449118D01*
X140383846Y-128449123D01*
X140404119Y-128528945D01*
X140432392Y-128640269D01*
X140434809Y-128645512D01*
X140472010Y-128726208D01*
X140517377Y-128824616D01*
X140520710Y-128829332D01*
X140624372Y-128976011D01*
X140634533Y-128990389D01*
X140638675Y-128994424D01*
X140715996Y-129069746D01*
X140750834Y-129131607D01*
X140746697Y-129202483D01*
X140704898Y-129259871D01*
X140638709Y-129285550D01*
X140628075Y-129286000D01*
X139792357Y-129286000D01*
X139724236Y-129265998D01*
X139677743Y-129212342D01*
X139667639Y-129142068D01*
X139697133Y-129077488D01*
X139711788Y-129063126D01*
X139717908Y-129058036D01*
X139717913Y-129058031D01*
X139722345Y-129054345D01*
X139852147Y-128898276D01*
X139951334Y-128721165D01*
X139953190Y-128715698D01*
X139953192Y-128715693D01*
X140014728Y-128534414D01*
X140014729Y-128534409D01*
X140016584Y-128528945D01*
X140017412Y-128523236D01*
X140017413Y-128523231D01*
X140045179Y-128331727D01*
X140045712Y-128328053D01*
X140047232Y-128270000D01*
X140028658Y-128067859D01*
X140027090Y-128062299D01*
X139975125Y-127878046D01*
X139975124Y-127878044D01*
X139973557Y-127872487D01*
X139962978Y-127851033D01*
X139886331Y-127695609D01*
X139883776Y-127690428D01*
X139762320Y-127527779D01*
X139613258Y-127389987D01*
X139608375Y-127386906D01*
X139608371Y-127386903D01*
X139446464Y-127284748D01*
X139441581Y-127281667D01*
X139253039Y-127206446D01*
X139247379Y-127205320D01*
X139247375Y-127205319D01*
X139059613Y-127167971D01*
X139059610Y-127167971D01*
X139053946Y-127166844D01*
X139048171Y-127166768D01*
X139048167Y-127166768D01*
X138946793Y-127165441D01*
X138850971Y-127164187D01*
X138845274Y-127165166D01*
X138845273Y-127165166D01*
X138771492Y-127177844D01*
X138650910Y-127198564D01*
X138460463Y-127268824D01*
X138286010Y-127372612D01*
X138281670Y-127376418D01*
X138281666Y-127376421D01*
X138151778Y-127490331D01*
X138133392Y-127506455D01*
X138007720Y-127665869D01*
X138005031Y-127670980D01*
X138005029Y-127670983D01*
X137992073Y-127695609D01*
X137913203Y-127845515D01*
X137853007Y-128039378D01*
X137829148Y-128240964D01*
X137842424Y-128443522D01*
X137843845Y-128449118D01*
X137843846Y-128449123D01*
X137864119Y-128528945D01*
X137892392Y-128640269D01*
X137894809Y-128645512D01*
X137932010Y-128726208D01*
X137977377Y-128824616D01*
X137980710Y-128829332D01*
X138084372Y-128976011D01*
X138094533Y-128990389D01*
X138098675Y-128994424D01*
X138175996Y-129069746D01*
X138210834Y-129131607D01*
X138206697Y-129202483D01*
X138164898Y-129259871D01*
X138098709Y-129285550D01*
X138088075Y-129286000D01*
X137252357Y-129286000D01*
X137184236Y-129265998D01*
X137137743Y-129212342D01*
X137127639Y-129142068D01*
X137157133Y-129077488D01*
X137171788Y-129063126D01*
X137177908Y-129058036D01*
X137177913Y-129058031D01*
X137182345Y-129054345D01*
X137312147Y-128898276D01*
X137411334Y-128721165D01*
X137413190Y-128715698D01*
X137413192Y-128715693D01*
X137474728Y-128534414D01*
X137474729Y-128534409D01*
X137476584Y-128528945D01*
X137477412Y-128523236D01*
X137477413Y-128523231D01*
X137505179Y-128331727D01*
X137505712Y-128328053D01*
X137507232Y-128270000D01*
X137488658Y-128067859D01*
X137487090Y-128062299D01*
X137435125Y-127878046D01*
X137435124Y-127878044D01*
X137433557Y-127872487D01*
X137422978Y-127851033D01*
X137346331Y-127695609D01*
X137343776Y-127690428D01*
X137222320Y-127527779D01*
X137073258Y-127389987D01*
X137068375Y-127386906D01*
X137068371Y-127386903D01*
X136906464Y-127284748D01*
X136901581Y-127281667D01*
X136713039Y-127206446D01*
X136707379Y-127205320D01*
X136707375Y-127205319D01*
X136519613Y-127167971D01*
X136519610Y-127167971D01*
X136513946Y-127166844D01*
X136508171Y-127166768D01*
X136508167Y-127166768D01*
X136406793Y-127165441D01*
X136310971Y-127164187D01*
X136305274Y-127165166D01*
X136305273Y-127165166D01*
X136231492Y-127177844D01*
X136110910Y-127198564D01*
X135920463Y-127268824D01*
X135746010Y-127372612D01*
X135741670Y-127376418D01*
X135741666Y-127376421D01*
X135611778Y-127490331D01*
X135593392Y-127506455D01*
X135467720Y-127665869D01*
X135465031Y-127670980D01*
X135465029Y-127670983D01*
X135452073Y-127695609D01*
X135373203Y-127845515D01*
X135313007Y-128039378D01*
X135289148Y-128240964D01*
X135302424Y-128443522D01*
X135303845Y-128449118D01*
X135303846Y-128449123D01*
X135324119Y-128528945D01*
X135352392Y-128640269D01*
X135354809Y-128645512D01*
X135392010Y-128726208D01*
X135437377Y-128824616D01*
X135440710Y-128829332D01*
X135544372Y-128976011D01*
X135554533Y-128990389D01*
X135558675Y-128994424D01*
X135635996Y-129069746D01*
X135670834Y-129131607D01*
X135666697Y-129202483D01*
X135624898Y-129259871D01*
X135558709Y-129285550D01*
X135548075Y-129286000D01*
X134712357Y-129286000D01*
X134644236Y-129265998D01*
X134597743Y-129212342D01*
X134587639Y-129142068D01*
X134617133Y-129077488D01*
X134631788Y-129063126D01*
X134637908Y-129058036D01*
X134637913Y-129058031D01*
X134642345Y-129054345D01*
X134772147Y-128898276D01*
X134871334Y-128721165D01*
X134873190Y-128715698D01*
X134873192Y-128715693D01*
X134934728Y-128534414D01*
X134934729Y-128534409D01*
X134936584Y-128528945D01*
X134937412Y-128523236D01*
X134937413Y-128523231D01*
X134965179Y-128331727D01*
X134965712Y-128328053D01*
X134967232Y-128270000D01*
X134948658Y-128067859D01*
X134947090Y-128062299D01*
X134895125Y-127878046D01*
X134895124Y-127878044D01*
X134893557Y-127872487D01*
X134882978Y-127851033D01*
X134806331Y-127695609D01*
X134803776Y-127690428D01*
X134682320Y-127527779D01*
X134533258Y-127389987D01*
X134528375Y-127386906D01*
X134528371Y-127386903D01*
X134366464Y-127284748D01*
X134361581Y-127281667D01*
X134173039Y-127206446D01*
X134167379Y-127205320D01*
X134167375Y-127205319D01*
X133979613Y-127167971D01*
X133979610Y-127167971D01*
X133973946Y-127166844D01*
X133968171Y-127166768D01*
X133968167Y-127166768D01*
X133866793Y-127165441D01*
X133770971Y-127164187D01*
X133765274Y-127165166D01*
X133765273Y-127165166D01*
X133691492Y-127177844D01*
X133570910Y-127198564D01*
X133380463Y-127268824D01*
X133206010Y-127372612D01*
X133201670Y-127376418D01*
X133201666Y-127376421D01*
X133071778Y-127490331D01*
X133053392Y-127506455D01*
X132927720Y-127665869D01*
X132925031Y-127670980D01*
X132925029Y-127670983D01*
X132835589Y-127840980D01*
X132786170Y-127891952D01*
X132717037Y-127908115D01*
X132650141Y-127884336D01*
X132610003Y-127829973D01*
X132607955Y-127830863D01*
X132520972Y-127630814D01*
X132516105Y-127621739D01*
X132400426Y-127442926D01*
X132394141Y-127434764D01*
X132337143Y-127372124D01*
X132306092Y-127308278D01*
X132314487Y-127237779D01*
X132341242Y-127198229D01*
X133284066Y-126255405D01*
X133346378Y-126221379D01*
X133373161Y-126218500D01*
X136575876Y-126218500D01*
X136587881Y-126219841D01*
X136587921Y-126219345D01*
X136596868Y-126220065D01*
X136605624Y-126222046D01*
X136658882Y-126218742D01*
X136666684Y-126218500D01*
X136682726Y-126218500D01*
X136687157Y-126217865D01*
X136687162Y-126217865D01*
X136691187Y-126217288D01*
X136692957Y-126217035D01*
X136703014Y-126216004D01*
X136725476Y-126214611D01*
X136740900Y-126213654D01*
X136740902Y-126213654D01*
X136749859Y-126213098D01*
X136758299Y-126210051D01*
X136761589Y-126209370D01*
X136781978Y-126204286D01*
X136789554Y-126203201D01*
X136789704Y-126204246D01*
X136808881Y-126201500D01*
X137523756Y-126201500D01*
X137527153Y-126201131D01*
X137577597Y-126195651D01*
X137577598Y-126195651D01*
X137585448Y-126194798D01*
X137592841Y-126192026D01*
X137592843Y-126192026D01*
X137650520Y-126170404D01*
X137720764Y-126144071D01*
X137727943Y-126138691D01*
X137727946Y-126138689D01*
X137829224Y-126062785D01*
X137836404Y-126057404D01*
X137923071Y-125941764D01*
X137926223Y-125933355D01*
X137930181Y-125926126D01*
X137980438Y-125875979D01*
X138049829Y-125860964D01*
X138116322Y-125885848D01*
X138160226Y-125946757D01*
X138182588Y-126013784D01*
X138188761Y-126026962D01*
X138274063Y-126164807D01*
X138283099Y-126176208D01*
X138397829Y-126290739D01*
X138409240Y-126299751D01*
X138547243Y-126384816D01*
X138560424Y-126390963D01*
X138714710Y-126442138D01*
X138728086Y-126445005D01*
X138822438Y-126454672D01*
X138828854Y-126455000D01*
X138941385Y-126455000D01*
X138956624Y-126450525D01*
X138957829Y-126449135D01*
X138959500Y-126441452D01*
X138959500Y-124007116D01*
X138955025Y-123991877D01*
X138953635Y-123990672D01*
X138945952Y-123989001D01*
X138828905Y-123989001D01*
X138822386Y-123989338D01*
X138726794Y-123999257D01*
X138713400Y-124002149D01*
X138559216Y-124053588D01*
X138546038Y-124059761D01*
X138408193Y-124145063D01*
X138396792Y-124154099D01*
X138282261Y-124268829D01*
X138273249Y-124280240D01*
X138188184Y-124418243D01*
X138182036Y-124431426D01*
X138160283Y-124497010D01*
X138119853Y-124555370D01*
X138054288Y-124582607D01*
X137984407Y-124570074D01*
X137930170Y-124517853D01*
X137926221Y-124510640D01*
X137923071Y-124502236D01*
X137836404Y-124386596D01*
X137815977Y-124371287D01*
X137727946Y-124305311D01*
X137727943Y-124305309D01*
X137720764Y-124299929D01*
X137606439Y-124257071D01*
X137592843Y-124251974D01*
X137592841Y-124251974D01*
X137585448Y-124249202D01*
X137577598Y-124248349D01*
X137577597Y-124248349D01*
X137527153Y-124242869D01*
X137527152Y-124242869D01*
X137523756Y-124242500D01*
X136753244Y-124242500D01*
X136749848Y-124242869D01*
X136749847Y-124242869D01*
X136699403Y-124248349D01*
X136699402Y-124248349D01*
X136691552Y-124249202D01*
X136684159Y-124251974D01*
X136684157Y-124251974D01*
X136670561Y-124257071D01*
X136556236Y-124299929D01*
X136549057Y-124305309D01*
X136549054Y-124305311D01*
X136461023Y-124371287D01*
X136440596Y-124386596D01*
X136435215Y-124393776D01*
X136359311Y-124495054D01*
X136359309Y-124495057D01*
X136353929Y-124502236D01*
X136303202Y-124637552D01*
X136296500Y-124699244D01*
X136296500Y-125083500D01*
X136276498Y-125151621D01*
X136222842Y-125198114D01*
X136170500Y-125209500D01*
X135929577Y-125209500D01*
X135861456Y-125189498D01*
X135814963Y-125135842D01*
X135804859Y-125065568D01*
X135828751Y-125007935D01*
X135903689Y-124907946D01*
X135903691Y-124907943D01*
X135909071Y-124900764D01*
X135959798Y-124765448D01*
X135966500Y-124703756D01*
X135966500Y-123708244D01*
X135959798Y-123646552D01*
X135953062Y-123628582D01*
X135937578Y-123587279D01*
X135909071Y-123511236D01*
X135903691Y-123504057D01*
X135903689Y-123504054D01*
X135827785Y-123402776D01*
X135822404Y-123395596D01*
X135783988Y-123366805D01*
X135713946Y-123314311D01*
X135713943Y-123314309D01*
X135706764Y-123308929D01*
X135573137Y-123258835D01*
X135516372Y-123216194D01*
X135491794Y-123151232D01*
X135491500Y-123147676D01*
X135491500Y-123142476D01*
X135488329Y-123123424D01*
X135487492Y-123117547D01*
X135482693Y-123076997D01*
X135482692Y-123076995D01*
X135481469Y-123066659D01*
X135477508Y-123058410D01*
X135476004Y-123049374D01*
X135469767Y-123037814D01*
X135451652Y-123004240D01*
X135448957Y-122998951D01*
X135430212Y-122959915D01*
X135426780Y-122952768D01*
X135423186Y-122948492D01*
X135421246Y-122946552D01*
X135419493Y-122944641D01*
X135419444Y-122944551D01*
X135419567Y-122944439D01*
X135419095Y-122943904D01*
X135416010Y-122938186D01*
X135406177Y-122929096D01*
X135376414Y-122901584D01*
X135372848Y-122898154D01*
X135156405Y-122681711D01*
X135122379Y-122619399D01*
X135119500Y-122592616D01*
X135119500Y-122398913D01*
X135139502Y-122330792D01*
X135193158Y-122284299D01*
X135220909Y-122275337D01*
X135289301Y-122261734D01*
X135304996Y-122251247D01*
X135372748Y-122230030D01*
X135445004Y-122251247D01*
X135460699Y-122261734D01*
X135534933Y-122276500D01*
X136009923Y-122276500D01*
X136485066Y-122276499D01*
X136520818Y-122269388D01*
X136547126Y-122264156D01*
X136547128Y-122264155D01*
X136559301Y-122261734D01*
X136574996Y-122251247D01*
X136642748Y-122230030D01*
X136715004Y-122251247D01*
X136730699Y-122261734D01*
X136804933Y-122276500D01*
X137279923Y-122276500D01*
X137755066Y-122276499D01*
X137790818Y-122269388D01*
X137817126Y-122264156D01*
X137817128Y-122264155D01*
X137829301Y-122261734D01*
X137844996Y-122251247D01*
X137912748Y-122230030D01*
X137985004Y-122251247D01*
G37*
G04 #@! TD.AperFunction*
G04 #@! TA.AperFunction,Conductor*
G36*
X151072121Y-102636002D02*
G01*
X151118614Y-102689658D01*
X151130000Y-102742000D01*
X151130000Y-106112121D01*
X151109998Y-106180242D01*
X151056342Y-106226735D01*
X150986068Y-106236839D01*
X150921488Y-106207345D01*
X150903485Y-106186940D01*
X150900377Y-106183832D01*
X150893484Y-106173516D01*
X150809301Y-106117266D01*
X150735067Y-106102500D01*
X150522374Y-106102500D01*
X148738383Y-106102501D01*
X148670262Y-106082499D01*
X148623769Y-106028843D01*
X148613665Y-105958569D01*
X148643159Y-105893989D01*
X148649288Y-105887406D01*
X148940216Y-105596478D01*
X148958964Y-105581336D01*
X148960189Y-105580221D01*
X148968940Y-105574571D01*
X148975387Y-105566393D01*
X148975389Y-105566391D01*
X148989729Y-105548200D01*
X148993675Y-105543759D01*
X148993602Y-105543697D01*
X148996961Y-105539733D01*
X149000638Y-105536056D01*
X149011892Y-105520308D01*
X149015398Y-105515638D01*
X149047156Y-105475353D01*
X149050188Y-105466719D01*
X149055514Y-105459266D01*
X149070203Y-105410150D01*
X149072025Y-105404539D01*
X149088163Y-105358583D01*
X149129606Y-105300940D01*
X149185488Y-105278619D01*
X149185066Y-105276499D01*
X149189340Y-105275649D01*
X149247126Y-105264156D01*
X149247128Y-105264155D01*
X149259301Y-105261734D01*
X149269621Y-105254839D01*
X149269622Y-105254838D01*
X149333168Y-105212377D01*
X149343484Y-105205484D01*
X149399734Y-105121301D01*
X149414500Y-105047067D01*
X149414499Y-102996934D01*
X149399734Y-102922699D01*
X149343484Y-102838516D01*
X149333168Y-102831623D01*
X149332640Y-102831095D01*
X149298614Y-102768783D01*
X149303679Y-102697968D01*
X149346226Y-102641132D01*
X149412746Y-102616321D01*
X149421735Y-102616000D01*
X151004000Y-102616000D01*
X151072121Y-102636002D01*
G37*
G04 #@! TD.AperFunction*
M02*
