%FSLAX45Y45*%
G04 Gerber Fmt 4.5, Leading zero omitted, Abs format (unit mm)*
G04 Created by KiCad (PCBNEW 6.0.2+dfsg-1) date 2023-09-07 15:13:34*
%MOMM*%
%LPD*%
G01*
G04 APERTURE LIST*
%TA.AperFunction,Profile*%
%ADD10C,0.100000*%
%TD*%
%ADD11C,0.200000*%
G04 APERTURE END LIST*
D10*
X13055600Y-10236200D02*
X15138400Y-10236200D01*
X13055600Y-12649200D02*
X13055600Y-10236200D01*
X12420600Y-12649200D02*
X13055600Y-12649200D01*
X12420600Y-12954000D02*
X12420600Y-12649200D01*
X15138400Y-12954000D02*
X15138400Y-10236200D01*
X15113000Y-12954000D02*
X15138400Y-12954000D01*
X15087600Y-12954000D02*
X15113000Y-12954000D01*
X12420600Y-12954000D02*
X15087600Y-12954000D01*
D11*
X12673219Y-13269476D02*
X12673219Y-13069476D01*
X12720838Y-13069476D01*
X12749409Y-13079000D01*
X12768457Y-13098048D01*
X12777981Y-13117095D01*
X12787505Y-13155190D01*
X12787505Y-13183762D01*
X12777981Y-13221857D01*
X12768457Y-13240905D01*
X12749409Y-13259952D01*
X12720838Y-13269476D01*
X12673219Y-13269476D01*
X12873219Y-13269476D02*
X12873219Y-13136143D01*
X12873219Y-13174238D02*
X12882743Y-13155190D01*
X12892267Y-13145667D01*
X12911314Y-13136143D01*
X12930362Y-13136143D01*
X12997028Y-13269476D02*
X12997028Y-13136143D01*
X12997028Y-13069476D02*
X12987505Y-13079000D01*
X12997028Y-13088524D01*
X13006552Y-13079000D01*
X12997028Y-13069476D01*
X12997028Y-13088524D01*
X13120838Y-13269476D02*
X13101790Y-13259952D01*
X13092267Y-13240905D01*
X13092267Y-13069476D01*
X13225600Y-13269476D02*
X13206552Y-13259952D01*
X13197028Y-13240905D01*
X13197028Y-13069476D01*
X13454171Y-13269476D02*
X13454171Y-13069476D01*
X13520838Y-13212333D01*
X13587505Y-13069476D01*
X13587505Y-13269476D01*
X13768457Y-13269476D02*
X13768457Y-13164714D01*
X13758933Y-13145667D01*
X13739886Y-13136143D01*
X13701790Y-13136143D01*
X13682743Y-13145667D01*
X13768457Y-13259952D02*
X13749409Y-13269476D01*
X13701790Y-13269476D01*
X13682743Y-13259952D01*
X13673219Y-13240905D01*
X13673219Y-13221857D01*
X13682743Y-13202809D01*
X13701790Y-13193286D01*
X13749409Y-13193286D01*
X13768457Y-13183762D01*
X13863695Y-13136143D02*
X13863695Y-13336143D01*
X13863695Y-13145667D02*
X13882743Y-13136143D01*
X13920838Y-13136143D01*
X13939886Y-13145667D01*
X13949409Y-13155190D01*
X13958933Y-13174238D01*
X13958933Y-13231381D01*
X13949409Y-13250428D01*
X13939886Y-13259952D01*
X13920838Y-13269476D01*
X13882743Y-13269476D01*
X13863695Y-13259952D01*
X14044648Y-13250428D02*
X14054171Y-13259952D01*
X14044648Y-13269476D01*
X14035124Y-13259952D01*
X14044648Y-13250428D01*
X14044648Y-13269476D01*
X14044648Y-13145667D02*
X14054171Y-13155190D01*
X14044648Y-13164714D01*
X14035124Y-13155190D01*
X14044648Y-13145667D01*
X14044648Y-13164714D01*
M02*
