G04 #@! TF.GenerationSoftware,KiCad,Pcbnew,6.0.2+dfsg-1*
G04 #@! TF.CreationDate,2023-09-07T15:13:02+02:00*
G04 #@! TF.ProjectId,flipper_esp32,666c6970-7065-4725-9f65-737033322e6b,rev?*
G04 #@! TF.SameCoordinates,Original*
G04 #@! TF.FileFunction,Legend,Top*
G04 #@! TF.FilePolarity,Positive*
%FSLAX46Y46*%
G04 Gerber Fmt 4.6, Leading zero omitted, Abs format (unit mm)*
G04 Created by KiCad (PCBNEW 6.0.2+dfsg-1) date 2023-09-07 15:13:02*
%MOMM*%
%LPD*%
G01*
G04 APERTURE LIST*
G04 Aperture macros list*
%AMRoundRect*
0 Rectangle with rounded corners*
0 $1 Rounding radius*
0 $2 $3 $4 $5 $6 $7 $8 $9 X,Y pos of 4 corners*
0 Add a 4 corners polygon primitive as box body*
4,1,4,$2,$3,$4,$5,$6,$7,$8,$9,$2,$3,0*
0 Add four circle primitives for the rounded corners*
1,1,$1+$1,$2,$3*
1,1,$1+$1,$4,$5*
1,1,$1+$1,$6,$7*
1,1,$1+$1,$8,$9*
0 Add four rect primitives between the rounded corners*
20,1,$1+$1,$2,$3,$4,$5,0*
20,1,$1+$1,$4,$5,$6,$7,0*
20,1,$1+$1,$6,$7,$8,$9,0*
20,1,$1+$1,$8,$9,$2,$3,0*%
G04 Aperture macros list end*
%ADD10C,0.150000*%
%ADD11C,0.120000*%
%ADD12RoundRect,0.250000X-0.337500X-0.475000X0.337500X-0.475000X0.337500X0.475000X-0.337500X0.475000X0*%
%ADD13RoundRect,0.250000X-0.450000X0.350000X-0.450000X-0.350000X0.450000X-0.350000X0.450000X0.350000X0*%
%ADD14RoundRect,0.250000X0.450000X-0.350000X0.450000X0.350000X-0.450000X0.350000X-0.450000X-0.350000X0*%
%ADD15RoundRect,0.250000X0.350000X0.450000X-0.350000X0.450000X-0.350000X-0.450000X0.350000X-0.450000X0*%
%ADD16R,1.700000X1.700000*%
%ADD17O,1.700000X1.700000*%
%ADD18R,0.900000X2.000000*%
%ADD19R,2.000000X0.900000*%
%ADD20R,5.000000X5.000000*%
G04 APERTURE END LIST*
D10*
X138009333Y-123899142D02*
X137961714Y-123946761D01*
X137818857Y-123994380D01*
X137723619Y-123994380D01*
X137580761Y-123946761D01*
X137485523Y-123851523D01*
X137437904Y-123756285D01*
X137390285Y-123565809D01*
X137390285Y-123422952D01*
X137437904Y-123232476D01*
X137485523Y-123137238D01*
X137580761Y-123042000D01*
X137723619Y-122994380D01*
X137818857Y-122994380D01*
X137961714Y-123042000D01*
X138009333Y-123089619D01*
X138961714Y-123994380D02*
X138390285Y-123994380D01*
X138676000Y-123994380D02*
X138676000Y-122994380D01*
X138580761Y-123137238D01*
X138485523Y-123232476D01*
X138390285Y-123280095D01*
X140152380Y-123356666D02*
X139676190Y-123690000D01*
X140152380Y-123928095D02*
X139152380Y-123928095D01*
X139152380Y-123547142D01*
X139200000Y-123451904D01*
X139247619Y-123404285D01*
X139342857Y-123356666D01*
X139485714Y-123356666D01*
X139580952Y-123404285D01*
X139628571Y-123451904D01*
X139676190Y-123547142D01*
X139676190Y-123928095D01*
X139485714Y-122499523D02*
X140152380Y-122499523D01*
X139104761Y-122737619D02*
X139819047Y-122975714D01*
X139819047Y-122356666D01*
X146248380Y-124372666D02*
X145772190Y-124706000D01*
X146248380Y-124944095D02*
X145248380Y-124944095D01*
X145248380Y-124563142D01*
X145296000Y-124467904D01*
X145343619Y-124420285D01*
X145438857Y-124372666D01*
X145581714Y-124372666D01*
X145676952Y-124420285D01*
X145724571Y-124467904D01*
X145772190Y-124563142D01*
X145772190Y-124944095D01*
X145248380Y-124039333D02*
X145248380Y-123420285D01*
X145629333Y-123753619D01*
X145629333Y-123610761D01*
X145676952Y-123515523D01*
X145724571Y-123467904D01*
X145819809Y-123420285D01*
X146057904Y-123420285D01*
X146153142Y-123467904D01*
X146200761Y-123515523D01*
X146248380Y-123610761D01*
X146248380Y-123896476D01*
X146200761Y-123991714D01*
X146153142Y-124039333D01*
X133183333Y-126436380D02*
X132850000Y-125960190D01*
X132611904Y-126436380D02*
X132611904Y-125436380D01*
X132992857Y-125436380D01*
X133088095Y-125484000D01*
X133135714Y-125531619D01*
X133183333Y-125626857D01*
X133183333Y-125769714D01*
X133135714Y-125864952D01*
X133088095Y-125912571D01*
X132992857Y-125960190D01*
X132611904Y-125960190D01*
X134135714Y-126436380D02*
X133564285Y-126436380D01*
X133850000Y-126436380D02*
X133850000Y-125436380D01*
X133754761Y-125579238D01*
X133659523Y-125674476D01*
X133564285Y-125722095D01*
X149780666Y-125182380D02*
X149780666Y-125896666D01*
X149733047Y-126039523D01*
X149637809Y-126134761D01*
X149494952Y-126182380D01*
X149399714Y-126182380D01*
X150780666Y-126182380D02*
X150209238Y-126182380D01*
X150494952Y-126182380D02*
X150494952Y-125182380D01*
X150399714Y-125325238D01*
X150304476Y-125420476D01*
X150209238Y-125468095D01*
X131024380Y-123951904D02*
X131833904Y-123951904D01*
X131929142Y-123904285D01*
X131976761Y-123856666D01*
X132024380Y-123761428D01*
X132024380Y-123570952D01*
X131976761Y-123475714D01*
X131929142Y-123428095D01*
X131833904Y-123380476D01*
X131024380Y-123380476D01*
X132024380Y-122380476D02*
X132024380Y-122951904D01*
X132024380Y-122666190D02*
X131024380Y-122666190D01*
X131167238Y-122761428D01*
X131262476Y-122856666D01*
X131310095Y-122951904D01*
D11*
X137914748Y-124487000D02*
X138437252Y-124487000D01*
X137914748Y-125957000D02*
X138437252Y-125957000D01*
X142213000Y-124232936D02*
X142213000Y-124687064D01*
X140743000Y-124232936D02*
X140743000Y-124687064D01*
X143283000Y-124687064D02*
X143283000Y-124232936D01*
X144753000Y-124687064D02*
X144753000Y-124232936D01*
X134339064Y-123471000D02*
X133884936Y-123471000D01*
X134339064Y-124941000D02*
X133884936Y-124941000D01*
X125618475Y-138360000D02*
X125618475Y-129730000D01*
X125500380Y-138360000D02*
X125500380Y-129730000D01*
X130958000Y-129730000D02*
X130958000Y-129320000D01*
X141118000Y-129730000D02*
X141118000Y-129320000D01*
X124908000Y-128270000D02*
X124908000Y-127160000D01*
X137668000Y-138360000D02*
X137668000Y-129730000D01*
X127508000Y-138360000D02*
X127508000Y-129730000D01*
X140208000Y-138360000D02*
X140208000Y-129730000D01*
X126327045Y-138360000D02*
X126327045Y-129730000D01*
X150428000Y-138360000D02*
X150428000Y-129730000D01*
X126681330Y-138360000D02*
X126681330Y-129730000D01*
X131678000Y-129730000D02*
X131678000Y-129320000D01*
X130048000Y-138360000D02*
X130048000Y-129730000D01*
X132588000Y-138360000D02*
X132588000Y-129730000D01*
X127153710Y-138360000D02*
X127153710Y-129730000D01*
X145288000Y-138360000D02*
X145288000Y-129730000D01*
X138578000Y-129730000D02*
X138578000Y-129320000D01*
X128418000Y-129730000D02*
X128418000Y-129320000D01*
X147828000Y-138360000D02*
X147828000Y-129730000D01*
X124908000Y-127160000D02*
X126238000Y-127160000D01*
X124908000Y-129730000D02*
X150428000Y-129730000D01*
X126917520Y-138360000D02*
X126917520Y-129730000D01*
X125028000Y-138360000D02*
X125028000Y-129730000D01*
X139298000Y-129730000D02*
X139298000Y-129320000D01*
X125854665Y-138360000D02*
X125854665Y-129730000D01*
X149458000Y-129730000D02*
X149458000Y-129320000D01*
X146918000Y-129730000D02*
X146918000Y-129320000D01*
X144378000Y-129730000D02*
X144378000Y-129320000D01*
X127389900Y-138360000D02*
X127389900Y-129730000D01*
X125736570Y-138360000D02*
X125736570Y-129730000D01*
X129138000Y-129730000D02*
X129138000Y-129320000D01*
X143658000Y-129730000D02*
X143658000Y-129320000D01*
X126445140Y-138360000D02*
X126445140Y-129730000D01*
X125382285Y-138360000D02*
X125382285Y-129730000D01*
X126090855Y-138360000D02*
X126090855Y-129730000D01*
X134218000Y-129730000D02*
X134218000Y-129320000D01*
X126799425Y-138360000D02*
X126799425Y-129730000D01*
X126208950Y-138360000D02*
X126208950Y-129730000D01*
X142748000Y-138360000D02*
X142748000Y-129730000D01*
X127035615Y-138360000D02*
X127035615Y-129730000D01*
X126563235Y-138360000D02*
X126563235Y-129730000D01*
X146198000Y-129730000D02*
X146198000Y-129320000D01*
X141838000Y-129730000D02*
X141838000Y-129320000D01*
X125146095Y-138360000D02*
X125146095Y-129730000D01*
X148738000Y-129730000D02*
X148738000Y-129320000D01*
X124908000Y-138360000D02*
X150428000Y-138360000D01*
X133498000Y-129730000D02*
X133498000Y-129320000D01*
X125972760Y-138360000D02*
X125972760Y-129730000D01*
X127271805Y-138360000D02*
X127271805Y-129730000D01*
X135128000Y-138360000D02*
X135128000Y-129730000D01*
X136038000Y-129730000D02*
X136038000Y-129320000D01*
X125878000Y-129730000D02*
X125878000Y-129380000D01*
X126598000Y-129730000D02*
X126598000Y-129380000D01*
X136758000Y-129730000D02*
X136758000Y-129320000D01*
X125264190Y-138360000D02*
X125264190Y-129730000D01*
X124908000Y-138360000D02*
X124908000Y-129730000D01*
X124590000Y-103402000D02*
X131010000Y-103402000D01*
X124590000Y-121642000D02*
X124590000Y-103402000D01*
X124590000Y-121642000D02*
X131010000Y-121642000D01*
X149555000Y-103402000D02*
X150335000Y-103402000D01*
X150335000Y-103402000D02*
X150335000Y-104402000D01*
X131010000Y-121642000D02*
X131010000Y-122022000D01*
X149555000Y-121642000D02*
X150335000Y-121642000D01*
X150335000Y-121642000D02*
X150335000Y-120642000D01*
%LPC*%
D12*
X137138500Y-125222000D03*
X139213500Y-125222000D03*
D13*
X141478000Y-123460000D03*
X141478000Y-125460000D03*
D14*
X144018000Y-125460000D03*
X144018000Y-123460000D03*
D15*
X133112000Y-124206000D03*
X135112000Y-124206000D03*
D16*
X126238000Y-128270000D03*
D17*
X128778000Y-128270000D03*
X131318000Y-128270000D03*
X133858000Y-128270000D03*
X136398000Y-128270000D03*
X138938000Y-128270000D03*
X141478000Y-128270000D03*
X144018000Y-128270000D03*
X146558000Y-128270000D03*
X149098000Y-128270000D03*
D18*
X132200000Y-121022000D03*
X133470000Y-121022000D03*
X134740000Y-121022000D03*
X136010000Y-121022000D03*
X137280000Y-121022000D03*
X138550000Y-121022000D03*
X139820000Y-121022000D03*
X141090000Y-121022000D03*
X142360000Y-121022000D03*
X143630000Y-121022000D03*
X144900000Y-121022000D03*
X146170000Y-121022000D03*
X147440000Y-121022000D03*
X148710000Y-121022000D03*
D19*
X149710000Y-118237000D03*
X149710000Y-116967000D03*
X149710000Y-115697000D03*
X149710000Y-114427000D03*
X149710000Y-113157000D03*
X149710000Y-111887000D03*
X149710000Y-110617000D03*
X149710000Y-109347000D03*
X149710000Y-108077000D03*
X149710000Y-106807000D03*
D18*
X148710000Y-104022000D03*
X147440000Y-104022000D03*
X146170000Y-104022000D03*
X144900000Y-104022000D03*
X143630000Y-104022000D03*
X142360000Y-104022000D03*
X141090000Y-104022000D03*
X139820000Y-104022000D03*
X138550000Y-104022000D03*
X137280000Y-104022000D03*
X136010000Y-104022000D03*
X134740000Y-104022000D03*
X133470000Y-104022000D03*
X132200000Y-104022000D03*
D20*
X139700000Y-113522000D03*
M02*
