G04 #@! TF.GenerationSoftware,KiCad,Pcbnew,6.0.2+dfsg-1*
G04 #@! TF.CreationDate,2023-09-07T15:13:02+02:00*
G04 #@! TF.ProjectId,flipper_esp32,666c6970-7065-4725-9f65-737033322e6b,rev?*
G04 #@! TF.SameCoordinates,Original*
G04 #@! TF.FileFunction,Copper,L2,Bot*
G04 #@! TF.FilePolarity,Positive*
%FSLAX46Y46*%
G04 Gerber Fmt 4.6, Leading zero omitted, Abs format (unit mm)*
G04 Created by KiCad (PCBNEW 6.0.2+dfsg-1) date 2023-09-07 15:13:02*
%MOMM*%
%LPD*%
G01*
G04 APERTURE LIST*
G04 Aperture macros list*
%AMRoundRect*
0 Rectangle with rounded corners*
0 $1 Rounding radius*
0 $2 $3 $4 $5 $6 $7 $8 $9 X,Y pos of 4 corners*
0 Add a 4 corners polygon primitive as box body*
4,1,4,$2,$3,$4,$5,$6,$7,$8,$9,$2,$3,0*
0 Add four circle primitives for the rounded corners*
1,1,$1+$1,$2,$3*
1,1,$1+$1,$4,$5*
1,1,$1+$1,$6,$7*
1,1,$1+$1,$8,$9*
0 Add four rect primitives between the rounded corners*
20,1,$1+$1,$2,$3,$4,$5,0*
20,1,$1+$1,$4,$5,$6,$7,0*
20,1,$1+$1,$6,$7,$8,$9,0*
20,1,$1+$1,$8,$9,$2,$3,0*%
G04 Aperture macros list end*
G04 #@! TA.AperFunction,SMDPad,CuDef*
%ADD10R,1.400000X1.600000*%
G04 #@! TD*
G04 #@! TA.AperFunction,SMDPad,CuDef*
%ADD11RoundRect,0.250000X0.350000X0.450000X-0.350000X0.450000X-0.350000X-0.450000X0.350000X-0.450000X0*%
G04 #@! TD*
G04 #@! TA.AperFunction,SMDPad,CuDef*
%ADD12R,0.700000X2.000000*%
G04 #@! TD*
G04 #@! TA.AperFunction,ComponentPad*
%ADD13R,1.700000X1.700000*%
G04 #@! TD*
G04 #@! TA.AperFunction,ComponentPad*
%ADD14O,1.700000X1.700000*%
G04 #@! TD*
G04 #@! TA.AperFunction,ViaPad*
%ADD15C,0.800000*%
G04 #@! TD*
G04 #@! TA.AperFunction,Conductor*
%ADD16C,0.250000*%
G04 #@! TD*
G04 APERTURE END LIST*
D10*
X149824000Y-113474000D03*
X149824000Y-105474000D03*
X145324000Y-113474000D03*
X145324000Y-105474000D03*
X149824000Y-124396000D03*
X149824000Y-116396000D03*
X145324000Y-124396000D03*
X145324000Y-116396000D03*
D11*
X140732000Y-114300000D03*
X142732000Y-114300000D03*
D12*
X141732000Y-117172000D03*
X140782000Y-120572000D03*
X142682000Y-120572000D03*
X138618000Y-120572000D03*
X136718000Y-120572000D03*
X137668000Y-117172000D03*
D13*
X126238000Y-128270000D03*
D14*
X128778000Y-128270000D03*
X131318000Y-128270000D03*
X133858000Y-128270000D03*
X136398000Y-128270000D03*
X138938000Y-128270000D03*
X141478000Y-128270000D03*
X144018000Y-128270000D03*
X146558000Y-128270000D03*
X149098000Y-128270000D03*
D15*
X150530000Y-103566000D03*
X138259500Y-106171574D03*
X137398157Y-109914001D03*
X139949057Y-109914000D03*
X142513516Y-109956190D03*
X143421032Y-112050500D03*
X145929661Y-111819500D03*
X146594500Y-110176313D03*
X146594500Y-107607487D03*
X144765458Y-107128500D03*
X143088755Y-105872885D03*
X140526789Y-105870722D03*
X136111559Y-113635131D03*
X136133106Y-110711374D03*
X136115016Y-116266710D03*
X140565321Y-118446308D03*
X138941028Y-118353546D03*
X131542467Y-106114823D03*
X131410000Y-108657055D03*
X131962529Y-118914001D03*
X132878500Y-116892661D03*
X131973525Y-114546604D03*
X131862500Y-111870443D03*
X133066082Y-109642696D03*
X134987248Y-107721530D03*
X134176789Y-105870722D03*
X143524801Y-117702421D03*
X144045048Y-119167500D03*
X146893519Y-119171632D03*
X147772288Y-117190598D03*
X150009053Y-119912162D03*
X150530000Y-122488000D03*
X136716789Y-122870722D03*
X131636156Y-125627845D03*
X131439374Y-123088894D03*
X146633220Y-125802276D03*
X145333358Y-127077435D03*
X149056348Y-126303598D03*
X148028216Y-124251761D03*
X142753107Y-126564444D03*
X140457620Y-126762839D03*
X137941819Y-126881041D03*
X135418500Y-126869303D03*
X139700000Y-117348000D03*
X134874000Y-116078000D03*
X133858000Y-113284000D03*
X147574000Y-115570000D03*
X135128000Y-118618000D03*
X139192000Y-122936000D03*
X147320000Y-123190000D03*
D16*
X139700000Y-116364000D02*
X139700000Y-117348000D01*
X140732000Y-115332000D02*
X139700000Y-116364000D01*
X140732000Y-114300000D02*
X140732000Y-115332000D01*
X134403489Y-121957489D02*
X138938000Y-126492000D01*
X134874000Y-116078000D02*
X134403489Y-116548511D01*
X134403489Y-116548511D02*
X134403489Y-121957489D01*
X138938000Y-126492000D02*
X138938000Y-128270000D01*
X133858000Y-113284000D02*
X133858000Y-122174000D01*
X133858000Y-122174000D02*
X136398000Y-124714000D01*
X136398000Y-124714000D02*
X136398000Y-128270000D01*
X146748000Y-116396000D02*
X147574000Y-115570000D01*
X145324000Y-116396000D02*
X146748000Y-116396000D01*
X142732000Y-114300000D02*
X143446000Y-115014000D01*
X143446000Y-115014000D02*
X143446000Y-116396000D01*
X141732000Y-117172000D02*
X142670000Y-117172000D01*
X142670000Y-117172000D02*
X143446000Y-116396000D01*
X143446000Y-116396000D02*
X145324000Y-116396000D01*
X145324000Y-113474000D02*
X144880000Y-113030000D01*
X139192000Y-113030000D02*
X137668000Y-114554000D01*
X144880000Y-113030000D02*
X139192000Y-113030000D01*
X137668000Y-114554000D02*
X137668000Y-117172000D01*
X135128000Y-118618000D02*
X136574000Y-117172000D01*
X136574000Y-117172000D02*
X137668000Y-117172000D01*
X139192000Y-122936000D02*
X138618000Y-122362000D01*
X138618000Y-122362000D02*
X138618000Y-120572000D01*
X146558000Y-122428000D02*
X143764000Y-122428000D01*
X147320000Y-123190000D02*
X146558000Y-122428000D01*
X143764000Y-122428000D02*
X142682000Y-121346000D01*
X142682000Y-121346000D02*
X142682000Y-120572000D01*
G04 #@! TA.AperFunction,Conductor*
G36*
X151072121Y-102636002D02*
G01*
X151118614Y-102689658D01*
X151130000Y-102742000D01*
X151130000Y-104257240D01*
X151109998Y-104325361D01*
X151056342Y-104371854D01*
X150986068Y-104381958D01*
X150921488Y-104352464D01*
X150903174Y-104332805D01*
X150892285Y-104318276D01*
X150879724Y-104305715D01*
X150777649Y-104229214D01*
X150762054Y-104220676D01*
X150641606Y-104175522D01*
X150626351Y-104171895D01*
X150575486Y-104166369D01*
X150568672Y-104166000D01*
X150096115Y-104166000D01*
X150080876Y-104170475D01*
X150079671Y-104171865D01*
X150078000Y-104179548D01*
X150078000Y-106763884D01*
X150082475Y-106779123D01*
X150083865Y-106780328D01*
X150091548Y-106781999D01*
X150568669Y-106781999D01*
X150575490Y-106781629D01*
X150626352Y-106776105D01*
X150641604Y-106772479D01*
X150762054Y-106727324D01*
X150777649Y-106718786D01*
X150879724Y-106642285D01*
X150892285Y-106629724D01*
X150903174Y-106615195D01*
X150960033Y-106572680D01*
X151030852Y-106567654D01*
X151093145Y-106601714D01*
X151127135Y-106664045D01*
X151130000Y-106690760D01*
X151130000Y-112257240D01*
X151109998Y-112325361D01*
X151056342Y-112371854D01*
X150986068Y-112381958D01*
X150921488Y-112352464D01*
X150903174Y-112332805D01*
X150892285Y-112318276D01*
X150879724Y-112305715D01*
X150777649Y-112229214D01*
X150762054Y-112220676D01*
X150641606Y-112175522D01*
X150626351Y-112171895D01*
X150575486Y-112166369D01*
X150568672Y-112166000D01*
X150096115Y-112166000D01*
X150080876Y-112170475D01*
X150079671Y-112171865D01*
X150078000Y-112179548D01*
X150078000Y-114763884D01*
X150082475Y-114779123D01*
X150083865Y-114780328D01*
X150091548Y-114781999D01*
X150568669Y-114781999D01*
X150575490Y-114781629D01*
X150626352Y-114776105D01*
X150641604Y-114772479D01*
X150762054Y-114727324D01*
X150777649Y-114718786D01*
X150879724Y-114642285D01*
X150892285Y-114629724D01*
X150903174Y-114615195D01*
X150960033Y-114572680D01*
X151030852Y-114567654D01*
X151093145Y-114601714D01*
X151127135Y-114664045D01*
X151130000Y-114690760D01*
X151130000Y-115179240D01*
X151109998Y-115247361D01*
X151056342Y-115293854D01*
X150986068Y-115303958D01*
X150921488Y-115274464D01*
X150903174Y-115254805D01*
X150892285Y-115240276D01*
X150879724Y-115227715D01*
X150777649Y-115151214D01*
X150762054Y-115142676D01*
X150641606Y-115097522D01*
X150626351Y-115093895D01*
X150575486Y-115088369D01*
X150568672Y-115088000D01*
X150096115Y-115088000D01*
X150080876Y-115092475D01*
X150079671Y-115093865D01*
X150078000Y-115101548D01*
X150078000Y-117685884D01*
X150082475Y-117701123D01*
X150083865Y-117702328D01*
X150091548Y-117703999D01*
X150568669Y-117703999D01*
X150575490Y-117703629D01*
X150626352Y-117698105D01*
X150641604Y-117694479D01*
X150762054Y-117649324D01*
X150777649Y-117640786D01*
X150879724Y-117564285D01*
X150892285Y-117551724D01*
X150903174Y-117537195D01*
X150960033Y-117494680D01*
X151030852Y-117489654D01*
X151093145Y-117523714D01*
X151127135Y-117586045D01*
X151130000Y-117612760D01*
X151130000Y-123179240D01*
X151109998Y-123247361D01*
X151056342Y-123293854D01*
X150986068Y-123303958D01*
X150921488Y-123274464D01*
X150903174Y-123254805D01*
X150892285Y-123240276D01*
X150879724Y-123227715D01*
X150777649Y-123151214D01*
X150762054Y-123142676D01*
X150641606Y-123097522D01*
X150626351Y-123093895D01*
X150575486Y-123088369D01*
X150568672Y-123088000D01*
X150096115Y-123088000D01*
X150080876Y-123092475D01*
X150079671Y-123093865D01*
X150078000Y-123101548D01*
X150078000Y-125685884D01*
X150082475Y-125701123D01*
X150083865Y-125702328D01*
X150091548Y-125703999D01*
X150568669Y-125703999D01*
X150575490Y-125703629D01*
X150626352Y-125698105D01*
X150641604Y-125694479D01*
X150762054Y-125649324D01*
X150777649Y-125640786D01*
X150879724Y-125564285D01*
X150892285Y-125551724D01*
X150903174Y-125537195D01*
X150960033Y-125494680D01*
X151030852Y-125489654D01*
X151093145Y-125523714D01*
X151127135Y-125586045D01*
X151130000Y-125612760D01*
X151130000Y-129160000D01*
X151109998Y-129228121D01*
X151056342Y-129274614D01*
X151004000Y-129286000D01*
X150285956Y-129286000D01*
X150217835Y-129265998D01*
X150171342Y-129212342D01*
X150161238Y-129142068D01*
X150183633Y-129086474D01*
X150263009Y-128976011D01*
X150268313Y-128967183D01*
X150362670Y-128776267D01*
X150366469Y-128766672D01*
X150428377Y-128562910D01*
X150430555Y-128552837D01*
X150431986Y-128541962D01*
X150429775Y-128527778D01*
X150416617Y-128524000D01*
X148970000Y-128524000D01*
X148901879Y-128503998D01*
X148855386Y-128450342D01*
X148844000Y-128398000D01*
X148844000Y-127997885D01*
X149352000Y-127997885D01*
X149356475Y-128013124D01*
X149357865Y-128014329D01*
X149365548Y-128016000D01*
X150416344Y-128016000D01*
X150429875Y-128012027D01*
X150431180Y-128002947D01*
X150389214Y-127835875D01*
X150385894Y-127826124D01*
X150300972Y-127630814D01*
X150296105Y-127621739D01*
X150180426Y-127442926D01*
X150174136Y-127434757D01*
X150030806Y-127277240D01*
X150023273Y-127270215D01*
X149856139Y-127138222D01*
X149847552Y-127132517D01*
X149661117Y-127029599D01*
X149651705Y-127025369D01*
X149450959Y-126954280D01*
X149440988Y-126951646D01*
X149369837Y-126938972D01*
X149356540Y-126940432D01*
X149352000Y-126954989D01*
X149352000Y-127997885D01*
X148844000Y-127997885D01*
X148844000Y-126953102D01*
X148840082Y-126939758D01*
X148825806Y-126937771D01*
X148787324Y-126943660D01*
X148777288Y-126946051D01*
X148574868Y-127012212D01*
X148565359Y-127016209D01*
X148376463Y-127114542D01*
X148367738Y-127120036D01*
X148197433Y-127247905D01*
X148189726Y-127254748D01*
X148042590Y-127408717D01*
X148036104Y-127416727D01*
X147916098Y-127592649D01*
X147911000Y-127601623D01*
X147821338Y-127794783D01*
X147817777Y-127804464D01*
X147813291Y-127820640D01*
X147775813Y-127880939D01*
X147711684Y-127911403D01*
X147641266Y-127902360D01*
X147586915Y-127856682D01*
X147578867Y-127842698D01*
X147506331Y-127695609D01*
X147503776Y-127690428D01*
X147382320Y-127527779D01*
X147233258Y-127389987D01*
X147228375Y-127386906D01*
X147228371Y-127386903D01*
X147066464Y-127284748D01*
X147061581Y-127281667D01*
X146873039Y-127206446D01*
X146867379Y-127205320D01*
X146867375Y-127205319D01*
X146679613Y-127167971D01*
X146679610Y-127167971D01*
X146673946Y-127166844D01*
X146668171Y-127166768D01*
X146668167Y-127166768D01*
X146566793Y-127165441D01*
X146470971Y-127164187D01*
X146465274Y-127165166D01*
X146465273Y-127165166D01*
X146377397Y-127180266D01*
X146270910Y-127198564D01*
X146080463Y-127268824D01*
X145906010Y-127372612D01*
X145901670Y-127376418D01*
X145901666Y-127376421D01*
X145757733Y-127502648D01*
X145753392Y-127506455D01*
X145627720Y-127665869D01*
X145625031Y-127670980D01*
X145625029Y-127670983D01*
X145612073Y-127695609D01*
X145533203Y-127845515D01*
X145473007Y-128039378D01*
X145449148Y-128240964D01*
X145462424Y-128443522D01*
X145463845Y-128449118D01*
X145463846Y-128449123D01*
X145484119Y-128528945D01*
X145512392Y-128640269D01*
X145514809Y-128645512D01*
X145552010Y-128726208D01*
X145597377Y-128824616D01*
X145600710Y-128829332D01*
X145704372Y-128976011D01*
X145714533Y-128990389D01*
X145718675Y-128994424D01*
X145795996Y-129069746D01*
X145830834Y-129131607D01*
X145826697Y-129202483D01*
X145784898Y-129259871D01*
X145718709Y-129285550D01*
X145708075Y-129286000D01*
X144872357Y-129286000D01*
X144804236Y-129265998D01*
X144757743Y-129212342D01*
X144747639Y-129142068D01*
X144777133Y-129077488D01*
X144791788Y-129063126D01*
X144797908Y-129058036D01*
X144797913Y-129058031D01*
X144802345Y-129054345D01*
X144932147Y-128898276D01*
X145031334Y-128721165D01*
X145033190Y-128715698D01*
X145033192Y-128715693D01*
X145094728Y-128534414D01*
X145094729Y-128534409D01*
X145096584Y-128528945D01*
X145097412Y-128523236D01*
X145097413Y-128523231D01*
X145125179Y-128331727D01*
X145125712Y-128328053D01*
X145127232Y-128270000D01*
X145108658Y-128067859D01*
X145107090Y-128062299D01*
X145055125Y-127878046D01*
X145055124Y-127878044D01*
X145053557Y-127872487D01*
X145042978Y-127851033D01*
X144966331Y-127695609D01*
X144963776Y-127690428D01*
X144842320Y-127527779D01*
X144693258Y-127389987D01*
X144688375Y-127386906D01*
X144688371Y-127386903D01*
X144526464Y-127284748D01*
X144521581Y-127281667D01*
X144333039Y-127206446D01*
X144327379Y-127205320D01*
X144327375Y-127205319D01*
X144139613Y-127167971D01*
X144139610Y-127167971D01*
X144133946Y-127166844D01*
X144128171Y-127166768D01*
X144128167Y-127166768D01*
X144026793Y-127165441D01*
X143930971Y-127164187D01*
X143925274Y-127165166D01*
X143925273Y-127165166D01*
X143837397Y-127180266D01*
X143730910Y-127198564D01*
X143540463Y-127268824D01*
X143366010Y-127372612D01*
X143361670Y-127376418D01*
X143361666Y-127376421D01*
X143217733Y-127502648D01*
X143213392Y-127506455D01*
X143087720Y-127665869D01*
X143085031Y-127670980D01*
X143085029Y-127670983D01*
X143072073Y-127695609D01*
X142993203Y-127845515D01*
X142933007Y-128039378D01*
X142909148Y-128240964D01*
X142922424Y-128443522D01*
X142923845Y-128449118D01*
X142923846Y-128449123D01*
X142944119Y-128528945D01*
X142972392Y-128640269D01*
X142974809Y-128645512D01*
X143012010Y-128726208D01*
X143057377Y-128824616D01*
X143060710Y-128829332D01*
X143164372Y-128976011D01*
X143174533Y-128990389D01*
X143178675Y-128994424D01*
X143255996Y-129069746D01*
X143290834Y-129131607D01*
X143286697Y-129202483D01*
X143244898Y-129259871D01*
X143178709Y-129285550D01*
X143168075Y-129286000D01*
X142332357Y-129286000D01*
X142264236Y-129265998D01*
X142217743Y-129212342D01*
X142207639Y-129142068D01*
X142237133Y-129077488D01*
X142251788Y-129063126D01*
X142257908Y-129058036D01*
X142257913Y-129058031D01*
X142262345Y-129054345D01*
X142392147Y-128898276D01*
X142491334Y-128721165D01*
X142493190Y-128715698D01*
X142493192Y-128715693D01*
X142554728Y-128534414D01*
X142554729Y-128534409D01*
X142556584Y-128528945D01*
X142557412Y-128523236D01*
X142557413Y-128523231D01*
X142585179Y-128331727D01*
X142585712Y-128328053D01*
X142587232Y-128270000D01*
X142568658Y-128067859D01*
X142567090Y-128062299D01*
X142515125Y-127878046D01*
X142515124Y-127878044D01*
X142513557Y-127872487D01*
X142502978Y-127851033D01*
X142426331Y-127695609D01*
X142423776Y-127690428D01*
X142302320Y-127527779D01*
X142153258Y-127389987D01*
X142148375Y-127386906D01*
X142148371Y-127386903D01*
X141986464Y-127284748D01*
X141981581Y-127281667D01*
X141793039Y-127206446D01*
X141787379Y-127205320D01*
X141787375Y-127205319D01*
X141599613Y-127167971D01*
X141599610Y-127167971D01*
X141593946Y-127166844D01*
X141588171Y-127166768D01*
X141588167Y-127166768D01*
X141486793Y-127165441D01*
X141390971Y-127164187D01*
X141385274Y-127165166D01*
X141385273Y-127165166D01*
X141297397Y-127180266D01*
X141190910Y-127198564D01*
X141000463Y-127268824D01*
X140826010Y-127372612D01*
X140821670Y-127376418D01*
X140821666Y-127376421D01*
X140677733Y-127502648D01*
X140673392Y-127506455D01*
X140547720Y-127665869D01*
X140545031Y-127670980D01*
X140545029Y-127670983D01*
X140532073Y-127695609D01*
X140453203Y-127845515D01*
X140393007Y-128039378D01*
X140369148Y-128240964D01*
X140382424Y-128443522D01*
X140383845Y-128449118D01*
X140383846Y-128449123D01*
X140404119Y-128528945D01*
X140432392Y-128640269D01*
X140434809Y-128645512D01*
X140472010Y-128726208D01*
X140517377Y-128824616D01*
X140520710Y-128829332D01*
X140624372Y-128976011D01*
X140634533Y-128990389D01*
X140638675Y-128994424D01*
X140715996Y-129069746D01*
X140750834Y-129131607D01*
X140746697Y-129202483D01*
X140704898Y-129259871D01*
X140638709Y-129285550D01*
X140628075Y-129286000D01*
X139792357Y-129286000D01*
X139724236Y-129265998D01*
X139677743Y-129212342D01*
X139667639Y-129142068D01*
X139697133Y-129077488D01*
X139711788Y-129063126D01*
X139717908Y-129058036D01*
X139717913Y-129058031D01*
X139722345Y-129054345D01*
X139852147Y-128898276D01*
X139951334Y-128721165D01*
X139953190Y-128715698D01*
X139953192Y-128715693D01*
X140014728Y-128534414D01*
X140014729Y-128534409D01*
X140016584Y-128528945D01*
X140017412Y-128523236D01*
X140017413Y-128523231D01*
X140045179Y-128331727D01*
X140045712Y-128328053D01*
X140047232Y-128270000D01*
X140028658Y-128067859D01*
X140027090Y-128062299D01*
X139975125Y-127878046D01*
X139975124Y-127878044D01*
X139973557Y-127872487D01*
X139962978Y-127851033D01*
X139886331Y-127695609D01*
X139883776Y-127690428D01*
X139762320Y-127527779D01*
X139613258Y-127389987D01*
X139608375Y-127386906D01*
X139608371Y-127386903D01*
X139446464Y-127284748D01*
X139441581Y-127281667D01*
X139396810Y-127263805D01*
X139340951Y-127219985D01*
X139317500Y-127146775D01*
X139317500Y-126545920D01*
X139320049Y-126521972D01*
X139320128Y-126520307D01*
X139322320Y-126510124D01*
X139318373Y-126476777D01*
X139318023Y-126470846D01*
X139317928Y-126470854D01*
X139317500Y-126465676D01*
X139317500Y-126460476D01*
X139316518Y-126454575D01*
X139314331Y-126441435D01*
X139313494Y-126435557D01*
X139308694Y-126394999D01*
X139308694Y-126394998D01*
X139307470Y-126384659D01*
X139303507Y-126376407D01*
X139302004Y-126367374D01*
X139277665Y-126322266D01*
X139274969Y-126316975D01*
X139256215Y-126277918D01*
X139256212Y-126277914D01*
X139252781Y-126270768D01*
X139249186Y-126266492D01*
X139247263Y-126264569D01*
X139245491Y-126262637D01*
X139245448Y-126262558D01*
X139245572Y-126262445D01*
X139245096Y-126261905D01*
X139242010Y-126256186D01*
X139202413Y-126219583D01*
X139198848Y-126216154D01*
X134819894Y-121837200D01*
X134785868Y-121774888D01*
X134782989Y-121748105D01*
X134782989Y-121616669D01*
X135860001Y-121616669D01*
X135860371Y-121623490D01*
X135865895Y-121674352D01*
X135869521Y-121689604D01*
X135914676Y-121810054D01*
X135923214Y-121825649D01*
X135999715Y-121927724D01*
X136012276Y-121940285D01*
X136114351Y-122016786D01*
X136129946Y-122025324D01*
X136250394Y-122070478D01*
X136265649Y-122074105D01*
X136316514Y-122079631D01*
X136323328Y-122080000D01*
X136445885Y-122080000D01*
X136461124Y-122075525D01*
X136462329Y-122074135D01*
X136464000Y-122066452D01*
X136464000Y-122061884D01*
X136972000Y-122061884D01*
X136976475Y-122077123D01*
X136977865Y-122078328D01*
X136985548Y-122079999D01*
X137112669Y-122079999D01*
X137119490Y-122079629D01*
X137170352Y-122074105D01*
X137185604Y-122070479D01*
X137306054Y-122025324D01*
X137321649Y-122016786D01*
X137423724Y-121940285D01*
X137436285Y-121927724D01*
X137512786Y-121825649D01*
X137521324Y-121810054D01*
X137566478Y-121689606D01*
X137570105Y-121674351D01*
X137575631Y-121623486D01*
X137576000Y-121616672D01*
X137576000Y-120844115D01*
X137571525Y-120828876D01*
X137570135Y-120827671D01*
X137562452Y-120826000D01*
X136990115Y-120826000D01*
X136974876Y-120830475D01*
X136973671Y-120831865D01*
X136972000Y-120839548D01*
X136972000Y-122061884D01*
X136464000Y-122061884D01*
X136464000Y-120844115D01*
X136459525Y-120828876D01*
X136458135Y-120827671D01*
X136450452Y-120826000D01*
X135878116Y-120826000D01*
X135862877Y-120830475D01*
X135861672Y-120831865D01*
X135860001Y-120839548D01*
X135860001Y-121616669D01*
X134782989Y-121616669D01*
X134782989Y-120299885D01*
X135860000Y-120299885D01*
X135864475Y-120315124D01*
X135865865Y-120316329D01*
X135873548Y-120318000D01*
X136445885Y-120318000D01*
X136461124Y-120313525D01*
X136462329Y-120312135D01*
X136464000Y-120304452D01*
X136464000Y-120299885D01*
X136972000Y-120299885D01*
X136976475Y-120315124D01*
X136977865Y-120316329D01*
X136985548Y-120318000D01*
X137557884Y-120318000D01*
X137573123Y-120313525D01*
X137574328Y-120312135D01*
X137575999Y-120304452D01*
X137575999Y-119546933D01*
X138013500Y-119546933D01*
X138013501Y-121597066D01*
X138028266Y-121671301D01*
X138084516Y-121755484D01*
X138165026Y-121809279D01*
X138165025Y-121809279D01*
X138168699Y-121811734D01*
X138168479Y-121812063D01*
X138215997Y-121850353D01*
X138238500Y-121922216D01*
X138238500Y-122308080D01*
X138235951Y-122332028D01*
X138235872Y-122333693D01*
X138233680Y-122343876D01*
X138234904Y-122354217D01*
X138237627Y-122377223D01*
X138237977Y-122383154D01*
X138238072Y-122383146D01*
X138238500Y-122388324D01*
X138238500Y-122393524D01*
X138239354Y-122398653D01*
X138239354Y-122398656D01*
X138241669Y-122412565D01*
X138242506Y-122418443D01*
X138246014Y-122448079D01*
X138248530Y-122469341D01*
X138252493Y-122477593D01*
X138253996Y-122486626D01*
X138258943Y-122495795D01*
X138258944Y-122495797D01*
X138278334Y-122531732D01*
X138281031Y-122537025D01*
X138299785Y-122576082D01*
X138299788Y-122576086D01*
X138303219Y-122583232D01*
X138306814Y-122587508D01*
X138308737Y-122589431D01*
X138310509Y-122591363D01*
X138310552Y-122591442D01*
X138310428Y-122591555D01*
X138310904Y-122592095D01*
X138313990Y-122597814D01*
X138321635Y-122604881D01*
X138353586Y-122634416D01*
X138357152Y-122637846D01*
X138502249Y-122782943D01*
X138536275Y-122845255D01*
X138538076Y-122888482D01*
X138532729Y-122929096D01*
X138550113Y-123086553D01*
X138552723Y-123093684D01*
X138552723Y-123093686D01*
X138589482Y-123194134D01*
X138604553Y-123235319D01*
X138608789Y-123241622D01*
X138608789Y-123241623D01*
X138684199Y-123353844D01*
X138692908Y-123366805D01*
X138698527Y-123371918D01*
X138698528Y-123371919D01*
X138743144Y-123412516D01*
X138810076Y-123473419D01*
X138949293Y-123549008D01*
X139102522Y-123589207D01*
X139186477Y-123590526D01*
X139253319Y-123591576D01*
X139253322Y-123591576D01*
X139260916Y-123591695D01*
X139351568Y-123570933D01*
X144369500Y-123570933D01*
X144369501Y-125221066D01*
X144384266Y-125295301D01*
X144440516Y-125379484D01*
X144524699Y-125435734D01*
X144598933Y-125450500D01*
X145323882Y-125450500D01*
X146049066Y-125450499D01*
X146084818Y-125443388D01*
X146111126Y-125438156D01*
X146111128Y-125438155D01*
X146123301Y-125435734D01*
X146133621Y-125428839D01*
X146133622Y-125428838D01*
X146197168Y-125386377D01*
X146207484Y-125379484D01*
X146263734Y-125295301D01*
X146274601Y-125240669D01*
X148616001Y-125240669D01*
X148616371Y-125247490D01*
X148621895Y-125298352D01*
X148625521Y-125313604D01*
X148670676Y-125434054D01*
X148679214Y-125449649D01*
X148755715Y-125551724D01*
X148768276Y-125564285D01*
X148870351Y-125640786D01*
X148885946Y-125649324D01*
X149006394Y-125694478D01*
X149021649Y-125698105D01*
X149072514Y-125703631D01*
X149079328Y-125704000D01*
X149551885Y-125704000D01*
X149567124Y-125699525D01*
X149568329Y-125698135D01*
X149570000Y-125690452D01*
X149570000Y-124668115D01*
X149565525Y-124652876D01*
X149564135Y-124651671D01*
X149556452Y-124650000D01*
X148634116Y-124650000D01*
X148618877Y-124654475D01*
X148617672Y-124655865D01*
X148616001Y-124663548D01*
X148616001Y-125240669D01*
X146274601Y-125240669D01*
X146278500Y-125221067D01*
X146278499Y-124123885D01*
X148616000Y-124123885D01*
X148620475Y-124139124D01*
X148621865Y-124140329D01*
X148629548Y-124142000D01*
X149551885Y-124142000D01*
X149567124Y-124137525D01*
X149568329Y-124136135D01*
X149570000Y-124128452D01*
X149570000Y-123106116D01*
X149565525Y-123090877D01*
X149564135Y-123089672D01*
X149556452Y-123088001D01*
X149079331Y-123088001D01*
X149072510Y-123088371D01*
X149021648Y-123093895D01*
X149006396Y-123097521D01*
X148885946Y-123142676D01*
X148870351Y-123151214D01*
X148768276Y-123227715D01*
X148755715Y-123240276D01*
X148679214Y-123342351D01*
X148670676Y-123357946D01*
X148625522Y-123478394D01*
X148621895Y-123493649D01*
X148616369Y-123544514D01*
X148616000Y-123551328D01*
X148616000Y-124123885D01*
X146278499Y-124123885D01*
X146278499Y-123570934D01*
X146263734Y-123496699D01*
X146250600Y-123477042D01*
X146214377Y-123422832D01*
X146207484Y-123412516D01*
X146146727Y-123371919D01*
X146133620Y-123363161D01*
X146123301Y-123356266D01*
X146049067Y-123341500D01*
X145324118Y-123341500D01*
X144598934Y-123341501D01*
X144563182Y-123348612D01*
X144536874Y-123353844D01*
X144536872Y-123353845D01*
X144524699Y-123356266D01*
X144514379Y-123363161D01*
X144514378Y-123363162D01*
X144453985Y-123403516D01*
X144440516Y-123412516D01*
X144384266Y-123496699D01*
X144369500Y-123570933D01*
X139351568Y-123570933D01*
X139415332Y-123556329D01*
X139512172Y-123507624D01*
X139550072Y-123488563D01*
X139550075Y-123488561D01*
X139556855Y-123485151D01*
X139562626Y-123480222D01*
X139562629Y-123480220D01*
X139671536Y-123387204D01*
X139671536Y-123387203D01*
X139677314Y-123382269D01*
X139769755Y-123253624D01*
X139828842Y-123106641D01*
X139851162Y-122949807D01*
X139851307Y-122936000D01*
X139849561Y-122921567D01*
X139845557Y-122888485D01*
X139832276Y-122778733D01*
X139776280Y-122630546D01*
X139716306Y-122543283D01*
X139690855Y-122506251D01*
X139690854Y-122506249D01*
X139686553Y-122499992D01*
X139568275Y-122394611D01*
X139546622Y-122383146D01*
X139434988Y-122324039D01*
X139434989Y-122324039D01*
X139428274Y-122320484D01*
X139274633Y-122281892D01*
X139267034Y-122281852D01*
X139267033Y-122281852D01*
X139206626Y-122281536D01*
X139125335Y-122281110D01*
X139057321Y-122260752D01*
X139036901Y-122244207D01*
X139034405Y-122241711D01*
X139000379Y-122179399D01*
X138997500Y-122152616D01*
X138997500Y-121922216D01*
X139017502Y-121854095D01*
X139067620Y-121812212D01*
X139067301Y-121811734D01*
X139071744Y-121808765D01*
X139151484Y-121755484D01*
X139207734Y-121671301D01*
X139218601Y-121616669D01*
X139924001Y-121616669D01*
X139924371Y-121623490D01*
X139929895Y-121674352D01*
X139933521Y-121689604D01*
X139978676Y-121810054D01*
X139987214Y-121825649D01*
X140063715Y-121927724D01*
X140076276Y-121940285D01*
X140178351Y-122016786D01*
X140193946Y-122025324D01*
X140314394Y-122070478D01*
X140329649Y-122074105D01*
X140380514Y-122079631D01*
X140387328Y-122080000D01*
X140509885Y-122080000D01*
X140525124Y-122075525D01*
X140526329Y-122074135D01*
X140528000Y-122066452D01*
X140528000Y-122061884D01*
X141036000Y-122061884D01*
X141040475Y-122077123D01*
X141041865Y-122078328D01*
X141049548Y-122079999D01*
X141176669Y-122079999D01*
X141183490Y-122079629D01*
X141234352Y-122074105D01*
X141249604Y-122070479D01*
X141370054Y-122025324D01*
X141385649Y-122016786D01*
X141487724Y-121940285D01*
X141500285Y-121927724D01*
X141576786Y-121825649D01*
X141585324Y-121810054D01*
X141630478Y-121689606D01*
X141634105Y-121674351D01*
X141639631Y-121623486D01*
X141640000Y-121616672D01*
X141640000Y-120844115D01*
X141635525Y-120828876D01*
X141634135Y-120827671D01*
X141626452Y-120826000D01*
X141054115Y-120826000D01*
X141038876Y-120830475D01*
X141037671Y-120831865D01*
X141036000Y-120839548D01*
X141036000Y-122061884D01*
X140528000Y-122061884D01*
X140528000Y-120844115D01*
X140523525Y-120828876D01*
X140522135Y-120827671D01*
X140514452Y-120826000D01*
X139942116Y-120826000D01*
X139926877Y-120830475D01*
X139925672Y-120831865D01*
X139924001Y-120839548D01*
X139924001Y-121616669D01*
X139218601Y-121616669D01*
X139222500Y-121597067D01*
X139222499Y-120299885D01*
X139924000Y-120299885D01*
X139928475Y-120315124D01*
X139929865Y-120316329D01*
X139937548Y-120318000D01*
X140509885Y-120318000D01*
X140525124Y-120313525D01*
X140526329Y-120312135D01*
X140528000Y-120304452D01*
X140528000Y-120299885D01*
X141036000Y-120299885D01*
X141040475Y-120315124D01*
X141041865Y-120316329D01*
X141049548Y-120318000D01*
X141621884Y-120318000D01*
X141637123Y-120313525D01*
X141638328Y-120312135D01*
X141639999Y-120304452D01*
X141639999Y-119546933D01*
X142077500Y-119546933D01*
X142077501Y-121597066D01*
X142092266Y-121671301D01*
X142148516Y-121755484D01*
X142232699Y-121811734D01*
X142306933Y-121826500D01*
X142573616Y-121826500D01*
X142641737Y-121846502D01*
X142662711Y-121863405D01*
X143457522Y-122658216D01*
X143472664Y-122676964D01*
X143473779Y-122678189D01*
X143479429Y-122686940D01*
X143487607Y-122693387D01*
X143487609Y-122693389D01*
X143505800Y-122707729D01*
X143510241Y-122711675D01*
X143510303Y-122711602D01*
X143514267Y-122714961D01*
X143517944Y-122718638D01*
X143533692Y-122729892D01*
X143538362Y-122733398D01*
X143578647Y-122765156D01*
X143587281Y-122768188D01*
X143594734Y-122773514D01*
X143643850Y-122788203D01*
X143649492Y-122790036D01*
X143690367Y-122804390D01*
X143697851Y-122807018D01*
X143703416Y-122807500D01*
X143706124Y-122807500D01*
X143708758Y-122807614D01*
X143708856Y-122807643D01*
X143708849Y-122807807D01*
X143709553Y-122807851D01*
X143715778Y-122809713D01*
X143769635Y-122807597D01*
X143774582Y-122807500D01*
X146348616Y-122807500D01*
X146416737Y-122827502D01*
X146437711Y-122844405D01*
X146630249Y-123036943D01*
X146664275Y-123099255D01*
X146666076Y-123142482D01*
X146660729Y-123183096D01*
X146665655Y-123227715D01*
X146674073Y-123303958D01*
X146678113Y-123340553D01*
X146680723Y-123347684D01*
X146680723Y-123347686D01*
X146724865Y-123468309D01*
X146732553Y-123489319D01*
X146736789Y-123495622D01*
X146736789Y-123495623D01*
X146783317Y-123564863D01*
X146820908Y-123620805D01*
X146826527Y-123625918D01*
X146826528Y-123625919D01*
X146837903Y-123636269D01*
X146938076Y-123727419D01*
X147077293Y-123803008D01*
X147230522Y-123843207D01*
X147314477Y-123844526D01*
X147381319Y-123845576D01*
X147381322Y-123845576D01*
X147388916Y-123845695D01*
X147543332Y-123810329D01*
X147613742Y-123774917D01*
X147678072Y-123742563D01*
X147678075Y-123742561D01*
X147684855Y-123739151D01*
X147690626Y-123734222D01*
X147690629Y-123734220D01*
X147799536Y-123641204D01*
X147799536Y-123641203D01*
X147805314Y-123636269D01*
X147897755Y-123507624D01*
X147956842Y-123360641D01*
X147979162Y-123203807D01*
X147979307Y-123190000D01*
X147977561Y-123175567D01*
X147970073Y-123113695D01*
X147960276Y-123032733D01*
X147904280Y-122884546D01*
X147865075Y-122827502D01*
X147818855Y-122760251D01*
X147818854Y-122760249D01*
X147814553Y-122753992D01*
X147696275Y-122648611D01*
X147675572Y-122637649D01*
X147604027Y-122599768D01*
X147556274Y-122574484D01*
X147402633Y-122535892D01*
X147395034Y-122535852D01*
X147395033Y-122535852D01*
X147334626Y-122535536D01*
X147253335Y-122535110D01*
X147185321Y-122514752D01*
X147164901Y-122498207D01*
X146864478Y-122197784D01*
X146849336Y-122179036D01*
X146848221Y-122177811D01*
X146842571Y-122169060D01*
X146834393Y-122162613D01*
X146834391Y-122162611D01*
X146816200Y-122148271D01*
X146811759Y-122144325D01*
X146811697Y-122144398D01*
X146807733Y-122141039D01*
X146804056Y-122137362D01*
X146788308Y-122126108D01*
X146783638Y-122122602D01*
X146743353Y-122090844D01*
X146734719Y-122087812D01*
X146727266Y-122082486D01*
X146678150Y-122067797D01*
X146672508Y-122065964D01*
X146631633Y-122051610D01*
X146631632Y-122051610D01*
X146624149Y-122048982D01*
X146618584Y-122048500D01*
X146615876Y-122048500D01*
X146613242Y-122048386D01*
X146613144Y-122048357D01*
X146613151Y-122048193D01*
X146612447Y-122048149D01*
X146606222Y-122046287D01*
X146552365Y-122048403D01*
X146547418Y-122048500D01*
X143973384Y-122048500D01*
X143905263Y-122028498D01*
X143884289Y-122011595D01*
X143323405Y-121450711D01*
X143289379Y-121388399D01*
X143286500Y-121361616D01*
X143286499Y-119553123D01*
X143286499Y-119546934D01*
X143271734Y-119472699D01*
X143215484Y-119388516D01*
X143131301Y-119332266D01*
X143057067Y-119317500D01*
X142682061Y-119317500D01*
X142306934Y-119317501D01*
X142271182Y-119324612D01*
X142244874Y-119329844D01*
X142244872Y-119329845D01*
X142232699Y-119332266D01*
X142222379Y-119339161D01*
X142222378Y-119339162D01*
X142179985Y-119367489D01*
X142148516Y-119388516D01*
X142092266Y-119472699D01*
X142077500Y-119546933D01*
X141639999Y-119546933D01*
X141639999Y-119527331D01*
X141639629Y-119520510D01*
X141634105Y-119469648D01*
X141630479Y-119454396D01*
X141585324Y-119333946D01*
X141576786Y-119318351D01*
X141500285Y-119216276D01*
X141487724Y-119203715D01*
X141385649Y-119127214D01*
X141370054Y-119118676D01*
X141249606Y-119073522D01*
X141234351Y-119069895D01*
X141183486Y-119064369D01*
X141176672Y-119064000D01*
X141054115Y-119064000D01*
X141038876Y-119068475D01*
X141037671Y-119069865D01*
X141036000Y-119077548D01*
X141036000Y-120299885D01*
X140528000Y-120299885D01*
X140528000Y-119082116D01*
X140523525Y-119066877D01*
X140522135Y-119065672D01*
X140514452Y-119064001D01*
X140387331Y-119064001D01*
X140380510Y-119064371D01*
X140329648Y-119069895D01*
X140314396Y-119073521D01*
X140193946Y-119118676D01*
X140178351Y-119127214D01*
X140076276Y-119203715D01*
X140063715Y-119216276D01*
X139987214Y-119318351D01*
X139978676Y-119333946D01*
X139933522Y-119454394D01*
X139929895Y-119469649D01*
X139924369Y-119520514D01*
X139924000Y-119527328D01*
X139924000Y-120299885D01*
X139222499Y-120299885D01*
X139222499Y-119546934D01*
X139207734Y-119472699D01*
X139151484Y-119388516D01*
X139067301Y-119332266D01*
X138993067Y-119317500D01*
X138618061Y-119317500D01*
X138242934Y-119317501D01*
X138207182Y-119324612D01*
X138180874Y-119329844D01*
X138180872Y-119329845D01*
X138168699Y-119332266D01*
X138158379Y-119339161D01*
X138158378Y-119339162D01*
X138115985Y-119367489D01*
X138084516Y-119388516D01*
X138028266Y-119472699D01*
X138013500Y-119546933D01*
X137575999Y-119546933D01*
X137575999Y-119527331D01*
X137575629Y-119520510D01*
X137570105Y-119469648D01*
X137566479Y-119454396D01*
X137521324Y-119333946D01*
X137512786Y-119318351D01*
X137436285Y-119216276D01*
X137423724Y-119203715D01*
X137321649Y-119127214D01*
X137306054Y-119118676D01*
X137185606Y-119073522D01*
X137170351Y-119069895D01*
X137119486Y-119064369D01*
X137112672Y-119064000D01*
X136990115Y-119064000D01*
X136974876Y-119068475D01*
X136973671Y-119069865D01*
X136972000Y-119077548D01*
X136972000Y-120299885D01*
X136464000Y-120299885D01*
X136464000Y-119082116D01*
X136459525Y-119066877D01*
X136458135Y-119065672D01*
X136450452Y-119064001D01*
X136323331Y-119064001D01*
X136316510Y-119064371D01*
X136265648Y-119069895D01*
X136250396Y-119073521D01*
X136129946Y-119118676D01*
X136114351Y-119127214D01*
X136012276Y-119203715D01*
X135999715Y-119216276D01*
X135923214Y-119318351D01*
X135914676Y-119333946D01*
X135869522Y-119454394D01*
X135865895Y-119469649D01*
X135860369Y-119520514D01*
X135860000Y-119527328D01*
X135860000Y-120299885D01*
X134782989Y-120299885D01*
X134782989Y-119367489D01*
X134802991Y-119299368D01*
X134856647Y-119252875D01*
X134926921Y-119242771D01*
X134940962Y-119245613D01*
X135031171Y-119269279D01*
X135031175Y-119269280D01*
X135038522Y-119271207D01*
X135122477Y-119272526D01*
X135189319Y-119273576D01*
X135189322Y-119273576D01*
X135196916Y-119273695D01*
X135351332Y-119238329D01*
X135421742Y-119202917D01*
X135486072Y-119170563D01*
X135486075Y-119170561D01*
X135492855Y-119167151D01*
X135498626Y-119162222D01*
X135498629Y-119162220D01*
X135607536Y-119069204D01*
X135607536Y-119069203D01*
X135613314Y-119064269D01*
X135705755Y-118935624D01*
X135764842Y-118788641D01*
X135787162Y-118631807D01*
X135787307Y-118618000D01*
X135781437Y-118569496D01*
X135793109Y-118499468D01*
X135817429Y-118465265D01*
X136694289Y-117588405D01*
X136756601Y-117554379D01*
X136783384Y-117551500D01*
X136937501Y-117551500D01*
X137005622Y-117571502D01*
X137052115Y-117625158D01*
X137063501Y-117677500D01*
X137063501Y-118197066D01*
X137078266Y-118271301D01*
X137134516Y-118355484D01*
X137218699Y-118411734D01*
X137292933Y-118426500D01*
X137667939Y-118426500D01*
X138043066Y-118426499D01*
X138078818Y-118419388D01*
X138105126Y-118414156D01*
X138105128Y-118414155D01*
X138117301Y-118411734D01*
X138127621Y-118404839D01*
X138127622Y-118404838D01*
X138191168Y-118362377D01*
X138201484Y-118355484D01*
X138257734Y-118271301D01*
X138272500Y-118197067D01*
X138272499Y-116146934D01*
X138262347Y-116095891D01*
X138260156Y-116084874D01*
X138260155Y-116084872D01*
X138257734Y-116072699D01*
X138201484Y-115988516D01*
X138117301Y-115932266D01*
X138117521Y-115931937D01*
X138070003Y-115893647D01*
X138047500Y-115821784D01*
X138047500Y-114763384D01*
X138067502Y-114695263D01*
X138084405Y-114674289D01*
X139312290Y-113446405D01*
X139374602Y-113412379D01*
X139401385Y-113409500D01*
X139830912Y-113409500D01*
X139899033Y-113429502D01*
X139945526Y-113483158D01*
X139955630Y-113553432D01*
X139941432Y-113596009D01*
X139940314Y-113598050D01*
X139934929Y-113605236D01*
X139931778Y-113613641D01*
X139931777Y-113613643D01*
X139893854Y-113714805D01*
X139884202Y-113740552D01*
X139877500Y-113802244D01*
X139877500Y-114797756D01*
X139884202Y-114859448D01*
X139886974Y-114866841D01*
X139886974Y-114866843D01*
X139896993Y-114893569D01*
X139934929Y-114994764D01*
X139940309Y-115001943D01*
X139940311Y-115001946D01*
X139989756Y-115067920D01*
X140021596Y-115110404D01*
X140131263Y-115192594D01*
X140173777Y-115249451D01*
X140178803Y-115320270D01*
X140144792Y-115382514D01*
X139469784Y-116057522D01*
X139451036Y-116072664D01*
X139449811Y-116073779D01*
X139441060Y-116079429D01*
X139434613Y-116087607D01*
X139434611Y-116087609D01*
X139420271Y-116105800D01*
X139416325Y-116110241D01*
X139416398Y-116110303D01*
X139413039Y-116114267D01*
X139409362Y-116117944D01*
X139398108Y-116133692D01*
X139394602Y-116138362D01*
X139362844Y-116178647D01*
X139359812Y-116187281D01*
X139354486Y-116194734D01*
X139351501Y-116204715D01*
X139339799Y-116243844D01*
X139337964Y-116249492D01*
X139320982Y-116297851D01*
X139320500Y-116303416D01*
X139320500Y-116306124D01*
X139320386Y-116308758D01*
X139320357Y-116308856D01*
X139320193Y-116308849D01*
X139320149Y-116309553D01*
X139318287Y-116315778D01*
X139318696Y-116326183D01*
X139320403Y-116369635D01*
X139320500Y-116374582D01*
X139320500Y-116753187D01*
X139300498Y-116821308D01*
X139277330Y-116848135D01*
X139210039Y-116906838D01*
X139118950Y-117036444D01*
X139061406Y-117184037D01*
X139060414Y-117191570D01*
X139060414Y-117191571D01*
X139048361Y-117283128D01*
X139040729Y-117341096D01*
X139044967Y-117379484D01*
X139057131Y-117489654D01*
X139058113Y-117498553D01*
X139060723Y-117505684D01*
X139060723Y-117505686D01*
X139090994Y-117588405D01*
X139112553Y-117647319D01*
X139116789Y-117653622D01*
X139116789Y-117653623D01*
X139149518Y-117702328D01*
X139200908Y-117778805D01*
X139206527Y-117783918D01*
X139206528Y-117783919D01*
X139312460Y-117880309D01*
X139318076Y-117885419D01*
X139457293Y-117961008D01*
X139610522Y-118001207D01*
X139694477Y-118002526D01*
X139761319Y-118003576D01*
X139761322Y-118003576D01*
X139768916Y-118003695D01*
X139923332Y-117968329D01*
X140005715Y-117926895D01*
X140058072Y-117900563D01*
X140058075Y-117900561D01*
X140064855Y-117897151D01*
X140070626Y-117892222D01*
X140070629Y-117892220D01*
X140179536Y-117799204D01*
X140179536Y-117799203D01*
X140185314Y-117794269D01*
X140277755Y-117665624D01*
X140336842Y-117518641D01*
X140348296Y-117438156D01*
X140358581Y-117365891D01*
X140358581Y-117365888D01*
X140359162Y-117361807D01*
X140359307Y-117348000D01*
X140340276Y-117190733D01*
X140284280Y-117042546D01*
X140194553Y-116911992D01*
X140121681Y-116847065D01*
X140084126Y-116786816D01*
X140079500Y-116752989D01*
X140079500Y-116573384D01*
X140099502Y-116505263D01*
X140116405Y-116484289D01*
X140962216Y-115638478D01*
X140980964Y-115623336D01*
X140982189Y-115622221D01*
X140990940Y-115616571D01*
X140997387Y-115608393D01*
X140997389Y-115608391D01*
X141011729Y-115590200D01*
X141015678Y-115585756D01*
X141015604Y-115585694D01*
X141018957Y-115581737D01*
X141022638Y-115578056D01*
X141033865Y-115562346D01*
X141037421Y-115557609D01*
X141038672Y-115556023D01*
X141069156Y-115517353D01*
X141072189Y-115508716D01*
X141077513Y-115501266D01*
X141092202Y-115452151D01*
X141094034Y-115446514D01*
X141108390Y-115405633D01*
X141108390Y-115405632D01*
X141111018Y-115398149D01*
X141111500Y-115392584D01*
X141111500Y-115389876D01*
X141111614Y-115387242D01*
X141111643Y-115387144D01*
X141111807Y-115387151D01*
X141111851Y-115386447D01*
X141113713Y-115380222D01*
X141113288Y-115369411D01*
X141113423Y-115368874D01*
X141114610Y-115359481D01*
X141115749Y-115359625D01*
X141130599Y-115300558D01*
X141182387Y-115251994D01*
X141194962Y-115246481D01*
X141245020Y-115227715D01*
X141326764Y-115197071D01*
X141333943Y-115191691D01*
X141333946Y-115191689D01*
X141435224Y-115115785D01*
X141435225Y-115115784D01*
X141442404Y-115110404D01*
X141474244Y-115067920D01*
X141523689Y-115001946D01*
X141523691Y-115001943D01*
X141529071Y-114994764D01*
X141567007Y-114893569D01*
X141577026Y-114866843D01*
X141577026Y-114866841D01*
X141579798Y-114859448D01*
X141586500Y-114797756D01*
X141586500Y-113802244D01*
X141579798Y-113740552D01*
X141570146Y-113714805D01*
X141532223Y-113613643D01*
X141532222Y-113613641D01*
X141529071Y-113605236D01*
X141523686Y-113598050D01*
X141522568Y-113596009D01*
X141507399Y-113526652D01*
X141532135Y-113460104D01*
X141588923Y-113417494D01*
X141633088Y-113409500D01*
X141830912Y-113409500D01*
X141899033Y-113429502D01*
X141945526Y-113483158D01*
X141955630Y-113553432D01*
X141941432Y-113596009D01*
X141940314Y-113598050D01*
X141934929Y-113605236D01*
X141931778Y-113613641D01*
X141931777Y-113613643D01*
X141893854Y-113714805D01*
X141884202Y-113740552D01*
X141877500Y-113802244D01*
X141877500Y-114797756D01*
X141884202Y-114859448D01*
X141886974Y-114866841D01*
X141886974Y-114866843D01*
X141896993Y-114893569D01*
X141934929Y-114994764D01*
X141940309Y-115001943D01*
X141940311Y-115001946D01*
X141989756Y-115067920D01*
X142021596Y-115110404D01*
X142028775Y-115115784D01*
X142028776Y-115115785D01*
X142130054Y-115191689D01*
X142130057Y-115191691D01*
X142137236Y-115197071D01*
X142218980Y-115227715D01*
X142265157Y-115245026D01*
X142265159Y-115245026D01*
X142272552Y-115247798D01*
X142280402Y-115248651D01*
X142280403Y-115248651D01*
X142311176Y-115251994D01*
X142334244Y-115254500D01*
X142940500Y-115254500D01*
X143008621Y-115274502D01*
X143055114Y-115328158D01*
X143066500Y-115380500D01*
X143066500Y-116186616D01*
X143046498Y-116254737D01*
X143029595Y-116275711D01*
X142551594Y-116753712D01*
X142489282Y-116787738D01*
X142418467Y-116782673D01*
X142361631Y-116740126D01*
X142336820Y-116673606D01*
X142336499Y-116664617D01*
X142336499Y-116146934D01*
X142326347Y-116095891D01*
X142324156Y-116084874D01*
X142324155Y-116084872D01*
X142321734Y-116072699D01*
X142265484Y-115988516D01*
X142181301Y-115932266D01*
X142107067Y-115917500D01*
X141732061Y-115917500D01*
X141356934Y-115917501D01*
X141321182Y-115924612D01*
X141294874Y-115929844D01*
X141294872Y-115929845D01*
X141282699Y-115932266D01*
X141272379Y-115939161D01*
X141272378Y-115939162D01*
X141266871Y-115942842D01*
X141198516Y-115988516D01*
X141142266Y-116072699D01*
X141127500Y-116146933D01*
X141127501Y-118197066D01*
X141142266Y-118271301D01*
X141198516Y-118355484D01*
X141282699Y-118411734D01*
X141356933Y-118426500D01*
X141731939Y-118426500D01*
X142107066Y-118426499D01*
X142142818Y-118419388D01*
X142169126Y-118414156D01*
X142169128Y-118414155D01*
X142181301Y-118411734D01*
X142191621Y-118404839D01*
X142191622Y-118404838D01*
X142255168Y-118362377D01*
X142265484Y-118355484D01*
X142321734Y-118271301D01*
X142336500Y-118197067D01*
X142336500Y-117677500D01*
X142356502Y-117609379D01*
X142410158Y-117562886D01*
X142462500Y-117551500D01*
X142616080Y-117551500D01*
X142640028Y-117554049D01*
X142641693Y-117554128D01*
X142651876Y-117556320D01*
X142662217Y-117555096D01*
X142685223Y-117552373D01*
X142691154Y-117552023D01*
X142691146Y-117551928D01*
X142696324Y-117551500D01*
X142701524Y-117551500D01*
X142706653Y-117550646D01*
X142706656Y-117550646D01*
X142720565Y-117548331D01*
X142726443Y-117547494D01*
X142767001Y-117542694D01*
X142767002Y-117542694D01*
X142777341Y-117541470D01*
X142785593Y-117537507D01*
X142794626Y-117536004D01*
X142803795Y-117531057D01*
X142803797Y-117531056D01*
X142839732Y-117511666D01*
X142845025Y-117508969D01*
X142884082Y-117490215D01*
X142884086Y-117490212D01*
X142891232Y-117486781D01*
X142895508Y-117483186D01*
X142897431Y-117481263D01*
X142899363Y-117479491D01*
X142899442Y-117479448D01*
X142899555Y-117479572D01*
X142900095Y-117479096D01*
X142905814Y-117476010D01*
X142942417Y-117436413D01*
X142945846Y-117432848D01*
X143566289Y-116812405D01*
X143628601Y-116778379D01*
X143655384Y-116775500D01*
X144243501Y-116775500D01*
X144311622Y-116795502D01*
X144358115Y-116849158D01*
X144369501Y-116901500D01*
X144369501Y-117221066D01*
X144384266Y-117295301D01*
X144391161Y-117305620D01*
X144391162Y-117305622D01*
X144416734Y-117343892D01*
X144440516Y-117379484D01*
X144524699Y-117435734D01*
X144598933Y-117450500D01*
X145323882Y-117450500D01*
X146049066Y-117450499D01*
X146084818Y-117443388D01*
X146111126Y-117438156D01*
X146111128Y-117438155D01*
X146123301Y-117435734D01*
X146133621Y-117428839D01*
X146133622Y-117428838D01*
X146197168Y-117386377D01*
X146207484Y-117379484D01*
X146263734Y-117295301D01*
X146274601Y-117240669D01*
X148616001Y-117240669D01*
X148616371Y-117247490D01*
X148621895Y-117298352D01*
X148625521Y-117313604D01*
X148670676Y-117434054D01*
X148679214Y-117449649D01*
X148755715Y-117551724D01*
X148768276Y-117564285D01*
X148870351Y-117640786D01*
X148885946Y-117649324D01*
X149006394Y-117694478D01*
X149021649Y-117698105D01*
X149072514Y-117703631D01*
X149079328Y-117704000D01*
X149551885Y-117704000D01*
X149567124Y-117699525D01*
X149568329Y-117698135D01*
X149570000Y-117690452D01*
X149570000Y-116668115D01*
X149565525Y-116652876D01*
X149564135Y-116651671D01*
X149556452Y-116650000D01*
X148634116Y-116650000D01*
X148618877Y-116654475D01*
X148617672Y-116655865D01*
X148616001Y-116663548D01*
X148616001Y-117240669D01*
X146274601Y-117240669D01*
X146278500Y-117221067D01*
X146278500Y-116901500D01*
X146298502Y-116833379D01*
X146352158Y-116786886D01*
X146404500Y-116775500D01*
X146694080Y-116775500D01*
X146718028Y-116778049D01*
X146719693Y-116778128D01*
X146729876Y-116780320D01*
X146740217Y-116779096D01*
X146763223Y-116776373D01*
X146769154Y-116776023D01*
X146769146Y-116775928D01*
X146774324Y-116775500D01*
X146779524Y-116775500D01*
X146784653Y-116774646D01*
X146784656Y-116774646D01*
X146798565Y-116772331D01*
X146804443Y-116771494D01*
X146845001Y-116766694D01*
X146845002Y-116766694D01*
X146855341Y-116765470D01*
X146863593Y-116761507D01*
X146872626Y-116760004D01*
X146881795Y-116755057D01*
X146881797Y-116755056D01*
X146917732Y-116735666D01*
X146923025Y-116732969D01*
X146962082Y-116714215D01*
X146962086Y-116714212D01*
X146969232Y-116710781D01*
X146973508Y-116707186D01*
X146975431Y-116705263D01*
X146977363Y-116703491D01*
X146977442Y-116703448D01*
X146977555Y-116703572D01*
X146978095Y-116703096D01*
X146983814Y-116700010D01*
X147020417Y-116660413D01*
X147023846Y-116656848D01*
X147420178Y-116260516D01*
X147482490Y-116226490D01*
X147511252Y-116223627D01*
X147635318Y-116225576D01*
X147635321Y-116225576D01*
X147642916Y-116225695D01*
X147797332Y-116190329D01*
X147883616Y-116146933D01*
X147929443Y-116123885D01*
X148616000Y-116123885D01*
X148620475Y-116139124D01*
X148621865Y-116140329D01*
X148629548Y-116142000D01*
X149551885Y-116142000D01*
X149567124Y-116137525D01*
X149568329Y-116136135D01*
X149570000Y-116128452D01*
X149570000Y-115106116D01*
X149565525Y-115090877D01*
X149564135Y-115089672D01*
X149556452Y-115088001D01*
X149079331Y-115088001D01*
X149072510Y-115088371D01*
X149021648Y-115093895D01*
X149006396Y-115097521D01*
X148885946Y-115142676D01*
X148870351Y-115151214D01*
X148768276Y-115227715D01*
X148755715Y-115240276D01*
X148679214Y-115342351D01*
X148670676Y-115357946D01*
X148625522Y-115478394D01*
X148621895Y-115493649D01*
X148616369Y-115544514D01*
X148616000Y-115551328D01*
X148616000Y-116123885D01*
X147929443Y-116123885D01*
X147932072Y-116122563D01*
X147932075Y-116122561D01*
X147938855Y-116119151D01*
X147944626Y-116114222D01*
X147944629Y-116114220D01*
X148053536Y-116021204D01*
X148053536Y-116021203D01*
X148059314Y-116016269D01*
X148151755Y-115887624D01*
X148210842Y-115740641D01*
X148224881Y-115641992D01*
X148232581Y-115587891D01*
X148232581Y-115587888D01*
X148233162Y-115583807D01*
X148233307Y-115570000D01*
X148231048Y-115551328D01*
X148223782Y-115491289D01*
X148214276Y-115412733D01*
X148158280Y-115264546D01*
X148099651Y-115179240D01*
X148072855Y-115140251D01*
X148072854Y-115140249D01*
X148068553Y-115133992D01*
X147950275Y-115028611D01*
X147942889Y-115024700D01*
X147816988Y-114958039D01*
X147816989Y-114958039D01*
X147810274Y-114954484D01*
X147656633Y-114915892D01*
X147649034Y-114915852D01*
X147649033Y-114915852D01*
X147583181Y-114915507D01*
X147498221Y-114915062D01*
X147490841Y-114916834D01*
X147490839Y-114916834D01*
X147351563Y-114950271D01*
X147351560Y-114950272D01*
X147344184Y-114952043D01*
X147203414Y-115024700D01*
X147084039Y-115128838D01*
X146992950Y-115258444D01*
X146975205Y-115303958D01*
X146942586Y-115387622D01*
X146935406Y-115406037D01*
X146934414Y-115413570D01*
X146934414Y-115413571D01*
X146917551Y-115541664D01*
X146914729Y-115563096D01*
X146917544Y-115588591D01*
X146920963Y-115619566D01*
X146908557Y-115689470D01*
X146884819Y-115722487D01*
X146627711Y-115979595D01*
X146565399Y-116013621D01*
X146538616Y-116016500D01*
X146404499Y-116016500D01*
X146336378Y-115996498D01*
X146289885Y-115942842D01*
X146278499Y-115890500D01*
X146278499Y-115570934D01*
X146267842Y-115517353D01*
X146266156Y-115508874D01*
X146266155Y-115508872D01*
X146263734Y-115496699D01*
X146243248Y-115466039D01*
X146214377Y-115422832D01*
X146207484Y-115412516D01*
X146123301Y-115356266D01*
X146049067Y-115341500D01*
X145324118Y-115341500D01*
X144598934Y-115341501D01*
X144563182Y-115348612D01*
X144536874Y-115353844D01*
X144536872Y-115353845D01*
X144524699Y-115356266D01*
X144514379Y-115363161D01*
X144514378Y-115363162D01*
X144478489Y-115387143D01*
X144440516Y-115412516D01*
X144384266Y-115496699D01*
X144369500Y-115570933D01*
X144369500Y-115890500D01*
X144349498Y-115958621D01*
X144295842Y-116005114D01*
X144243500Y-116016500D01*
X143951500Y-116016500D01*
X143883379Y-115996498D01*
X143836886Y-115942842D01*
X143825500Y-115890500D01*
X143825500Y-115067920D01*
X143828049Y-115043973D01*
X143828128Y-115042307D01*
X143830320Y-115032124D01*
X143829096Y-115021782D01*
X143829096Y-115021779D01*
X143826374Y-114998787D01*
X143826023Y-114992846D01*
X143825928Y-114992854D01*
X143825500Y-114987674D01*
X143825500Y-114982476D01*
X143822329Y-114963424D01*
X143821492Y-114957547D01*
X143816693Y-114916997D01*
X143816692Y-114916995D01*
X143815469Y-114906659D01*
X143811508Y-114898410D01*
X143810004Y-114889374D01*
X143805056Y-114880203D01*
X143785652Y-114844240D01*
X143782957Y-114838951D01*
X143764212Y-114799915D01*
X143760780Y-114792768D01*
X143757186Y-114788492D01*
X143755246Y-114786552D01*
X143753493Y-114784641D01*
X143753444Y-114784551D01*
X143753567Y-114784439D01*
X143753095Y-114783904D01*
X143750010Y-114778186D01*
X143710413Y-114741583D01*
X143706848Y-114738154D01*
X143623405Y-114654711D01*
X143589379Y-114592399D01*
X143586500Y-114565616D01*
X143586500Y-113802244D01*
X143579798Y-113740552D01*
X143570146Y-113714805D01*
X143532223Y-113613643D01*
X143532222Y-113613641D01*
X143529071Y-113605236D01*
X143523686Y-113598050D01*
X143522568Y-113596009D01*
X143507399Y-113526652D01*
X143532135Y-113460104D01*
X143588923Y-113417494D01*
X143633088Y-113409500D01*
X144243500Y-113409500D01*
X144311621Y-113429502D01*
X144358114Y-113483158D01*
X144369500Y-113535500D01*
X144369501Y-114247522D01*
X144369501Y-114299066D01*
X144375335Y-114328399D01*
X144381714Y-114360468D01*
X144384266Y-114373301D01*
X144391161Y-114383620D01*
X144391162Y-114383622D01*
X144424720Y-114433844D01*
X144440516Y-114457484D01*
X144524699Y-114513734D01*
X144598933Y-114528500D01*
X145323882Y-114528500D01*
X146049066Y-114528499D01*
X146084818Y-114521388D01*
X146111126Y-114516156D01*
X146111128Y-114516155D01*
X146123301Y-114513734D01*
X146133621Y-114506839D01*
X146133622Y-114506838D01*
X146197168Y-114464377D01*
X146207484Y-114457484D01*
X146263734Y-114373301D01*
X146274601Y-114318669D01*
X148616001Y-114318669D01*
X148616371Y-114325490D01*
X148621895Y-114376352D01*
X148625521Y-114391604D01*
X148670676Y-114512054D01*
X148679214Y-114527649D01*
X148755715Y-114629724D01*
X148768276Y-114642285D01*
X148870351Y-114718786D01*
X148885946Y-114727324D01*
X149006394Y-114772478D01*
X149021649Y-114776105D01*
X149072514Y-114781631D01*
X149079328Y-114782000D01*
X149551885Y-114782000D01*
X149567124Y-114777525D01*
X149568329Y-114776135D01*
X149570000Y-114768452D01*
X149570000Y-113746115D01*
X149565525Y-113730876D01*
X149564135Y-113729671D01*
X149556452Y-113728000D01*
X148634116Y-113728000D01*
X148618877Y-113732475D01*
X148617672Y-113733865D01*
X148616001Y-113741548D01*
X148616001Y-114318669D01*
X146274601Y-114318669D01*
X146278500Y-114299067D01*
X146278499Y-113201885D01*
X148616000Y-113201885D01*
X148620475Y-113217124D01*
X148621865Y-113218329D01*
X148629548Y-113220000D01*
X149551885Y-113220000D01*
X149567124Y-113215525D01*
X149568329Y-113214135D01*
X149570000Y-113206452D01*
X149570000Y-112184116D01*
X149565525Y-112168877D01*
X149564135Y-112167672D01*
X149556452Y-112166001D01*
X149079331Y-112166001D01*
X149072510Y-112166371D01*
X149021648Y-112171895D01*
X149006396Y-112175521D01*
X148885946Y-112220676D01*
X148870351Y-112229214D01*
X148768276Y-112305715D01*
X148755715Y-112318276D01*
X148679214Y-112420351D01*
X148670676Y-112435946D01*
X148625522Y-112556394D01*
X148621895Y-112571649D01*
X148616369Y-112622514D01*
X148616000Y-112629328D01*
X148616000Y-113201885D01*
X146278499Y-113201885D01*
X146278499Y-112648934D01*
X146263734Y-112574699D01*
X146207484Y-112490516D01*
X146123301Y-112434266D01*
X146049067Y-112419500D01*
X145324118Y-112419500D01*
X144598934Y-112419501D01*
X144563182Y-112426612D01*
X144536874Y-112431844D01*
X144536872Y-112431845D01*
X144524699Y-112434266D01*
X144514379Y-112441161D01*
X144514378Y-112441162D01*
X144453985Y-112481516D01*
X144440516Y-112490516D01*
X144384266Y-112574699D01*
X144383661Y-112577739D01*
X144343157Y-112628000D01*
X144271298Y-112650500D01*
X139245920Y-112650500D01*
X139221973Y-112647951D01*
X139220307Y-112647872D01*
X139210124Y-112645680D01*
X139199782Y-112646904D01*
X139199779Y-112646904D01*
X139176787Y-112649626D01*
X139170846Y-112649977D01*
X139170854Y-112650072D01*
X139165674Y-112650500D01*
X139160476Y-112650500D01*
X139155354Y-112651353D01*
X139155349Y-112651353D01*
X139141427Y-112653671D01*
X139135550Y-112654508D01*
X139130350Y-112655123D01*
X139094997Y-112659307D01*
X139094995Y-112659308D01*
X139084659Y-112660531D01*
X139076410Y-112664492D01*
X139067374Y-112665996D01*
X139058205Y-112670943D01*
X139058203Y-112670944D01*
X139022240Y-112690348D01*
X139016951Y-112693043D01*
X138977915Y-112711788D01*
X138970768Y-112715220D01*
X138966492Y-112718814D01*
X138964552Y-112720754D01*
X138962641Y-112722507D01*
X138962551Y-112722556D01*
X138962439Y-112722433D01*
X138961904Y-112722905D01*
X138956186Y-112725990D01*
X138949119Y-112733635D01*
X138919584Y-112765586D01*
X138916154Y-112769152D01*
X137437784Y-114247522D01*
X137419036Y-114262664D01*
X137417811Y-114263779D01*
X137409060Y-114269429D01*
X137402613Y-114277607D01*
X137402611Y-114277609D01*
X137388271Y-114295800D01*
X137384325Y-114300241D01*
X137384398Y-114300303D01*
X137381039Y-114304267D01*
X137377362Y-114307944D01*
X137366108Y-114323692D01*
X137362602Y-114328362D01*
X137330844Y-114368647D01*
X137327812Y-114377281D01*
X137322486Y-114384734D01*
X137319501Y-114394715D01*
X137307799Y-114433844D01*
X137305964Y-114439492D01*
X137299646Y-114457484D01*
X137288982Y-114487851D01*
X137288500Y-114493416D01*
X137288500Y-114496124D01*
X137288386Y-114498758D01*
X137288357Y-114498856D01*
X137288193Y-114498849D01*
X137288149Y-114499553D01*
X137286287Y-114505778D01*
X137286696Y-114516183D01*
X137288403Y-114559635D01*
X137288500Y-114564582D01*
X137288500Y-115821784D01*
X137268498Y-115889905D01*
X137218380Y-115931788D01*
X137218699Y-115932266D01*
X137134516Y-115988516D01*
X137078266Y-116072699D01*
X137063500Y-116146933D01*
X137063500Y-116666500D01*
X137043498Y-116734621D01*
X136989842Y-116781114D01*
X136937500Y-116792500D01*
X136627920Y-116792500D01*
X136603972Y-116789951D01*
X136602307Y-116789872D01*
X136592124Y-116787680D01*
X136581783Y-116788904D01*
X136558777Y-116791627D01*
X136552846Y-116791977D01*
X136552854Y-116792072D01*
X136547676Y-116792500D01*
X136542476Y-116792500D01*
X136537347Y-116793354D01*
X136537344Y-116793354D01*
X136523435Y-116795669D01*
X136517557Y-116796506D01*
X136476999Y-116801306D01*
X136476998Y-116801306D01*
X136466659Y-116802530D01*
X136458407Y-116806493D01*
X136449374Y-116807996D01*
X136440205Y-116812943D01*
X136440203Y-116812944D01*
X136404268Y-116832334D01*
X136398975Y-116835031D01*
X136359913Y-116853787D01*
X136359907Y-116853791D01*
X136352768Y-116857219D01*
X136348492Y-116860813D01*
X136346553Y-116862752D01*
X136344638Y-116864508D01*
X136344552Y-116864555D01*
X136344439Y-116864433D01*
X136343904Y-116864905D01*
X136338186Y-116867990D01*
X136331118Y-116875636D01*
X136331117Y-116875637D01*
X136301596Y-116907573D01*
X136298166Y-116911139D01*
X135282410Y-117926895D01*
X135220098Y-117960921D01*
X135192657Y-117963798D01*
X135052221Y-117963062D01*
X135044841Y-117964834D01*
X135044839Y-117964834D01*
X134938403Y-117990387D01*
X134867495Y-117986840D01*
X134809761Y-117945520D01*
X134783531Y-117879546D01*
X134782989Y-117867868D01*
X134782989Y-116859177D01*
X134802991Y-116791056D01*
X134856647Y-116744563D01*
X134910968Y-116733193D01*
X134919763Y-116733331D01*
X134935319Y-116733576D01*
X134935322Y-116733576D01*
X134942916Y-116733695D01*
X135097332Y-116698329D01*
X135190102Y-116651671D01*
X135232072Y-116630563D01*
X135232075Y-116630561D01*
X135238855Y-116627151D01*
X135244626Y-116622222D01*
X135244629Y-116622220D01*
X135353536Y-116529204D01*
X135353536Y-116529203D01*
X135359314Y-116524269D01*
X135451755Y-116395624D01*
X135510842Y-116248641D01*
X135526656Y-116137525D01*
X135532581Y-116095891D01*
X135532581Y-116095888D01*
X135533162Y-116091807D01*
X135533307Y-116078000D01*
X135514276Y-115920733D01*
X135458280Y-115772546D01*
X135368553Y-115641992D01*
X135250275Y-115536611D01*
X135242889Y-115532700D01*
X135157613Y-115487549D01*
X135110274Y-115462484D01*
X134956633Y-115423892D01*
X134949034Y-115423852D01*
X134949033Y-115423852D01*
X134883181Y-115423507D01*
X134798221Y-115423062D01*
X134790841Y-115424834D01*
X134790839Y-115424834D01*
X134651563Y-115458271D01*
X134651560Y-115458272D01*
X134644184Y-115460043D01*
X134503414Y-115532700D01*
X134452493Y-115577122D01*
X134446330Y-115582498D01*
X134381848Y-115612206D01*
X134311540Y-115602337D01*
X134257730Y-115556023D01*
X134237500Y-115487549D01*
X134237500Y-113878730D01*
X134257502Y-113810609D01*
X134281669Y-113782919D01*
X134337536Y-113735204D01*
X134343314Y-113730269D01*
X134435755Y-113601624D01*
X134494842Y-113454641D01*
X134517162Y-113297807D01*
X134517307Y-113284000D01*
X134498276Y-113126733D01*
X134442280Y-112978546D01*
X134352553Y-112847992D01*
X134234275Y-112742611D01*
X134226889Y-112738700D01*
X134100988Y-112672039D01*
X134100989Y-112672039D01*
X134094274Y-112668484D01*
X133940633Y-112629892D01*
X133933034Y-112629852D01*
X133933033Y-112629852D01*
X133867181Y-112629507D01*
X133782221Y-112629062D01*
X133774841Y-112630834D01*
X133774839Y-112630834D01*
X133635563Y-112664271D01*
X133635560Y-112664272D01*
X133628184Y-112666043D01*
X133487414Y-112738700D01*
X133368039Y-112842838D01*
X133276950Y-112972444D01*
X133219406Y-113120037D01*
X133218414Y-113127570D01*
X133218414Y-113127571D01*
X133206246Y-113220000D01*
X133198729Y-113277096D01*
X133207421Y-113355824D01*
X133214230Y-113417494D01*
X133216113Y-113434553D01*
X133218723Y-113441684D01*
X133218723Y-113441686D01*
X133236256Y-113489596D01*
X133270553Y-113583319D01*
X133274789Y-113589622D01*
X133274789Y-113589623D01*
X133285281Y-113605236D01*
X133358908Y-113714805D01*
X133364527Y-113719918D01*
X133364528Y-113719919D01*
X133437299Y-113786135D01*
X133474222Y-113846775D01*
X133478500Y-113879329D01*
X133478500Y-122120080D01*
X133475951Y-122144028D01*
X133475872Y-122145693D01*
X133473680Y-122155876D01*
X133474904Y-122166217D01*
X133477627Y-122189223D01*
X133477977Y-122195154D01*
X133478072Y-122195146D01*
X133478500Y-122200324D01*
X133478500Y-122205524D01*
X133479354Y-122210653D01*
X133479354Y-122210656D01*
X133481669Y-122224565D01*
X133482506Y-122230443D01*
X133488530Y-122281341D01*
X133492493Y-122289593D01*
X133493996Y-122298626D01*
X133498943Y-122307795D01*
X133498944Y-122307797D01*
X133518334Y-122343732D01*
X133521031Y-122349025D01*
X133539785Y-122388082D01*
X133539788Y-122388086D01*
X133543219Y-122395232D01*
X133546814Y-122399508D01*
X133548737Y-122401431D01*
X133550509Y-122403363D01*
X133550552Y-122403442D01*
X133550428Y-122403555D01*
X133550904Y-122404095D01*
X133553990Y-122409814D01*
X133561635Y-122416881D01*
X133593586Y-122446416D01*
X133597152Y-122449846D01*
X135981595Y-124834290D01*
X136015621Y-124896602D01*
X136018500Y-124923385D01*
X136018500Y-127144839D01*
X135998498Y-127212960D01*
X135944842Y-127259453D01*
X135936118Y-127263049D01*
X135920463Y-127268824D01*
X135746010Y-127372612D01*
X135741670Y-127376418D01*
X135741666Y-127376421D01*
X135597733Y-127502648D01*
X135593392Y-127506455D01*
X135467720Y-127665869D01*
X135465031Y-127670980D01*
X135465029Y-127670983D01*
X135452073Y-127695609D01*
X135373203Y-127845515D01*
X135313007Y-128039378D01*
X135289148Y-128240964D01*
X135302424Y-128443522D01*
X135303845Y-128449118D01*
X135303846Y-128449123D01*
X135324119Y-128528945D01*
X135352392Y-128640269D01*
X135354809Y-128645512D01*
X135392010Y-128726208D01*
X135437377Y-128824616D01*
X135440710Y-128829332D01*
X135544372Y-128976011D01*
X135554533Y-128990389D01*
X135558675Y-128994424D01*
X135635996Y-129069746D01*
X135670834Y-129131607D01*
X135666697Y-129202483D01*
X135624898Y-129259871D01*
X135558709Y-129285550D01*
X135548075Y-129286000D01*
X134712357Y-129286000D01*
X134644236Y-129265998D01*
X134597743Y-129212342D01*
X134587639Y-129142068D01*
X134617133Y-129077488D01*
X134631788Y-129063126D01*
X134637908Y-129058036D01*
X134637913Y-129058031D01*
X134642345Y-129054345D01*
X134772147Y-128898276D01*
X134871334Y-128721165D01*
X134873190Y-128715698D01*
X134873192Y-128715693D01*
X134934728Y-128534414D01*
X134934729Y-128534409D01*
X134936584Y-128528945D01*
X134937412Y-128523236D01*
X134937413Y-128523231D01*
X134965179Y-128331727D01*
X134965712Y-128328053D01*
X134967232Y-128270000D01*
X134948658Y-128067859D01*
X134947090Y-128062299D01*
X134895125Y-127878046D01*
X134895124Y-127878044D01*
X134893557Y-127872487D01*
X134882978Y-127851033D01*
X134806331Y-127695609D01*
X134803776Y-127690428D01*
X134682320Y-127527779D01*
X134533258Y-127389987D01*
X134528375Y-127386906D01*
X134528371Y-127386903D01*
X134366464Y-127284748D01*
X134361581Y-127281667D01*
X134173039Y-127206446D01*
X134167379Y-127205320D01*
X134167375Y-127205319D01*
X133979613Y-127167971D01*
X133979610Y-127167971D01*
X133973946Y-127166844D01*
X133968171Y-127166768D01*
X133968167Y-127166768D01*
X133866793Y-127165441D01*
X133770971Y-127164187D01*
X133765274Y-127165166D01*
X133765273Y-127165166D01*
X133677397Y-127180266D01*
X133570910Y-127198564D01*
X133380463Y-127268824D01*
X133206010Y-127372612D01*
X133201670Y-127376418D01*
X133201666Y-127376421D01*
X133057733Y-127502648D01*
X133053392Y-127506455D01*
X132927720Y-127665869D01*
X132925031Y-127670980D01*
X132925029Y-127670983D01*
X132835589Y-127840980D01*
X132786170Y-127891952D01*
X132717037Y-127908115D01*
X132650141Y-127884336D01*
X132610003Y-127829973D01*
X132607955Y-127830863D01*
X132520972Y-127630814D01*
X132516105Y-127621739D01*
X132400426Y-127442926D01*
X132394136Y-127434757D01*
X132250806Y-127277240D01*
X132243273Y-127270215D01*
X132076139Y-127138222D01*
X132067552Y-127132517D01*
X131881117Y-127029599D01*
X131871705Y-127025369D01*
X131670959Y-126954280D01*
X131660988Y-126951646D01*
X131589837Y-126938972D01*
X131576540Y-126940432D01*
X131572000Y-126954989D01*
X131572000Y-128398000D01*
X131551998Y-128466121D01*
X131498342Y-128512614D01*
X131446000Y-128524000D01*
X131190000Y-128524000D01*
X131121879Y-128503998D01*
X131075386Y-128450342D01*
X131064000Y-128398000D01*
X131064000Y-126953102D01*
X131060082Y-126939758D01*
X131045806Y-126937771D01*
X131007324Y-126943660D01*
X130997288Y-126946051D01*
X130794868Y-127012212D01*
X130785359Y-127016209D01*
X130596463Y-127114542D01*
X130587738Y-127120036D01*
X130417433Y-127247905D01*
X130409726Y-127254748D01*
X130262590Y-127408717D01*
X130256104Y-127416727D01*
X130136098Y-127592649D01*
X130131000Y-127601623D01*
X130041338Y-127794783D01*
X130037777Y-127804464D01*
X130033291Y-127820640D01*
X129995813Y-127880939D01*
X129931684Y-127911403D01*
X129861266Y-127902360D01*
X129806915Y-127856682D01*
X129798867Y-127842698D01*
X129726331Y-127695609D01*
X129723776Y-127690428D01*
X129602320Y-127527779D01*
X129453258Y-127389987D01*
X129448375Y-127386906D01*
X129448371Y-127386903D01*
X129286464Y-127284748D01*
X129281581Y-127281667D01*
X129093039Y-127206446D01*
X129087379Y-127205320D01*
X129087375Y-127205319D01*
X128899613Y-127167971D01*
X128899610Y-127167971D01*
X128893946Y-127166844D01*
X128888171Y-127166768D01*
X128888167Y-127166768D01*
X128786793Y-127165441D01*
X128690971Y-127164187D01*
X128685274Y-127165166D01*
X128685273Y-127165166D01*
X128597397Y-127180266D01*
X128490910Y-127198564D01*
X128300463Y-127268824D01*
X128126010Y-127372612D01*
X128121670Y-127376418D01*
X128121666Y-127376421D01*
X127977733Y-127502648D01*
X127973392Y-127506455D01*
X127847720Y-127665869D01*
X127845031Y-127670980D01*
X127845029Y-127670983D01*
X127832073Y-127695609D01*
X127753203Y-127845515D01*
X127693007Y-128039378D01*
X127669148Y-128240964D01*
X127682424Y-128443522D01*
X127683845Y-128449118D01*
X127683846Y-128449123D01*
X127704119Y-128528945D01*
X127732392Y-128640269D01*
X127734809Y-128645512D01*
X127772010Y-128726208D01*
X127817377Y-128824616D01*
X127820710Y-128829332D01*
X127924372Y-128976011D01*
X127934533Y-128990389D01*
X127938675Y-128994424D01*
X128015996Y-129069746D01*
X128050834Y-129131607D01*
X128046697Y-129202483D01*
X128004898Y-129259871D01*
X127938709Y-129285550D01*
X127928075Y-129286000D01*
X127467029Y-129286000D01*
X127398908Y-129265998D01*
X127352415Y-129212342D01*
X127341796Y-129148607D01*
X127342500Y-129145067D01*
X127342499Y-127394934D01*
X127327734Y-127320699D01*
X127301654Y-127281667D01*
X127278377Y-127246832D01*
X127271484Y-127236516D01*
X127187301Y-127180266D01*
X127113067Y-127165500D01*
X126238142Y-127165500D01*
X125362934Y-127165501D01*
X125327182Y-127172612D01*
X125300874Y-127177844D01*
X125300872Y-127177845D01*
X125288699Y-127180266D01*
X125278379Y-127187161D01*
X125278378Y-127187162D01*
X125229256Y-127219985D01*
X125204516Y-127236516D01*
X125148266Y-127320699D01*
X125133500Y-127394933D01*
X125133501Y-129145066D01*
X125134194Y-129148550D01*
X125121137Y-129217402D01*
X125072297Y-129268931D01*
X125008972Y-129286000D01*
X124586000Y-129286000D01*
X124517879Y-129265998D01*
X124471386Y-129212342D01*
X124460000Y-129160000D01*
X124460000Y-126872000D01*
X124480002Y-126803879D01*
X124533658Y-126757386D01*
X124586000Y-126746000D01*
X130518575Y-126746000D01*
X130543153Y-126748421D01*
X130556000Y-126750976D01*
X130655106Y-126731263D01*
X130739124Y-126675124D01*
X130795263Y-126591106D01*
X130810000Y-126517017D01*
X130814976Y-126492000D01*
X130812421Y-126479153D01*
X130810000Y-126454575D01*
X130810000Y-104648933D01*
X144369500Y-104648933D01*
X144369501Y-106299066D01*
X144384266Y-106373301D01*
X144440516Y-106457484D01*
X144524699Y-106513734D01*
X144598933Y-106528500D01*
X145323882Y-106528500D01*
X146049066Y-106528499D01*
X146084818Y-106521388D01*
X146111126Y-106516156D01*
X146111128Y-106516155D01*
X146123301Y-106513734D01*
X146133621Y-106506839D01*
X146133622Y-106506838D01*
X146197168Y-106464377D01*
X146207484Y-106457484D01*
X146263734Y-106373301D01*
X146274601Y-106318669D01*
X148616001Y-106318669D01*
X148616371Y-106325490D01*
X148621895Y-106376352D01*
X148625521Y-106391604D01*
X148670676Y-106512054D01*
X148679214Y-106527649D01*
X148755715Y-106629724D01*
X148768276Y-106642285D01*
X148870351Y-106718786D01*
X148885946Y-106727324D01*
X149006394Y-106772478D01*
X149021649Y-106776105D01*
X149072514Y-106781631D01*
X149079328Y-106782000D01*
X149551885Y-106782000D01*
X149567124Y-106777525D01*
X149568329Y-106776135D01*
X149570000Y-106768452D01*
X149570000Y-105746115D01*
X149565525Y-105730876D01*
X149564135Y-105729671D01*
X149556452Y-105728000D01*
X148634116Y-105728000D01*
X148618877Y-105732475D01*
X148617672Y-105733865D01*
X148616001Y-105741548D01*
X148616001Y-106318669D01*
X146274601Y-106318669D01*
X146278500Y-106299067D01*
X146278499Y-105201885D01*
X148616000Y-105201885D01*
X148620475Y-105217124D01*
X148621865Y-105218329D01*
X148629548Y-105220000D01*
X149551885Y-105220000D01*
X149567124Y-105215525D01*
X149568329Y-105214135D01*
X149570000Y-105206452D01*
X149570000Y-104184116D01*
X149565525Y-104168877D01*
X149564135Y-104167672D01*
X149556452Y-104166001D01*
X149079331Y-104166001D01*
X149072510Y-104166371D01*
X149021648Y-104171895D01*
X149006396Y-104175521D01*
X148885946Y-104220676D01*
X148870351Y-104229214D01*
X148768276Y-104305715D01*
X148755715Y-104318276D01*
X148679214Y-104420351D01*
X148670676Y-104435946D01*
X148625522Y-104556394D01*
X148621895Y-104571649D01*
X148616369Y-104622514D01*
X148616000Y-104629328D01*
X148616000Y-105201885D01*
X146278499Y-105201885D01*
X146278499Y-104648934D01*
X146263734Y-104574699D01*
X146207484Y-104490516D01*
X146123301Y-104434266D01*
X146049067Y-104419500D01*
X145324118Y-104419500D01*
X144598934Y-104419501D01*
X144563182Y-104426612D01*
X144536874Y-104431844D01*
X144536872Y-104431845D01*
X144524699Y-104434266D01*
X144514379Y-104441161D01*
X144514378Y-104441162D01*
X144453985Y-104481516D01*
X144440516Y-104490516D01*
X144384266Y-104574699D01*
X144369500Y-104648933D01*
X130810000Y-104648933D01*
X130810000Y-102742000D01*
X130830002Y-102673879D01*
X130883658Y-102627386D01*
X130936000Y-102616000D01*
X151004000Y-102616000D01*
X151072121Y-102636002D01*
G37*
G04 #@! TD.AperFunction*
G04 #@! TA.AperFunction,Conductor*
G36*
X136986012Y-125077160D02*
G01*
X136992595Y-125083289D01*
X138521595Y-126612289D01*
X138555621Y-126674601D01*
X138558500Y-126701384D01*
X138558500Y-127144839D01*
X138538498Y-127212960D01*
X138484842Y-127259453D01*
X138476118Y-127263049D01*
X138460463Y-127268824D01*
X138286010Y-127372612D01*
X138281670Y-127376418D01*
X138281666Y-127376421D01*
X138137733Y-127502648D01*
X138133392Y-127506455D01*
X138007720Y-127665869D01*
X138005031Y-127670980D01*
X138005029Y-127670983D01*
X137992073Y-127695609D01*
X137913203Y-127845515D01*
X137853007Y-128039378D01*
X137829148Y-128240964D01*
X137842424Y-128443522D01*
X137843845Y-128449118D01*
X137843846Y-128449123D01*
X137864119Y-128528945D01*
X137892392Y-128640269D01*
X137894809Y-128645512D01*
X137932010Y-128726208D01*
X137977377Y-128824616D01*
X137980710Y-128829332D01*
X138084372Y-128976011D01*
X138094533Y-128990389D01*
X138098675Y-128994424D01*
X138175996Y-129069746D01*
X138210834Y-129131607D01*
X138206697Y-129202483D01*
X138164898Y-129259871D01*
X138098709Y-129285550D01*
X138088075Y-129286000D01*
X137252357Y-129286000D01*
X137184236Y-129265998D01*
X137137743Y-129212342D01*
X137127639Y-129142068D01*
X137157133Y-129077488D01*
X137171788Y-129063126D01*
X137177908Y-129058036D01*
X137177913Y-129058031D01*
X137182345Y-129054345D01*
X137312147Y-128898276D01*
X137411334Y-128721165D01*
X137413190Y-128715698D01*
X137413192Y-128715693D01*
X137474728Y-128534414D01*
X137474729Y-128534409D01*
X137476584Y-128528945D01*
X137477412Y-128523236D01*
X137477413Y-128523231D01*
X137505179Y-128331727D01*
X137505712Y-128328053D01*
X137507232Y-128270000D01*
X137488658Y-128067859D01*
X137487090Y-128062299D01*
X137435125Y-127878046D01*
X137435124Y-127878044D01*
X137433557Y-127872487D01*
X137422978Y-127851033D01*
X137346331Y-127695609D01*
X137343776Y-127690428D01*
X137222320Y-127527779D01*
X137073258Y-127389987D01*
X137068375Y-127386906D01*
X137068371Y-127386903D01*
X136906464Y-127284748D01*
X136901581Y-127281667D01*
X136856810Y-127263805D01*
X136800951Y-127219985D01*
X136777500Y-127146775D01*
X136777500Y-125172384D01*
X136797502Y-125104263D01*
X136851158Y-125057770D01*
X136921432Y-125047666D01*
X136986012Y-125077160D01*
G37*
G04 #@! TD.AperFunction*
M02*
