M48
; DRILL file {KiCad 6.0.2+dfsg-1} date Thu 07 Sep 2023 15:13:25 CEST
; FORMAT={-:-/ absolute / metric / decimal}
; #@! TF.CreationDate,2023-09-07T15:13:25+02:00
; #@! TF.GenerationSoftware,Kicad,Pcbnew,6.0.2+dfsg-1
; #@! TF.FileFunction,Plated,1,2,PTH
FMAT,2
METRIC
; #@! TA.AperFunction,Plated,PTH,ViaDrill
T1C0.400
; #@! TA.AperFunction,Plated,PTH,ComponentDrill
T2C1.000
%
G90
G05
T1
X131.41Y-108.657
X131.439Y-123.089
X131.542Y-106.115
X131.636Y-125.628
X131.862Y-111.87
X131.963Y-118.914
X131.974Y-114.547
X132.879Y-116.893
X133.066Y-109.643
X133.858Y-113.284
X134.177Y-105.871
X134.874Y-116.078
X134.987Y-107.722
X135.128Y-118.618
X135.418Y-126.869
X136.112Y-113.635
X136.115Y-116.267
X136.133Y-110.711
X136.717Y-122.871
X137.398Y-109.914
X137.942Y-126.881
X138.26Y-106.172
X138.941Y-118.354
X139.192Y-122.936
X139.7Y-117.348
X139.949Y-109.914
X140.458Y-126.763
X140.527Y-105.871
X140.565Y-118.446
X142.514Y-109.956
X142.753Y-126.564
X143.089Y-105.873
X143.421Y-112.05
X143.525Y-117.702
X144.045Y-119.167
X144.765Y-107.128
X145.333Y-127.077
X145.93Y-111.819
X146.594Y-107.607
X146.594Y-110.176
X146.633Y-125.802
X146.894Y-119.172
X147.32Y-123.19
X147.574Y-115.57
X147.772Y-117.191
X148.028Y-124.252
X149.056Y-126.304
X150.009Y-119.912
X150.53Y-103.566
X150.53Y-122.488
T2
X126.238Y-128.27
X128.778Y-128.27
X131.318Y-128.27
X133.858Y-128.27
X136.398Y-128.27
X138.938Y-128.27
X141.478Y-128.27
X144.018Y-128.27
X146.558Y-128.27
X149.098Y-128.27
T0
M30
