%FSLAX45Y45*%
G04 Gerber Fmt 4.5, Leading zero omitted, Abs format (unit mm)*
G04 Created by KiCad (PCBNEW 6.0.2+dfsg-1) date 2023-09-07 15:13:34*
%MOMM*%
%LPD*%
G01*
G04 APERTURE LIST*
%TA.AperFunction,Profile*%
%ADD10C,0.100000*%
%TD*%
%ADD11C,0.200000*%
%ADD12C,0.040000*%
%ADD13C,0.100000*%
G04 APERTURE END LIST*
D10*
X13055600Y-10236200D02*
X15138400Y-10236200D01*
X13055600Y-12649200D02*
X13055600Y-10236200D01*
X12420600Y-12649200D02*
X13055600Y-12649200D01*
X12420600Y-12954000D02*
X12420600Y-12649200D01*
X15138400Y-12954000D02*
X15138400Y-10236200D01*
X15113000Y-12954000D02*
X15138400Y-12954000D01*
X15087600Y-12954000D02*
X15113000Y-12954000D01*
X12420600Y-12954000D02*
X15087600Y-12954000D01*
D11*
D12*
X13121000Y-10845706D02*
X13161000Y-10885706D01*
X13161000Y-10845706D02*
X13121000Y-10885706D01*
X13123937Y-12288889D02*
X13163937Y-12328889D01*
X13163937Y-12288889D02*
X13123937Y-12328889D01*
X13134247Y-10591482D02*
X13174247Y-10631482D01*
X13174247Y-10591482D02*
X13134247Y-10631482D01*
X13143616Y-12542784D02*
X13183616Y-12582784D01*
X13183616Y-12542784D02*
X13143616Y-12582784D01*
X13166250Y-11167044D02*
X13206250Y-11207044D01*
X13206250Y-11167044D02*
X13166250Y-11207044D01*
X13176253Y-11871400D02*
X13216253Y-11911400D01*
X13216253Y-11871400D02*
X13176253Y-11911400D01*
X13177352Y-11434660D02*
X13217352Y-11474660D01*
X13217352Y-11434660D02*
X13177352Y-11474660D01*
X13267850Y-11669266D02*
X13307850Y-11709266D01*
X13307850Y-11669266D02*
X13267850Y-11709266D01*
X13286608Y-10944270D02*
X13326608Y-10984270D01*
X13326608Y-10944270D02*
X13286608Y-10984270D01*
X13365800Y-11308400D02*
X13405800Y-11348400D01*
X13405800Y-11308400D02*
X13365800Y-11348400D01*
X13397679Y-10567072D02*
X13437679Y-10607072D01*
X13437679Y-10567072D02*
X13397679Y-10607072D01*
X13467400Y-11587800D02*
X13507400Y-11627800D01*
X13507400Y-11587800D02*
X13467400Y-11627800D01*
X13478725Y-10752153D02*
X13518725Y-10792153D01*
X13518725Y-10752153D02*
X13478725Y-10792153D01*
X13492800Y-11841800D02*
X13532800Y-11881800D01*
X13532800Y-11841800D02*
X13492800Y-11881800D01*
X13521850Y-12666930D02*
X13561850Y-12706930D01*
X13561850Y-12666930D02*
X13521850Y-12706930D01*
X13591156Y-11343513D02*
X13631156Y-11383513D01*
X13631156Y-11343513D02*
X13591156Y-11383513D01*
X13591502Y-11606671D02*
X13631502Y-11646671D01*
X13631502Y-11606671D02*
X13591502Y-11646671D01*
X13593311Y-11051137D02*
X13633311Y-11091137D01*
X13633311Y-11051137D02*
X13593311Y-11091137D01*
X13651679Y-12267072D02*
X13691679Y-12307072D01*
X13691679Y-12267072D02*
X13651679Y-12307072D01*
X13719816Y-10971400D02*
X13759816Y-11011400D01*
X13759816Y-10971400D02*
X13719816Y-11011400D01*
X13774182Y-12668104D02*
X13814182Y-12708104D01*
X13814182Y-12668104D02*
X13774182Y-12708104D01*
X13805950Y-10597157D02*
X13845950Y-10637157D01*
X13845950Y-10597157D02*
X13805950Y-10637157D01*
X13874103Y-11815355D02*
X13914103Y-11855355D01*
X13914103Y-11815355D02*
X13874103Y-11855355D01*
X13899200Y-12273600D02*
X13939200Y-12313600D01*
X13939200Y-12273600D02*
X13899200Y-12313600D01*
X13950000Y-11714800D02*
X13990000Y-11754800D01*
X13990000Y-11714800D02*
X13950000Y-11754800D01*
X13974906Y-10971400D02*
X14014906Y-11011400D01*
X14014906Y-10971400D02*
X13974906Y-11011400D01*
X14025762Y-12656284D02*
X14065762Y-12696284D01*
X14065762Y-12656284D02*
X14025762Y-12696284D01*
X14032679Y-10567072D02*
X14072679Y-10607072D01*
X14072679Y-10567072D02*
X14032679Y-10607072D01*
X14036532Y-11824631D02*
X14076532Y-11864631D01*
X14076532Y-11824631D02*
X14036532Y-11864631D01*
X14231352Y-10975619D02*
X14271352Y-11015619D01*
X14271352Y-10975619D02*
X14231352Y-11015619D01*
X14255311Y-12636444D02*
X14295311Y-12676444D01*
X14295311Y-12636444D02*
X14255311Y-12676444D01*
X14288875Y-10567289D02*
X14328875Y-10607289D01*
X14328875Y-10567289D02*
X14288875Y-10607289D01*
X14322103Y-11185050D02*
X14362103Y-11225050D01*
X14362103Y-11185050D02*
X14322103Y-11225050D01*
X14332480Y-11750242D02*
X14372480Y-11790242D01*
X14372480Y-11750242D02*
X14332480Y-11790242D01*
X14384505Y-11896750D02*
X14424505Y-11936750D01*
X14424505Y-11896750D02*
X14384505Y-11936750D01*
X14456546Y-10692850D02*
X14496546Y-10732850D01*
X14496546Y-10692850D02*
X14456546Y-10732850D01*
X14513336Y-12687743D02*
X14553336Y-12727743D01*
X14553336Y-12687743D02*
X14513336Y-12727743D01*
X14572966Y-11161950D02*
X14612966Y-11201950D01*
X14612966Y-11161950D02*
X14572966Y-11201950D01*
X14639450Y-10740749D02*
X14679450Y-10780749D01*
X14679450Y-10740749D02*
X14639450Y-10780749D01*
X14639450Y-10997631D02*
X14679450Y-11037631D01*
X14679450Y-10997631D02*
X14639450Y-11037631D01*
X14643322Y-12560228D02*
X14683322Y-12600228D01*
X14683322Y-12560228D02*
X14643322Y-12600228D01*
X14669352Y-11897163D02*
X14709352Y-11937163D01*
X14709352Y-11897163D02*
X14669352Y-11937163D01*
X14712000Y-12299000D02*
X14752000Y-12339000D01*
X14752000Y-12299000D02*
X14712000Y-12339000D01*
X14737400Y-11537000D02*
X14777400Y-11577000D01*
X14777400Y-11537000D02*
X14737400Y-11577000D01*
X14757229Y-11699060D02*
X14797229Y-11739060D01*
X14797229Y-11699060D02*
X14757229Y-11739060D01*
X14782822Y-12405176D02*
X14822822Y-12445176D01*
X14822822Y-12405176D02*
X14782822Y-12445176D01*
X14885635Y-12610360D02*
X14925635Y-12650360D01*
X14925635Y-12610360D02*
X14885635Y-12650360D01*
X14980905Y-11971216D02*
X15020905Y-12011216D01*
X15020905Y-11971216D02*
X14980905Y-12011216D01*
X15033000Y-10336600D02*
X15073000Y-10376600D01*
X15073000Y-10336600D02*
X15033000Y-10376600D01*
X15033000Y-12228800D02*
X15073000Y-12268800D01*
X15073000Y-12228800D02*
X15033000Y-12268800D01*
D13*
X12673800Y-12827000D02*
G75*
G03*
X12673800Y-12827000I-50000J0D01*
G01*
X12927800Y-12827000D02*
G75*
G03*
X12927800Y-12827000I-50000J0D01*
G01*
X13181800Y-12827000D02*
G75*
G03*
X13181800Y-12827000I-50000J0D01*
G01*
X13435800Y-12827000D02*
G75*
G03*
X13435800Y-12827000I-50000J0D01*
G01*
X13689800Y-12827000D02*
G75*
G03*
X13689800Y-12827000I-50000J0D01*
G01*
X13943800Y-12827000D02*
G75*
G03*
X13943800Y-12827000I-50000J0D01*
G01*
X14197800Y-12827000D02*
G75*
G03*
X14197800Y-12827000I-50000J0D01*
G01*
X14451800Y-12827000D02*
G75*
G03*
X14451800Y-12827000I-50000J0D01*
G01*
X14705800Y-12827000D02*
G75*
G03*
X14705800Y-12827000I-50000J0D01*
G01*
X14959800Y-12827000D02*
G75*
G03*
X14959800Y-12827000I-50000J0D01*
G01*
D11*
X12673219Y-13269476D02*
X12673219Y-13069476D01*
X12720838Y-13069476D01*
X12749409Y-13079000D01*
X12768457Y-13098048D01*
X12777981Y-13117095D01*
X12787505Y-13155190D01*
X12787505Y-13183762D01*
X12777981Y-13221857D01*
X12768457Y-13240905D01*
X12749409Y-13259952D01*
X12720838Y-13269476D01*
X12673219Y-13269476D01*
X12873219Y-13269476D02*
X12873219Y-13136143D01*
X12873219Y-13174238D02*
X12882743Y-13155190D01*
X12892267Y-13145667D01*
X12911314Y-13136143D01*
X12930362Y-13136143D01*
X12997028Y-13269476D02*
X12997028Y-13136143D01*
X12997028Y-13069476D02*
X12987505Y-13079000D01*
X12997028Y-13088524D01*
X13006552Y-13079000D01*
X12997028Y-13069476D01*
X12997028Y-13088524D01*
X13120838Y-13269476D02*
X13101790Y-13259952D01*
X13092267Y-13240905D01*
X13092267Y-13069476D01*
X13225600Y-13269476D02*
X13206552Y-13259952D01*
X13197028Y-13240905D01*
X13197028Y-13069476D01*
X13454171Y-13269476D02*
X13454171Y-13069476D01*
X13520838Y-13212333D01*
X13587505Y-13069476D01*
X13587505Y-13269476D01*
X13768457Y-13269476D02*
X13768457Y-13164714D01*
X13758933Y-13145667D01*
X13739886Y-13136143D01*
X13701790Y-13136143D01*
X13682743Y-13145667D01*
X13768457Y-13259952D02*
X13749409Y-13269476D01*
X13701790Y-13269476D01*
X13682743Y-13259952D01*
X13673219Y-13240905D01*
X13673219Y-13221857D01*
X13682743Y-13202809D01*
X13701790Y-13193286D01*
X13749409Y-13193286D01*
X13768457Y-13183762D01*
X13863695Y-13136143D02*
X13863695Y-13336143D01*
X13863695Y-13145667D02*
X13882743Y-13136143D01*
X13920838Y-13136143D01*
X13939886Y-13145667D01*
X13949409Y-13155190D01*
X13958933Y-13174238D01*
X13958933Y-13231381D01*
X13949409Y-13250428D01*
X13939886Y-13259952D01*
X13920838Y-13269476D01*
X13882743Y-13269476D01*
X13863695Y-13259952D01*
X14044648Y-13250428D02*
X14054171Y-13259952D01*
X14044648Y-13269476D01*
X14035124Y-13259952D01*
X14044648Y-13250428D01*
X14044648Y-13269476D01*
X14044648Y-13145667D02*
X14054171Y-13155190D01*
X14044648Y-13164714D01*
X14035124Y-13155190D01*
X14044648Y-13145667D01*
X14044648Y-13164714D01*
D12*
X12375600Y-13579000D02*
X12415600Y-13619000D01*
X12415600Y-13579000D02*
X12375600Y-13619000D01*
D11*
X12711314Y-13489476D02*
X12730362Y-13489476D01*
X12749409Y-13499000D01*
X12758933Y-13508524D01*
X12768457Y-13527571D01*
X12777981Y-13565667D01*
X12777981Y-13613286D01*
X12768457Y-13651381D01*
X12758933Y-13670428D01*
X12749409Y-13679952D01*
X12730362Y-13689476D01*
X12711314Y-13689476D01*
X12692267Y-13679952D01*
X12682743Y-13670428D01*
X12673219Y-13651381D01*
X12663695Y-13613286D01*
X12663695Y-13565667D01*
X12673219Y-13527571D01*
X12682743Y-13508524D01*
X12692267Y-13499000D01*
X12711314Y-13489476D01*
X12863695Y-13670428D02*
X12873219Y-13679952D01*
X12863695Y-13689476D01*
X12854171Y-13679952D01*
X12863695Y-13670428D01*
X12863695Y-13689476D01*
X13044648Y-13556143D02*
X13044648Y-13689476D01*
X12997028Y-13479952D02*
X12949409Y-13622809D01*
X13073219Y-13622809D01*
X13187505Y-13489476D02*
X13206552Y-13489476D01*
X13225600Y-13499000D01*
X13235124Y-13508524D01*
X13244648Y-13527571D01*
X13254171Y-13565667D01*
X13254171Y-13613286D01*
X13244648Y-13651381D01*
X13235124Y-13670428D01*
X13225600Y-13679952D01*
X13206552Y-13689476D01*
X13187505Y-13689476D01*
X13168457Y-13679952D01*
X13158933Y-13670428D01*
X13149409Y-13651381D01*
X13139886Y-13613286D01*
X13139886Y-13565667D01*
X13149409Y-13527571D01*
X13158933Y-13508524D01*
X13168457Y-13499000D01*
X13187505Y-13489476D01*
X13377981Y-13489476D02*
X13397028Y-13489476D01*
X13416076Y-13499000D01*
X13425600Y-13508524D01*
X13435124Y-13527571D01*
X13444648Y-13565667D01*
X13444648Y-13613286D01*
X13435124Y-13651381D01*
X13425600Y-13670428D01*
X13416076Y-13679952D01*
X13397028Y-13689476D01*
X13377981Y-13689476D01*
X13358933Y-13679952D01*
X13349409Y-13670428D01*
X13339886Y-13651381D01*
X13330362Y-13613286D01*
X13330362Y-13565667D01*
X13339886Y-13527571D01*
X13349409Y-13508524D01*
X13358933Y-13499000D01*
X13377981Y-13489476D01*
X13530362Y-13689476D02*
X13530362Y-13556143D01*
X13530362Y-13575190D02*
X13539886Y-13565667D01*
X13558933Y-13556143D01*
X13587505Y-13556143D01*
X13606552Y-13565667D01*
X13616076Y-13584714D01*
X13616076Y-13689476D01*
X13616076Y-13584714D02*
X13625600Y-13565667D01*
X13644648Y-13556143D01*
X13673219Y-13556143D01*
X13692267Y-13565667D01*
X13701790Y-13584714D01*
X13701790Y-13689476D01*
X13797028Y-13689476D02*
X13797028Y-13556143D01*
X13797028Y-13575190D02*
X13806552Y-13565667D01*
X13825600Y-13556143D01*
X13854171Y-13556143D01*
X13873219Y-13565667D01*
X13882743Y-13584714D01*
X13882743Y-13689476D01*
X13882743Y-13584714D02*
X13892267Y-13565667D01*
X13911314Y-13556143D01*
X13939886Y-13556143D01*
X13958933Y-13565667D01*
X13968457Y-13584714D01*
X13968457Y-13689476D01*
X14358933Y-13479952D02*
X14187505Y-13737095D01*
X14616076Y-13489476D02*
X14635124Y-13489476D01*
X14654171Y-13499000D01*
X14663695Y-13508524D01*
X14673219Y-13527571D01*
X14682743Y-13565667D01*
X14682743Y-13613286D01*
X14673219Y-13651381D01*
X14663695Y-13670428D01*
X14654171Y-13679952D01*
X14635124Y-13689476D01*
X14616076Y-13689476D01*
X14597028Y-13679952D01*
X14587505Y-13670428D01*
X14577981Y-13651381D01*
X14568457Y-13613286D01*
X14568457Y-13565667D01*
X14577981Y-13527571D01*
X14587505Y-13508524D01*
X14597028Y-13499000D01*
X14616076Y-13489476D01*
X14768457Y-13670428D02*
X14777981Y-13679952D01*
X14768457Y-13689476D01*
X14758933Y-13679952D01*
X14768457Y-13670428D01*
X14768457Y-13689476D01*
X14901790Y-13489476D02*
X14920838Y-13489476D01*
X14939886Y-13499000D01*
X14949409Y-13508524D01*
X14958933Y-13527571D01*
X14968457Y-13565667D01*
X14968457Y-13613286D01*
X14958933Y-13651381D01*
X14949409Y-13670428D01*
X14939886Y-13679952D01*
X14920838Y-13689476D01*
X14901790Y-13689476D01*
X14882743Y-13679952D01*
X14873219Y-13670428D01*
X14863695Y-13651381D01*
X14854171Y-13613286D01*
X14854171Y-13565667D01*
X14863695Y-13527571D01*
X14873219Y-13508524D01*
X14882743Y-13499000D01*
X14901790Y-13489476D01*
X15158933Y-13689476D02*
X15044648Y-13689476D01*
X15101790Y-13689476D02*
X15101790Y-13489476D01*
X15082743Y-13518048D01*
X15063695Y-13537095D01*
X15044648Y-13546619D01*
X15339886Y-13489476D02*
X15244648Y-13489476D01*
X15235124Y-13584714D01*
X15244648Y-13575190D01*
X15263695Y-13565667D01*
X15311314Y-13565667D01*
X15330362Y-13575190D01*
X15339886Y-13584714D01*
X15349409Y-13603762D01*
X15349409Y-13651381D01*
X15339886Y-13670428D01*
X15330362Y-13679952D01*
X15311314Y-13689476D01*
X15263695Y-13689476D01*
X15244648Y-13679952D01*
X15235124Y-13670428D01*
X15416076Y-13489476D02*
X15549409Y-13489476D01*
X15463695Y-13689476D01*
X15616076Y-13489476D02*
X15616076Y-13527571D01*
X15692267Y-13489476D02*
X15692267Y-13527571D01*
X15987505Y-13765667D02*
X15977981Y-13756143D01*
X15958933Y-13727571D01*
X15949409Y-13708524D01*
X15939886Y-13679952D01*
X15930362Y-13632333D01*
X15930362Y-13594238D01*
X15939886Y-13546619D01*
X15949409Y-13518048D01*
X15958933Y-13499000D01*
X15977981Y-13470428D01*
X15987505Y-13460905D01*
X16158933Y-13489476D02*
X16063695Y-13489476D01*
X16054171Y-13584714D01*
X16063695Y-13575190D01*
X16082743Y-13565667D01*
X16130362Y-13565667D01*
X16149409Y-13575190D01*
X16158933Y-13584714D01*
X16168457Y-13603762D01*
X16168457Y-13651381D01*
X16158933Y-13670428D01*
X16149409Y-13679952D01*
X16130362Y-13689476D01*
X16082743Y-13689476D01*
X16063695Y-13679952D01*
X16054171Y-13670428D01*
X16292267Y-13489476D02*
X16311314Y-13489476D01*
X16330362Y-13499000D01*
X16339886Y-13508524D01*
X16349409Y-13527571D01*
X16358933Y-13565667D01*
X16358933Y-13613286D01*
X16349409Y-13651381D01*
X16339886Y-13670428D01*
X16330362Y-13679952D01*
X16311314Y-13689476D01*
X16292267Y-13689476D01*
X16273219Y-13679952D01*
X16263695Y-13670428D01*
X16254171Y-13651381D01*
X16244648Y-13613286D01*
X16244648Y-13565667D01*
X16254171Y-13527571D01*
X16263695Y-13508524D01*
X16273219Y-13499000D01*
X16292267Y-13489476D01*
X16597028Y-13689476D02*
X16597028Y-13489476D01*
X16682743Y-13689476D02*
X16682743Y-13584714D01*
X16673219Y-13565667D01*
X16654171Y-13556143D01*
X16625600Y-13556143D01*
X16606552Y-13565667D01*
X16597028Y-13575190D01*
X16806552Y-13689476D02*
X16787505Y-13679952D01*
X16777981Y-13670428D01*
X16768457Y-13651381D01*
X16768457Y-13594238D01*
X16777981Y-13575190D01*
X16787505Y-13565667D01*
X16806552Y-13556143D01*
X16835124Y-13556143D01*
X16854171Y-13565667D01*
X16863695Y-13575190D01*
X16873219Y-13594238D01*
X16873219Y-13651381D01*
X16863695Y-13670428D01*
X16854171Y-13679952D01*
X16835124Y-13689476D01*
X16806552Y-13689476D01*
X16987505Y-13689476D02*
X16968457Y-13679952D01*
X16958933Y-13660905D01*
X16958933Y-13489476D01*
X17139886Y-13679952D02*
X17120838Y-13689476D01*
X17082743Y-13689476D01*
X17063695Y-13679952D01*
X17054171Y-13660905D01*
X17054171Y-13584714D01*
X17063695Y-13565667D01*
X17082743Y-13556143D01*
X17120838Y-13556143D01*
X17139886Y-13565667D01*
X17149410Y-13584714D01*
X17149410Y-13603762D01*
X17054171Y-13622809D01*
X17225600Y-13679952D02*
X17244648Y-13689476D01*
X17282743Y-13689476D01*
X17301790Y-13679952D01*
X17311314Y-13660905D01*
X17311314Y-13651381D01*
X17301790Y-13632333D01*
X17282743Y-13622809D01*
X17254171Y-13622809D01*
X17235124Y-13613286D01*
X17225600Y-13594238D01*
X17225600Y-13584714D01*
X17235124Y-13565667D01*
X17254171Y-13556143D01*
X17282743Y-13556143D01*
X17301790Y-13565667D01*
X17377981Y-13765667D02*
X17387505Y-13756143D01*
X17406552Y-13727571D01*
X17416076Y-13708524D01*
X17425600Y-13679952D01*
X17435124Y-13632333D01*
X17435124Y-13594238D01*
X17425600Y-13546619D01*
X17416076Y-13518048D01*
X17406552Y-13499000D01*
X17387505Y-13470428D01*
X17377981Y-13460905D01*
D13*
X12415600Y-13863000D02*
G75*
G03*
X12415600Y-13863000I-50000J0D01*
G01*
D11*
X12777981Y-13953476D02*
X12663695Y-13953476D01*
X12720838Y-13953476D02*
X12720838Y-13753476D01*
X12701790Y-13782048D01*
X12682743Y-13801095D01*
X12663695Y-13810619D01*
X12863695Y-13934428D02*
X12873219Y-13943952D01*
X12863695Y-13953476D01*
X12854171Y-13943952D01*
X12863695Y-13934428D01*
X12863695Y-13953476D01*
X12997028Y-13753476D02*
X13016076Y-13753476D01*
X13035124Y-13763000D01*
X13044648Y-13772524D01*
X13054171Y-13791571D01*
X13063695Y-13829667D01*
X13063695Y-13877286D01*
X13054171Y-13915381D01*
X13044648Y-13934428D01*
X13035124Y-13943952D01*
X13016076Y-13953476D01*
X12997028Y-13953476D01*
X12977981Y-13943952D01*
X12968457Y-13934428D01*
X12958933Y-13915381D01*
X12949409Y-13877286D01*
X12949409Y-13829667D01*
X12958933Y-13791571D01*
X12968457Y-13772524D01*
X12977981Y-13763000D01*
X12997028Y-13753476D01*
X13187505Y-13753476D02*
X13206552Y-13753476D01*
X13225600Y-13763000D01*
X13235124Y-13772524D01*
X13244648Y-13791571D01*
X13254171Y-13829667D01*
X13254171Y-13877286D01*
X13244648Y-13915381D01*
X13235124Y-13934428D01*
X13225600Y-13943952D01*
X13206552Y-13953476D01*
X13187505Y-13953476D01*
X13168457Y-13943952D01*
X13158933Y-13934428D01*
X13149409Y-13915381D01*
X13139886Y-13877286D01*
X13139886Y-13829667D01*
X13149409Y-13791571D01*
X13158933Y-13772524D01*
X13168457Y-13763000D01*
X13187505Y-13753476D01*
X13377981Y-13753476D02*
X13397028Y-13753476D01*
X13416076Y-13763000D01*
X13425600Y-13772524D01*
X13435124Y-13791571D01*
X13444648Y-13829667D01*
X13444648Y-13877286D01*
X13435124Y-13915381D01*
X13425600Y-13934428D01*
X13416076Y-13943952D01*
X13397028Y-13953476D01*
X13377981Y-13953476D01*
X13358933Y-13943952D01*
X13349409Y-13934428D01*
X13339886Y-13915381D01*
X13330362Y-13877286D01*
X13330362Y-13829667D01*
X13339886Y-13791571D01*
X13349409Y-13772524D01*
X13358933Y-13763000D01*
X13377981Y-13753476D01*
X13530362Y-13953476D02*
X13530362Y-13820143D01*
X13530362Y-13839190D02*
X13539886Y-13829667D01*
X13558933Y-13820143D01*
X13587505Y-13820143D01*
X13606552Y-13829667D01*
X13616076Y-13848714D01*
X13616076Y-13953476D01*
X13616076Y-13848714D02*
X13625600Y-13829667D01*
X13644648Y-13820143D01*
X13673219Y-13820143D01*
X13692267Y-13829667D01*
X13701790Y-13848714D01*
X13701790Y-13953476D01*
X13797028Y-13953476D02*
X13797028Y-13820143D01*
X13797028Y-13839190D02*
X13806552Y-13829667D01*
X13825600Y-13820143D01*
X13854171Y-13820143D01*
X13873219Y-13829667D01*
X13882743Y-13848714D01*
X13882743Y-13953476D01*
X13882743Y-13848714D02*
X13892267Y-13829667D01*
X13911314Y-13820143D01*
X13939886Y-13820143D01*
X13958933Y-13829667D01*
X13968457Y-13848714D01*
X13968457Y-13953476D01*
X14358933Y-13743952D02*
X14187505Y-14001095D01*
X14616076Y-13753476D02*
X14635124Y-13753476D01*
X14654171Y-13763000D01*
X14663695Y-13772524D01*
X14673219Y-13791571D01*
X14682743Y-13829667D01*
X14682743Y-13877286D01*
X14673219Y-13915381D01*
X14663695Y-13934428D01*
X14654171Y-13943952D01*
X14635124Y-13953476D01*
X14616076Y-13953476D01*
X14597028Y-13943952D01*
X14587505Y-13934428D01*
X14577981Y-13915381D01*
X14568457Y-13877286D01*
X14568457Y-13829667D01*
X14577981Y-13791571D01*
X14587505Y-13772524D01*
X14597028Y-13763000D01*
X14616076Y-13753476D01*
X14768457Y-13934428D02*
X14777981Y-13943952D01*
X14768457Y-13953476D01*
X14758933Y-13943952D01*
X14768457Y-13934428D01*
X14768457Y-13953476D01*
X14901790Y-13753476D02*
X14920838Y-13753476D01*
X14939886Y-13763000D01*
X14949409Y-13772524D01*
X14958933Y-13791571D01*
X14968457Y-13829667D01*
X14968457Y-13877286D01*
X14958933Y-13915381D01*
X14949409Y-13934428D01*
X14939886Y-13943952D01*
X14920838Y-13953476D01*
X14901790Y-13953476D01*
X14882743Y-13943952D01*
X14873219Y-13934428D01*
X14863695Y-13915381D01*
X14854171Y-13877286D01*
X14854171Y-13829667D01*
X14863695Y-13791571D01*
X14873219Y-13772524D01*
X14882743Y-13763000D01*
X14901790Y-13753476D01*
X15035124Y-13753476D02*
X15158933Y-13753476D01*
X15092267Y-13829667D01*
X15120838Y-13829667D01*
X15139886Y-13839190D01*
X15149409Y-13848714D01*
X15158933Y-13867762D01*
X15158933Y-13915381D01*
X15149409Y-13934428D01*
X15139886Y-13943952D01*
X15120838Y-13953476D01*
X15063695Y-13953476D01*
X15044648Y-13943952D01*
X15035124Y-13934428D01*
X15254171Y-13953476D02*
X15292267Y-13953476D01*
X15311314Y-13943952D01*
X15320838Y-13934428D01*
X15339886Y-13905857D01*
X15349409Y-13867762D01*
X15349409Y-13791571D01*
X15339886Y-13772524D01*
X15330362Y-13763000D01*
X15311314Y-13753476D01*
X15273219Y-13753476D01*
X15254171Y-13763000D01*
X15244648Y-13772524D01*
X15235124Y-13791571D01*
X15235124Y-13839190D01*
X15244648Y-13858238D01*
X15254171Y-13867762D01*
X15273219Y-13877286D01*
X15311314Y-13877286D01*
X15330362Y-13867762D01*
X15339886Y-13858238D01*
X15349409Y-13839190D01*
X15520838Y-13820143D02*
X15520838Y-13953476D01*
X15473219Y-13743952D02*
X15425600Y-13886809D01*
X15549409Y-13886809D01*
X15616076Y-13753476D02*
X15616076Y-13791571D01*
X15692267Y-13753476D02*
X15692267Y-13791571D01*
X15987505Y-14029667D02*
X15977981Y-14020143D01*
X15958933Y-13991571D01*
X15949409Y-13972524D01*
X15939886Y-13943952D01*
X15930362Y-13896333D01*
X15930362Y-13858238D01*
X15939886Y-13810619D01*
X15949409Y-13782048D01*
X15958933Y-13763000D01*
X15977981Y-13734428D01*
X15987505Y-13724905D01*
X16168457Y-13953476D02*
X16054171Y-13953476D01*
X16111314Y-13953476D02*
X16111314Y-13753476D01*
X16092267Y-13782048D01*
X16073219Y-13801095D01*
X16054171Y-13810619D01*
X16292267Y-13753476D02*
X16311314Y-13753476D01*
X16330362Y-13763000D01*
X16339886Y-13772524D01*
X16349409Y-13791571D01*
X16358933Y-13829667D01*
X16358933Y-13877286D01*
X16349409Y-13915381D01*
X16339886Y-13934428D01*
X16330362Y-13943952D01*
X16311314Y-13953476D01*
X16292267Y-13953476D01*
X16273219Y-13943952D01*
X16263695Y-13934428D01*
X16254171Y-13915381D01*
X16244648Y-13877286D01*
X16244648Y-13829667D01*
X16254171Y-13791571D01*
X16263695Y-13772524D01*
X16273219Y-13763000D01*
X16292267Y-13753476D01*
X16597028Y-13953476D02*
X16597028Y-13753476D01*
X16682743Y-13953476D02*
X16682743Y-13848714D01*
X16673219Y-13829667D01*
X16654171Y-13820143D01*
X16625600Y-13820143D01*
X16606552Y-13829667D01*
X16597028Y-13839190D01*
X16806552Y-13953476D02*
X16787505Y-13943952D01*
X16777981Y-13934428D01*
X16768457Y-13915381D01*
X16768457Y-13858238D01*
X16777981Y-13839190D01*
X16787505Y-13829667D01*
X16806552Y-13820143D01*
X16835124Y-13820143D01*
X16854171Y-13829667D01*
X16863695Y-13839190D01*
X16873219Y-13858238D01*
X16873219Y-13915381D01*
X16863695Y-13934428D01*
X16854171Y-13943952D01*
X16835124Y-13953476D01*
X16806552Y-13953476D01*
X16987505Y-13953476D02*
X16968457Y-13943952D01*
X16958933Y-13924905D01*
X16958933Y-13753476D01*
X17139886Y-13943952D02*
X17120838Y-13953476D01*
X17082743Y-13953476D01*
X17063695Y-13943952D01*
X17054171Y-13924905D01*
X17054171Y-13848714D01*
X17063695Y-13829667D01*
X17082743Y-13820143D01*
X17120838Y-13820143D01*
X17139886Y-13829667D01*
X17149410Y-13848714D01*
X17149410Y-13867762D01*
X17054171Y-13886809D01*
X17225600Y-13943952D02*
X17244648Y-13953476D01*
X17282743Y-13953476D01*
X17301790Y-13943952D01*
X17311314Y-13924905D01*
X17311314Y-13915381D01*
X17301790Y-13896333D01*
X17282743Y-13886809D01*
X17254171Y-13886809D01*
X17235124Y-13877286D01*
X17225600Y-13858238D01*
X17225600Y-13848714D01*
X17235124Y-13829667D01*
X17254171Y-13820143D01*
X17282743Y-13820143D01*
X17301790Y-13829667D01*
X17377981Y-14029667D02*
X17387505Y-14020143D01*
X17406552Y-13991571D01*
X17416076Y-13972524D01*
X17425600Y-13943952D01*
X17435124Y-13896333D01*
X17435124Y-13858238D01*
X17425600Y-13810619D01*
X17416076Y-13782048D01*
X17406552Y-13763000D01*
X17387505Y-13734428D01*
X17377981Y-13724905D01*
M02*
